/* XPM */
static char *result[] = {
/* columns rows colors chars-per-pixel */
"64 64 10 1 ",
"  c #201729",
". c #563A3F",
"X c #2D5B3F",
"o c #79584F",
"O c #94785C",
"+ c #29973B",
"@ c #2ECA35",
"# c #62EB3D",
"$ c white",
"% c None",
/* pixels */
"%%%%%%%%%%%%%%%%%%%%%%%%%%%%%%%%%%%%%%%%%%%%%%%%%%%%%%%%%%%%%%%%",
"%%%%%%%%%%%%%%%%%%%%%%%%%%%%%%%%%%%%%%%%%%%%%%%%%%%%%%%%%%%%%%%%",
"%%%%%%%%%%%%%%%%%%%%%%%%%oooooooooooooo%%%%%%%%%%%%%%%%%%%%%%%%%",
"%%%%%%%%%%%%%%%%%%%%%%%%%oooooooooooooo%%%%%%%%%%%%%%%%%%%%%%%%%",
"%%%%%%%%%%%%%%%%%%%%%%%%%oooooooooooooo%%%%%%%%%%%%%%%%%%%%%%%%%",
"%%%%%%%%%%%%%%%%%%%ooooooOOOOOOOOOOOooooooooooo%%%%%%%%%%%%%%%%%",
"%%%%%%%%%%%%%%%%%%%ooooooOOOOOOOOOOOooooooooooo%%%%%%%%%%%%%%%%%",
"%%%%%%%%%%%%%%%%%ooOOOOOO..............OOOOOOOOooo%%%%%%%%%%%%%%",
"%%%%%%%%%%%%%%%%%ooOOOOOO..............OOOOOOOOooo%%%%%%%%%%%%%%",
"%%%%%%%%%%%%%%%%%ooOOOOOO..............OOOOOOOOooo%%%%%%%%%%%%%%",
"%%%%%%%%%%%%%%oooOO......              .....OOOOOOoo%%%%%%%%%%%%",
"%%%%%%%%%%%%%%oooOO......              .....OOOOOOoo%%%%%%%%%%%%",
"%%%%%%%%%%%%%%oooOO......              .....OOOOOOoo%%%%%%%%%%%%",
"%%%%%%%%%%%%%%oooOOOOO                   OOOOOOOOOoo%%%%%%%%%%%%",
"%%%%%%%%%%%%%%oooOOOOO                   OOOOOOOOOoo%%%%%%%%%%%%",
"%%%%%%%%%%%%%%oooOOOOO                   OOOOOOOOOoo%%%%%%%%%%%%",
"%%%%%%%%%%%%%%   ooOOOOOOOOOOOOOOOOOOOOOOOOOooo...%%%%%%%%%%%%%%",
"%%%%%%%%%%%%%%   ooOOOOOOOOOOOOOOOOOOOOOOOOOooo...%%%%%%%%%%%%%%",
"%%%%%%%%%%%###@@@oooooooooooOO...oooooooooooooo...%%%%%%%%%%%%%%",
"%%%%%%%%%%%###@@@oooooooooooOO...oooooooooooooo...%%%%%%%%%%%%%%",
"%%%%%%%%%%%###@@@oooooooooooOO...oooooooooooooo...%%%%%%%%%%%%%%",
"%%%%%%%%@@@+++XXXXX...oooooo..ooo...     ......%%%%%%%%%%%%%%%%%",
"%%%%%%%%@@@+++XXXXX...oooooo..ooo...     ......%%%%%%%%%%%%%%%%%",
"%%%%%%%%@@@+++XXXXX...oooooo..ooo...     ......%%%%%%%%%%%%%%%%%",
"%%%%%%##+++@@@@@@oo...oooOOO..OOO$$$     $$$...%%%ooooo%%%%%%%%%",
"%%%%%%##+++@@@@@@oo...oooOOO..OOO$$$     $$$...%%%ooooo%%%%%%%%%",
"%%%%%%##+++@@@@@@oo...oooOOO..OOO$$$     $$$...%%%ooooo%%%%%%%%%",
"%%%###++@@@@@@   ooooooooOOO..OOO           ......OOOOOooo%%%%%%",
"%%%###++@@@@@@   ooooooooOOO..OOO           ......OOOOOooo%%%%%%",
"%%%###++@@@@@@   ooooooooOOO..OOO           ......OOOOOooo%%%%%%",
"%%%+++@@%%%%%%   oooooooo...oooooOOO     ......   ..OOOooo%%%%%%",
"%%%+++@@%%%%%%   oooooooo...oooooOOO     ......   ..OOOooo%%%%%%",
"%%%%%%%%%%%%%%   oooooooo...oooooOOOooooo......   ..   %%%%%%%%%",
"%%%%%%%%%%%%%%   oooooooo...oooooOOOooooo......   ..   %%%%%%%%%",
"%%%%%%%%%%%%%%   oooooooo...oooooOOOooooo......   ..   %%%%%%%%%",
"%%%%%%%%%%%%%%   ..oooooo...oooooooo.....ooo...     %%%%%%%%%%%%",
"%%%%%%%%%%%%%%   ..oooooo...oooooooo.....ooo...     %%%%%%%%%%%%",
"%%%%%%%%%%%%%%   ..oooooo...oooooooo.....ooo...     %%%%%%%%%%%%",
"%%%%%%%%%%%%%%%%%  ooooooooo..ooooooooo..oooooo   %%%%%%%%%%%%%%",
"%%%%%%%%%%%%%%%%%  ooooooooo..ooooooooo..oooooo   %%%%%%%%%%%%%%",
"%%%%%%%%%%%%%%%%%  ooooooooo..ooooooooo..oooooo   %%%%%%%%%%%%%%",
"%%%%%%%%%%%%%%%%%  ooooooooo..ooooooooooooooooo   %%%%%%%%%%%%%%",
"%%%%%%%%%%%%%%%%%  ooooooooo..ooooooooooooooooo   %%%%%%%%%%%%%%",
"%%%%%%%%%%%%%%%%%  ooooooooo..ooooooooooooooooo   %%%%%%%%%%%%%%",
"%%%%%%%%%%%%%%%%%  ...oooooo..ooooooooo..ooo...   %%%%%%%%%%%%%%",
"%%%%%%%%%%%%%%%%%  ...oooooo..ooooooooo..ooo...   %%%%%%%%%%%%%%",
"%%%%%%%%%%%%%%%%%%%      ooo..ooo...ooo..      %%%%%%%%%%%%%%%%%",
"%%%%%%%%%%%%%%%%%%%      ooo..ooo...ooo..      %%%%%%%%%%%%%%%%%",
"%%%%%%%%%%%%%%%%%%%      ooo..ooo...ooo..      %%%%%%%%%%%%%%%%%",
"%%%%%%%%%%%%%%%%%%%   +++                +++   %%%%%%%%%%%%%%%%%",
"%%%%%%%%%%%%%%%%%%%   +++                +++   %%%%%%%%%%%%%%%%%",
"%%%%%%%%%%%%%%%%%%%   +++                +++   %%%%%%%%%%%%%%%%%",
"%%%%%%%%%%%%%%%%%%%   XXXXXX  %%%%%%%%%     %%%%%%%%%%%%%%%%%%%%",
"%%%%%%%%%%%%%%%%%%%   XXXXXX  %%%%%%%%%     %%%%%%%%%%%%%%%%%%%%",
"%%%%%%%%%%%%%%%%%%%   XXXXXX  %%%%%%%%%     %%%%%%%%%%%%%%%%%%%%",
"%%%%%%%%%%%%%%%%%%%   XXXXXX  %%%%%%%%%%%%%%%%%%%%%%%%%%%%%%%%%%",
"%%%%%%%%%%%%%%%%%%%   XXXXXX  %%%%%%%%%%%%%%%%%%%%%%%%%%%%%%%%%%",
"%%%%%%%%%%%%%%%%%%%%%%      %%%%%%%%%%%%%%%%%%%%%%%%%%%%%%%%%%%%",
"%%%%%%%%%%%%%%%%%%%%%%      %%%%%%%%%%%%%%%%%%%%%%%%%%%%%%%%%%%%",
"%%%%%%%%%%%%%%%%%%%%%%      %%%%%%%%%%%%%%%%%%%%%%%%%%%%%%%%%%%%",
"%%%%%%%%%%%%%%%%%%%%%%%%%%%%%%%%%%%%%%%%%%%%%%%%%%%%%%%%%%%%%%%%",
"%%%%%%%%%%%%%%%%%%%%%%%%%%%%%%%%%%%%%%%%%%%%%%%%%%%%%%%%%%%%%%%%",
"%%%%%%%%%%%%%%%%%%%%%%%%%%%%%%%%%%%%%%%%%%%%%%%%%%%%%%%%%%%%%%%%",
"%%%%%%%%%%%%%%%%%%%%%%%%%%%%%%%%%%%%%%%%%%%%%%%%%%%%%%%%%%%%%%%%"
};
