/* XPM */
static char *result[] = {
/* columns rows colors chars-per-pixel */
"64 64 7 1 ",
"  c #201729",
". c #563A3F",
"X c #2D5B3F",
"o c #79584F",
"O c #94785C",
"+ c #2ECA35",
"@ c None",
/* pixels */
"@@@@@@@@@@@@@@@@@@@@@@@++@@@@@@@@@@@@@@@@@@@@@@@@@@@@@@@@@@@@@@@",
"@@@@@@@@@@@@@@@@@@@@@@@++@@@@@@@@@@@@@@@@@@@@@@@@@@@@@@@@@@@@@@@",
"@@@@@@@@@@@@@@@@@@@@+++ooooooooooooo@@@@@@@@@@@@@@@@@@@@@@@@@@@@",
"@@@@@@@@@@@@@@@@@@@@+++ooooooooooooo@@@@@@@@@@@@@@@@@@@@@@@@@@@@",
"@@@@@@@@@@@@@@@@@ooooooOOOOOOOOOOOOOoooooo@@@@@@@@@@@@@@@@@@@@@@",
"@@@@@@@@@@@@@@@@@ooooooOOOOOOOOOOOOOoooooo@@@@@@@@@@@@@@@@@@@@@@",
"@@@@@@@@@@@@@@@@@ooooooOOOOOOOOOOOOOoooooo@@@@@@@@@@@@@@@@@@@@@@",
"@@@@@@@@@@@@@@@ooOOOOOO.............OOOOOOoo@@@@@@@@@@@@@@@@@@@@",
"@@@@@@@@@@@@@@@ooOOOOOO.............OOOOOOoo@@@@@@@@@@@@@@@@@@@@",
"@@@@@@@@@@@@@@@ooOOOOOO.............OOOOOOoo@@@@@@@@@@@@@@@@@@@@",
"@@@@@@@@@@@@oooOO......             ......OOooo@@@@@@@@@@@@@@@@@",
"@@@@@@@@@@@@oooOO......             ......OOooo@@@@@@@@@@@@@@@@@",
"@@@@@@@@@@@@oooOOOOO                   OOOOOooo@@@@@@@@@@@@@@@@@",
"@@@@@@@@@@@@oooOOOOO                   OOOOOooo@@@@@@@@@@@@@@@@@",
"@@@@@@@@@@@@oooOOOOO                   OOOOOooo@@@@@@@@@@@@@@@@@",
"@@@@@@@@@@@@   ..OOOOOOOOOOO      OOOOOOOOoo...@@@@@@@@@@@@@@@@@",
"@@@@@@@@@@@@   ..OOOOOOOOOOO      OOOOOOOOoo...@@@@@@@@@@@@@@@@@",
"@@@@@@@@@@@@   ..OOOOOOOOOOO      OOOOOOOOoo...@@@@@@@@@@@@@@@@@",
"@@@@@@@@@@@@   ooooo.....OOOOOOOOOOOOOO...oo...@@@@@@@@@@@@@@@@@",
"@@@@@@@@@@@@   ooooo.....OOOOOOOOOOOOOO...oo...@@@@@@@@@@@@@@@@@",
"@@@@@@@@@@@@   ooooo...oo...OOOOOO.....ooooo...@@@@@@@@@@@@@@@@@",
"@@@@@@@@@@@@   ooooo...oo...OOOOOO.....ooooo...@@@@@@@@@@@@@@@@@",
"@@@@@@@@@@@@   ooooo...oo...OOOOOO.....ooooo...@@@@@@@@@@@@@@@@@",
"@@@@@@@@@@@@   ooOOO...ooooo........oooooo.....@@@@@@@@@@@@@@@@@",
"@@@@@@@@@@@@   ooOOO...ooooo........oooooo.....@@@@@@@@@@@@@@@@@",
"@@@@@@@@@@@@   ooOOO...ooooo........oooooo.....@@@@@@@@@@@@@@@@@",
"@@@@@@@@@@@@   ooOOO...ooooooooooo.....ooo.....@@@@@@@@@@@@@@@@@",
"@@@@@@@@@@@@   ooOOO...ooooooooooo.....ooo.....@@@@@@@@@@@@@@@@@",
"@@@@@@@@@@@@   .....ooooooooooo...OOOOO.....   @@@@@@@@@@@@@@@@@",
"@@@@@@@@@@@@   .....ooooooooooo...OOOOO.....   @@@@@@@@@@@@@@@@@",
"@@@@@@@@@@@@   .....ooooooooooo...OOOOO.....   @@@@@@@@@@@@@@@@@",
"@@@@@@@@@@@@@@@  oooooooooooooo   ooOOO...oo   @@@@@@@@@@@@@@@@@",
"@@@@@@@@@@@@@@@  oooooooooooooo   ooOOO...oo   @@@@@@@@@@@@@@@@@",
"@@@@@@@@@@@@@@@  oooooooooooooo   ooOOO...oo   @@@@@@@@@@@@@@@@@",
"@@@@@@@@@@@@@@@  oooooooo...           ooooo   @@@@@@@@@@@@@@@@@",
"@@@@@@@@@@@@@@@  oooooooo...           ooooo   @@@@@@@@@@@@@@@@@",
"@@@@@@@@@@@@@@@  oooooooo......     ........   @@@@@@@@@@@@@@@@@",
"@@@@@@@@@@@@@@@  oooooooo......     ........   @@@@@@@@@@@@@@@@@",
"@@@@@@@@@@@@@@@  oooooooo......     ........   @@@@@@@@@@@@@@@@@",
"@@@@@@@@@@@@   ..oooooooo...ooo........ooo..   @@@@@@@@@@@@@@@@@",
"@@@@@@@@@@@@   ..oooooooo...ooo........ooo..   @@@@@@@@@@@@@@@@@",
"@@@@@@@@@@@@   ..oooooooo...ooo........ooo..   @@@@@@@@@@@@@@@@@",
"@@@@@@@@@@@@   oooooooo..ooooooooo..oooooo..   @@@@@@@@@@@@@@@@@",
"@@@@@@@@@@@@   oooooooo..ooooooooo..oooooo..   @@@@@@@@@@@@@@@@@",
"@@@@@@@@@@@@   ..oooooo..ooooooooo..oooooo..   @@@@@@@@@@@@@@@@@",
"@@@@@@@@@@@@   ..oooooo..ooooooooo..oooooo..   @@@@@@@@@@@@@@@@@",
"@@@@@@@@@@@@   ..oooooo..ooooooooo..oooooo..   @@@@@@@@@@@@@@@@@",
"@@@@@@@@@@@@@@@  ooo........ooo...oooooooo  @@@@@@@@@@@@@@@@@@@@",
"@@@@@@@@@@@@@@@  ooo........ooo...oooooooo  @@@@@@@@@@@@@@@@@@@@",
"@@@@@@@@@@@@@@@  ooo........ooo...oooooooo  @@@@@@@@@@@@@@@@@@@@",
"@@@@@@@@@@@@@@@@@      oo.........oo      @@@@@@@@@@@@@@@@@@@@@@",
"@@@@@@@@@@@@@@@@@      oo.........oo      @@@@@@@@@@@@@@@@@@@@@@",
"@@@@@@@@@@@@@@@  XXXXXX             XXX   @@@@@@@@@@@@@@@@@@@@@@",
"@@@@@@@@@@@@@@@  XXXXXX             XXX   @@@@@@@@@@@@@@@@@@@@@@",
"@@@@@@@@@@@@@@@  XXXXXX             XXX   @@@@@@@@@@@@@@@@@@@@@@",
"@@@@@@@@@@@@@@@  XXXXXX  @@@@@@@@@     @@@@@@@@@@@@@@@@@@@@@@@@@",
"@@@@@@@@@@@@@@@  XXXXXX  @@@@@@@@@     @@@@@@@@@@@@@@@@@@@@@@@@@",
"@@@@@@@@@@@@@@@  XXXXXX  @@@@@@@@@     @@@@@@@@@@@@@@@@@@@@@@@@@",
"@@@@@@@@@@@@@@@@@      @@@@@@@@@@@@@@@@@@@@@@@@@@@@@@@@@@@@@@@@@",
"@@@@@@@@@@@@@@@@@      @@@@@@@@@@@@@@@@@@@@@@@@@@@@@@@@@@@@@@@@@",
"@@@@@@@@@@@@@@@@@@@@@@@@@@@@@@@@@@@@@@@@@@@@@@@@@@@@@@@@@@@@@@@@",
"@@@@@@@@@@@@@@@@@@@@@@@@@@@@@@@@@@@@@@@@@@@@@@@@@@@@@@@@@@@@@@@@",
"@@@@@@@@@@@@@@@@@@@@@@@@@@@@@@@@@@@@@@@@@@@@@@@@@@@@@@@@@@@@@@@@",
"@@@@@@@@@@@@@@@@@@@@@@@@@@@@@@@@@@@@@@@@@@@@@@@@@@@@@@@@@@@@@@@@"
};
