/* XPM */
static char *result[] = {
/* columns rows colors chars-per-pixel */
"64 64 10 1 ",
"  c #201729",
". c #563A3F",
"X c #2D5B3F",
"o c #79584F",
"O c #94785C",
"+ c #29973B",
"@ c #2ECA35",
"# c #62EB3D",
"$ c white",
"% c None",
/* pixels */
"%%%%%%%%%%%%%%%%%%%%%%%%%oooooo%%%%%%%%%%%%%%%%%%%%%%%%%%%%%%%%%",
"%%%%%%%%%%%%%%%%%%%%%%%%%oooooo%%%%%%%%%%%%%%%%%%%%%%%%%%%%%%%%%",
"%%%%%%%%%%%%%%%%%%%%%%%ooOOOOOOooooo%%%%%%%%%%%%%%%%%%%%%%%%%%%%",
"%%%%%%%%%%%%%%%%%%%%%%%ooOOOOOOooooo%%%%%%%%%%%%%%%%%%%%%%%%%%%%",
"%%%%%%%%%%%%%%%%%ooooooOO......OOOOOoooooo%%%%%%%%%%%%%%%%%%%%%%",
"%%%%%%%%%%%%%%%%%ooooooOO......OOOOOoooooo%%%%%%%%%%%%%%%%%%%%%%",
"%%%%%%%%%%%%%%%%%ooooooOO......OOOOOoooooo%%%%%%%%%%%%%%%%%%%%%%",
"%%%%%%%%%%%%%%%ooOOOOOO.............OOOOOOoo%%%%%%%%%%%%%%%%%%%%",
"%%%%%%%%%%%%%%%ooOOOOOO.............OOOOOOoo%%%%%%%%%%%%%%%%%%%%",
"%%%%%%%%%%%%%%%ooOOOOOO.............OOOOOOoo%%%%%%%%%%%%%%%%%%%%",
"%%%%%%%%%%%%oooOO......             ......OOooo%%%%%%%%%%%%%%%%%",
"%%%%%%%%%%%%oooOO......             ......OOooo%%%%%%%%%%%%%%%%%",
"%%%%%%%%%%%%oooOOOOO                   OOOOOooo%%%%%%%%%%%%%%%%%",
"%%%%%%%%%%%%oooOOOOO                   OOOOOooo%%%%%%%%%%%%%%%%%",
"%%%%%%%%%%%%oooOOOOO                   OOOOOooo%%%%%%%%%%%%%%%%%",
"%%%%%%%%%%%%   ..OOOOOOOOOOOOOOOOOOOOOOOOO.....%%%%%%%%%%%%%%%%%",
"%%%%%%%%%%%%   ..OOOOOOOOOOOOOOOOOOOOOOOOO.....%%%%%%%%%%%%%%%%%",
"%%%%%%%%%%%%   ..OOOOOOOOOOOOOOOOOOOOOOOOO.....%%%%%%%%%%%%%%%%%",
"%%%%%%%%%%%%   .....oooOOOOOOOOOOOOOooo...oo...%%%%%%%%%%%%%%%%%",
"%%%%%%%%%%%%   .....oooOOOOOOOOOOOOOooo...oo...%%%%%%%%%%%%%%%%%",
"%%%%%%%%%%%%   ..oooooo..oooooooooooooo...oo...%%%%%%%%%%%%%%%%%",
"%%%%%%%%%%%%   ..oooooo..oooooooooooooo...oo...%%%%%%%%%%%%%%%%%",
"%%%%%%%%%%%%   ..oooooo..oooooooooooooo...oo...%%%%%%%%%%%%%%%%%",
"%%%%%%%%%%%%        OOO..ooooooooo..ooo...oo...%%%%%%%%%%%%%%%%%",
"%%%%%%%%%%%%        OOO..ooooooooo..ooo...oo...%%%%%%%%%%%%%%%%%",
"%%%%%%%%%%%%        OOO..ooooooooo..ooo...oo...%%%%%%%%%%%%%%%%%",
"%%%%%%%%%%%%   $$      ..ooo...ooooo......oo...%%%%%%%%%%%%%%%%%",
"%%%%%%%%%%%%   $$      ..ooo...ooooo......oo...%%%%%%%%%%%%%%%%%",
"%%%%%%%%%%%%           oo...+++...ooooo...oo...%%%%%%%%%%%%%%%%%",
"%%%%%%%%%%%%           oo...+++...ooooo...oo...%%%%%%%%%%%%%%%%%",
"%%%%%%%%%%%%           oo...+++...ooooo...oo...%%%%%%%%%%%%%%%%%",
"%%%%%%%%%%%%        ...oo@@@+++@@@oo...ooo  %%%%%%%%%%%%%%%%%%%%",
"%%%%%%%%%%%%        ...oo@@@+++@@@oo...ooo  %%%%%%%%%%%%%%%%%%%%",
"%%%%%%%%%%%%        ...oo@@@+++@@@oo...ooo  %%%%%%%%%%%%%%%%%%%%",
"%%%%%%%%%%%%   ooooo...oo###+++@@@OO...ooo  %%%%%%%%%%%%%%%%%%%%",
"%%%%%%%%%%%%   ooooo...oo###+++@@@OO...ooo  %%%%%%%%%%%%%%%%%%%%",
"%%%%%%%%%%%%   oo...ooooo###+++@@@.....ooo  %%%%%%%%%%%%%%%%%%%%",
"%%%%%%%%%%%%   oo...ooooo###+++@@@.....ooo  %%%%%%%%%%%%%%%%%%%%",
"%%%%%%%%%%%%   oo...ooooo###+++@@@.....ooo  %%%%%%%%%%%%%%%%%%%%",
"%%%%%%%%%%%%   oo...ooooo...@@@.....ooo.....   %%%%%%%%%%%%%%%%%",
"%%%%%%%%%%%%   oo...ooooo...@@@.....ooo.....   %%%%%%%%%%%%%%%%%",
"%%%%%%%%%%%%   oo...ooooo...@@@.....ooo.....   %%%%%%%%%%%%%%%%%",
"%%%%%%%%%%%%   .....oooooooo......ooooo...oo   %%%%%%%%%%%%%%%%%",
"%%%%%%%%%%%%   .....oooooooo......ooooo...oo   %%%%%%%%%%%%%%%%%",
"%%%%%%%%%%%%   .....ooooooooooo...ooooo.....   %%%%%%%%%%%%%%%%%",
"%%%%%%%%%%%%   .....ooooooooooo...ooooo.....   %%%%%%%%%%%%%%%%%",
"%%%%%%%%%%%%   .....ooooooooooo...ooooo.....   %%%%%%%%%%%%%%%%%",
"%%%%%%%%%%%%%%%  ......oooooooo...ooooo...  %%%%%%%%%%%%%%%%%%%%",
"%%%%%%%%%%%%%%%  ......oooooooo...ooooo...  %%%%%%%%%%%%%%%%%%%%",
"%%%%%%%%%%%%%%%  ......oooooooo...ooooo...  %%%%%%%%%%%%%%%%%%%%",
"%%%%%%%%%%%%%%%%%      .....ooo.....      %%%%%%%%%%%%%%%%%%%%%%",
"%%%%%%%%%%%%%%%%%      .....ooo.....      %%%%%%%%%%%%%%%%%%%%%%",
"%%%%%%%%%%%%%%%%%%%%%%%             %%%%%%%%%%%%%%%%%%%%%%%%%%%%",
"%%%%%%%%%%%%%%%%%%%%%%%             %%%%%%%%%%%%%%%%%%%%%%%%%%%%",
"%%%%%%%%%%%%%%%%%%%%%%%             %%%%%%%%%%%%%%%%%%%%%%%%%%%%",
"%%%%%%%%%%%%%%%%%%%%%%%  XXXXXX   %%%%%%%%%%%%%%%%%%%%%%%%%%%%%%",
"%%%%%%%%%%%%%%%%%%%%%%%  XXXXXX   %%%%%%%%%%%%%%%%%%%%%%%%%%%%%%",
"%%%%%%%%%%%%%%%%%%%%%%%  XXXXXX   %%%%%%%%%%%%%%%%%%%%%%%%%%%%%%",
"%%%%%%%%%%%%%%%%%%%%%%%  XXXXXX   %%%%%%%%%%%%%%%%%%%%%%%%%%%%%%",
"%%%%%%%%%%%%%%%%%%%%%%%  XXXXXX   %%%%%%%%%%%%%%%%%%%%%%%%%%%%%%",
"%%%%%%%%%%%%%%%%%%%%%%%%%      %%%%%%%%%%%%%%%%%%%%%%%%%%%%%%%%%",
"%%%%%%%%%%%%%%%%%%%%%%%%%      %%%%%%%%%%%%%%%%%%%%%%%%%%%%%%%%%",
"%%%%%%%%%%%%%%%%%%%%%%%%%      %%%%%%%%%%%%%%%%%%%%%%%%%%%%%%%%%",
"%%%%%%%%%%%%%%%%%%%%%%%%%%%%%%%%%%%%%%%%%%%%%%%%%%%%%%%%%%%%%%%%"
};
