/* XPM */
static char *result[] = {
/* columns rows colors chars-per-pixel */
"64 64 10 1 ",
"  c #201729",
". c #563A3F",
"X c #2D5B3F",
"o c #79584F",
"O c #94785C",
"+ c #29973B",
"@ c #2ECA35",
"# c #62EB3D",
"$ c white",
"% c None",
/* pixels */
"%%%%%%%%%%%%%%%%%%%%%%%%%%%%%%%%%%%%%%%%%%%%%%%%%%%%%%%%%%%%%%%%",
"%%%%%%%%%%%%%%%%%%%%%%%%%%%%%%%%%%%%%%%%%%%%%%%%%%%%%%%%%%%%%%%%",
"%%%%%%%%%%%%%%%%%%%%%%%%%%oooooooooooooo%%%%%%%%%%%%%%%%%%%%%%%%",
"%%%%%%%%%%%%%%%%%%%%%%%%%%oooooooooooooo%%%%%%%%%%%%%%%%%%%%%%%%",
"%%%%%%%%%%%%%%%%%%%%%%%%%%oooooooooooooo%%%%%%%%%%%%%%%%%%%%%%%%",
"%%%%%%%%%%%%%%%%%%%%ooooooOOOOOoooOOOOOOoooooooo%%%%%%%%%%%%%%%%",
"%%%%%%%%%%%%%%%%%%%%ooooooOOOOOoooOOOOOOoooooooo%%%%%%%%%%%%%%%%",
"%%%%%%%%%%%%%%%%%%ooOOOOOO..............OOOOOOOOooo%%%%%%%%%%%%%",
"%%%%%%%%%%%%%%%%%%ooOOOOOO..............OOOOOOOOooo%%%%%%%%%%%%%",
"%%%%%%%%%%%%%%%%%%ooOOOOOO..............OOOOOOOOooo%%%%%%%%%%%%%",
"%%%%%%%%%%%%%%%oooOO......              .....OOOOOOoo%%%%%%%%%%%",
"%%%%%%%%%%%%%%%oooOO......              .....OOOOOOoo%%%%%%%%%%%",
"%%%%%%%%%%%%%%%oooOO......              .....OOOOOOoo%%%%%%%%%%%",
"%%%%%%%%%%%%%%%oooOOOOO                   OOOOOOOOOoo%%%%%%%%%%%",
"%%%%%%%%%%%%%%%oooOOOOO                   OOOOOOOOOoo%%%%%%%%%%%",
"%%%%%%%%%%%%%%%oooOOOOO                   OOOOOOOOOoo%%%%%%%%%%%",
"%%%%%%%%%%%%%%%   ooOOOOOOOOOOOOOOOOOOOOOOOOOooo...%%%%%%%%%%%%%",
"%%%%%%%%%%%%%%%   ooOOOOOOOOOOOOOOOOOOOOOOOOOooo...%%%%%%%%%%%%%",
"%%%%%%%########   oooooOOO...ooooooooooooooooooo...%%%%%%%%%%%%%",
"%%%%%%%########   oooooOOO...ooooooooooooooooooo...%%%%%%%%%%%%%",
"%%%%%%%########   oooooOOO...ooooooooooooooooooo...%%%%%%%%%%%%%",
"%%%%###@@++++++   ..ooo...ooo..      ...ooooo...%%%%%%%%%%%%%%%%",
"%%%%###@@++++++   ..ooo...ooo..      ...ooooo...%%%%%%%%%%%%%%%%",
"%%%%###@@++++++   ..ooo...ooo..      ...ooooo...%%%%%%%%%%%%%%%%",
"%%%%%%%@@@@@@@@   ..OOO...OOO$$      $$$ooooo...ooooo%%%%%%%%%%%",
"%%%%%%%@@@@@@@@   ..OOO...OOO$$      $$$ooooo...ooooo%%%%%%%%%%%",
"%%%%%%%@@@@@@@@   ..OOO...OOO$$      $$$ooooo...ooooo%%%%%%%%%%%",
"%%%%%%%%%%%%%%%   ooOOO...OOO           oo...   OOOOOooo%%%%%%%%",
"%%%%%%%%%%%%%%%   ooOOO...OOO           oo...   OOOOOooo%%%%%%%%",
"%%%%%%%%%%%%%%%   ooOOO...OOO           oo...   OOOOOooo%%%%%%%%",
"%%%%%%%%%%%%%%%   oo...ooooooOO      ...oo   ......OOooo%%%%%%%%",
"%%%%%%%%%%%%%%%   oo...ooooooOO      ...oo   ......OOooo%%%%%%%%",
"%%%%%%%%%%%%%%%   oo...ooooooOOoooooo...oo   ......  %%%%%%%%%%%",
"%%%%%%%%%%%%%%%   oo...ooooooOOoooooo...oo   ......  %%%%%%%%%%%",
"%%%%%%%%%%%%%%%   oo...ooooooOOoooooo...oo   ......  %%%%%%%%%%%",
"%%%%%%%%%%%%%%%   .....oooooooo......ooooo...      %%%%%%%%%%%%%",
"%%%%%%%%%%%%%%%   .....oooooooo......ooooo...      %%%%%%%%%%%%%",
"%%%%%%%%%%%%%%%   .....oooooooo......ooooo...      %%%%%%%%%%%%%",
"%%%%%%%%%%%%%%%%%%  ooo...oooooooo...oooooooo...   %%%%%%%%%%%%%",
"%%%%%%%%%%%%%%%%%%  ooo...oooooooo...oooooooo...   %%%%%%%%%%%%%",
"%%%%%%%%%%%%%%%%%%  ooo...oooooooo...oooooooo...   %%%%%%%%%%%%%",
"%%%%%%%%%%%%%%%%%%  ooo...oooooooooooooooooooooo   %%%%%%%%%%%%%",
"%%%%%%%%%%%%%%%%%%  ooo...oooooooooooooooooooooo   %%%%%%%%%%%%%",
"%%%%%%%%%%%%%%%%%%  ooo...oooooooooooooooooooooo   %%%%%%%%%%%%%",
"%%%%%%%%%%%%%%%%%%  ......oooooooo...ooooo......   %%%%%%%%%%%%%",
"%%%%%%%%%%%%%%%%%%  ......oooooooo...ooooo......   %%%%%%%%%%%%%",
"%%%%%%%%%%%%%%%%%%%%      ooo..ooo........      %%%%%%%%%%%%%%%%",
"%%%%%%%%%%%%%%%%%%%%      ooo..ooo........      %%%%%%%%%%%%%%%%",
"%%%%%%%%%%%%%%%%%%%%      ooo..ooo........      %%%%%%%%%%%%%%%%",
"%%%%%%%%%%%%%%%%%%%%   XXX                +++   %%%%%%%%%%%%%%%%",
"%%%%%%%%%%%%%%%%%%%%   XXX                +++   %%%%%%%%%%%%%%%%",
"%%%%%%%%%%%%%%%%%%%%   XXX                +++   %%%%%%%%%%%%%%%%",
"%%%%%%%%%%%%%%%%%%%%%%%      %%%%%%%%   XXXXX   %%%%%%%%%%%%%%%%",
"%%%%%%%%%%%%%%%%%%%%%%%      %%%%%%%%   XXXXX   %%%%%%%%%%%%%%%%",
"%%%%%%%%%%%%%%%%%%%%%%%      %%%%%%%%   XXXXX   %%%%%%%%%%%%%%%%",
"%%%%%%%%%%%%%%%%%%%%%%%%%%%%%%%%%%%%%   XXXXX   %%%%%%%%%%%%%%%%",
"%%%%%%%%%%%%%%%%%%%%%%%%%%%%%%%%%%%%%   XXXXX   %%%%%%%%%%%%%%%%",
"%%%%%%%%%%%%%%%%%%%%%%%%%%%%%%%%%%%%%%%%     %%%%%%%%%%%%%%%%%%%",
"%%%%%%%%%%%%%%%%%%%%%%%%%%%%%%%%%%%%%%%%     %%%%%%%%%%%%%%%%%%%",
"%%%%%%%%%%%%%%%%%%%%%%%%%%%%%%%%%%%%%%%%     %%%%%%%%%%%%%%%%%%%",
"%%%%%%%%%%%%%%%%%%%%%%%%%%%%%%%%%%%%%%%%%%%%%%%%%%%%%%%%%%%%%%%%",
"%%%%%%%%%%%%%%%%%%%%%%%%%%%%%%%%%%%%%%%%%%%%%%%%%%%%%%%%%%%%%%%%",
"%%%%%%%%%%%%%%%%%%%%%%%%%%%%%%%%%%%%%%%%%%%%%%%%%%%%%%%%%%%%%%%%",
"%%%%%%%%%%%%%%%%%%%%%%%%%%%%%%%%%%%%%%%%%%%%%%%%%%%%%%%%%%%%%%%%"
};
