/* XPM */
static char *result[] = {
/* columns rows colors chars-per-pixel */
"64 64 10 1 ",
"  c #201729",
". c #563A3F",
"X c #2D5B3F",
"o c #79584F",
"O c #94785C",
"+ c #29973B",
"@ c #2ECA35",
"# c #62EB3D",
"$ c white",
"% c None",
/* pixels */
"%%%%%%%%%%%%%%%%%%%%%%%ooooo%%%%%%%%%%%%%%%%%%%%%%%%%%%%%%%%%%%%",
"%%%%%%%%%%%%%%%%%%%%%%%ooooo%%%%%%%%%%%%%%%%%%%%%%%%%%%%%%%%%%%%",
"%%%%%%%%%%%%%%%%%%%%oooOOOOOoooooooo%%%%%%%%%%%%%%%%%%%%%%%%%%%%",
"%%%%%%%%%%%%%%%%%%%%oooOOOOOoooooooo%%%%%%%%%%%%%%%%%%%%%%%%%%%%",
"%%%%%%%%%%%%%%%%%oooOOO.....OOOOOOOOoooooo%%%%%%%%%%%%%%%%%%%%%%",
"%%%%%%%%%%%%%%%%%oooOOO.....OOOOOOOOoooooo%%%%%%%%%%%%%%%%%%%%%%",
"%%%%%%%%%%%%%%%%%oooOOO.....OOOOOOOOoooooo%%%%%%%%%%%%%%%%%%%%%%",
"%%%%%%%%%%%%%%%ooOOO................OOOOOOoo%%%%%%%%%%%%%%%%%%%%",
"%%%%%%%%%%%%%%%ooOOO................OOOOOOoo%%%%%%%%%%%%%%%%%%%%",
"%%%%%%%%%%%%%%%ooOOO................OOOOOOoo%%%%%%%%%%%%%%%%%%%%",
"%%%%%%%%%%%%oooOO......             ......OOooo%%%%%%%%%%%%%%%%%",
"%%%%%%%%%%%%oooOO......             ......OOooo%%%%%%%%%%%%%%%%%",
"%%%%%%%%%%%%oooOOOOO                   OOOOOooo%%%%%%%%%%%%%%%%%",
"%%%%%%%%%%%%oooOOOOO                   OOOOOooo%%%%%%%%%%%%%%%%%",
"%%%%%%%%%%%%oooOOOOO                   OOOOOooo%%%%%%%%%%%%%%%%%",
"%%%%%%%%%%%%   ooOOOOOOOOOOOOOOOOOOOOOOOOOoo...%%%%%%%%%%%%%%%%%",
"%%%%%%%%%%%%   ooOOOOOOOOOOOOOOOOOOOOOOOOOoo...%%%%%%%%%%%%%%%%%",
"%%%%%%%%%%%%   ooOOOOOOOOOOOOOOOOOOOOOOOOOoo...%%%%%%%%%%%%%%%%%",
"%%%%%%%%%%%%   oo......OOOOOOOOOOOOOoooooo.....%%%%%%%%%%%%%%%%%",
"%%%%%%%%%%%%   oo......OOOOOOOOOOOOOoooooo.....%%%%%%%%%%%%%%%%%",
"%%%%%%%%%%%%   oo...ooooo...oooooooooooooo.....%%%%%%%%%%%%%%%%%",
"%%%%%%%%%%%%   oo...ooooo...oooooooooooooo.....%%%%%%%%%%%%%%%%%",
"%%%%%%%%%%%%   oo...ooooo...oooooooooooooo.....%%%%%%%%%%%%%%%%%",
"%%%%%%%%%%%%   oo      oo...oooooooo...ooo.....%%%%%%%%%%%%%%%%%",
"%%%%%%%%%%%%   oo      oo...oooooooo...ooo.....%%%%%%%%%%%%%%%%%",
"%%%%%%%%%%%%   oo      oo...oooooooo...ooo.....%%%%%%%%%%%%%%%%%",
"%%%%%%%%%%%%   $$   $$$  ...ooo...ooooo........%%%%%%%%%%%%%%%%%",
"%%%%%%%%%%%%   $$   $$$  ...ooo...ooooo........%%%%%%%%%%%%%%%%%",
"%%%%%%%%%%%%             ooo...+++..oooooo.....%%%%%%%%%%%%%%%%%",
"%%%%%%%%%%%%             ooo...+++..oooooo.....%%%%%%%%%%%%%%%%%",
"%%%%%%%%%%%%             ooo...+++..oooooo.....%%%%%%%%%%%%%%%%%",
"%%%%%%%%%%%%           ..ooo@@@+++@@ooo...  %%%%%%%%%%%%%%%%%%%%",
"%%%%%%%%%%%%           ..ooo@@@+++@@ooo...  %%%%%%%%%%%%%%%%%%%%",
"%%%%%%%%%%%%           ..ooo@@@+++@@ooo...  %%%%%%%%%%%%%%%%%%%%",
"%%%%%%%%%%%%   ..oooooo..ooo###+++@@OOO...  %%%%%%%%%%%%%%%%%%%%",
"%%%%%%%%%%%%   ..oooooo..ooo###+++@@OOO...  %%%%%%%%%%%%%%%%%%%%",
"%%%%%%%%%%%%   ..ooo...oooooooo###++@@@...  %%%%%%%%%%%%%%%%%%%%",
"%%%%%%%%%%%%   ..ooo...oooooooo###++@@@...  %%%%%%%%%%%%%%%%%%%%",
"%%%%%%%%%%%%   ..ooo...oooooooo###++@@@...  %%%%%%%%%%%%%%%%%%%%",
"%%%%%%%%%%%%   ooooo...oooooooo...@@@@@ooo..   %%%%%%%%%%%%%%%%%",
"%%%%%%%%%%%%   ooooo...oooooooo...@@@@@ooo..   %%%%%%%%%%%%%%%%%",
"%%%%%%%%%%%%   ooooo...oooooooo...@@@@@ooo..   %%%%%%%%%%%%%%%%%",
"%%%%%%%%%%%%   oo......oooooooo.....oooooo..   %%%%%%%%%%%%%%%%%",
"%%%%%%%%%%%%   oo......oooooooo.....oooooo..   %%%%%%%%%%%%%%%%%",
"%%%%%%%%%%%%   oo......ooooooooooo..oooooo..   %%%%%%%%%%%%%%%%%",
"%%%%%%%%%%%%   oo......ooooooooooo..oooooo..   %%%%%%%%%%%%%%%%%",
"%%%%%%%%%%%%   oo......ooooooooooo..oooooo..   %%%%%%%%%%%%%%%%%",
"%%%%%%%%%%%%%%%  ooo.....ooooooooo..oooooo  %%%%%%%%%%%%%%%%%%%%",
"%%%%%%%%%%%%%%%  ooo.....ooooooooo..oooooo  %%%%%%%%%%%%%%%%%%%%",
"%%%%%%%%%%%%%%%  ooo.....ooooooooo..oooooo  %%%%%%%%%%%%%%%%%%%%",
"%%%%%%%%%%%%%%%%%      oo......ooo        %%%%%%%%%%%%%%%%%%%%%%",
"%%%%%%%%%%%%%%%%%      oo......ooo        %%%%%%%%%%%%%%%%%%%%%%",
"%%%%%%%%%%%%%%%  XXXXXX             XXX   %%%%%%%%%%%%%%%%%%%%%%",
"%%%%%%%%%%%%%%%  XXXXXX             XXX   %%%%%%%%%%%%%%%%%%%%%%",
"%%%%%%%%%%%%%%%  XXXXXX             XXX   %%%%%%%%%%%%%%%%%%%%%%",
"%%%%%%%%%%%%%%%  XXXXXX  %%%%%%%%%     %%%%%%%%%%%%%%%%%%%%%%%%%",
"%%%%%%%%%%%%%%%  XXXXXX  %%%%%%%%%     %%%%%%%%%%%%%%%%%%%%%%%%%",
"%%%%%%%%%%%%%%%  XXXXXX  %%%%%%%%%     %%%%%%%%%%%%%%%%%%%%%%%%%",
"%%%%%%%%%%%%%%%%%      %%%%%%%%%%%%%%%%%%%%%%%%%%%%%%%%%%%%%%%%%",
"%%%%%%%%%%%%%%%%%      %%%%%%%%%%%%%%%%%%%%%%%%%%%%%%%%%%%%%%%%%",
"%%%%%%%%%%%%%%%%%%%%%%%%%%%%%%%%%%%%%%%%%%%%%%%%%%%%%%%%%%%%%%%%",
"%%%%%%%%%%%%%%%%%%%%%%%%%%%%%%%%%%%%%%%%%%%%%%%%%%%%%%%%%%%%%%%%",
"%%%%%%%%%%%%%%%%%%%%%%%%%%%%%%%%%%%%%%%%%%%%%%%%%%%%%%%%%%%%%%%%",
"%%%%%%%%%%%%%%%%%%%%%%%%%%%%%%%%%%%%%%%%%%%%%%%%%%%%%%%%%%%%%%%%"
};
