/* XPM */
static char *result[] = {
/* columns rows colors chars-per-pixel */
"64 64 10 1 ",
"  c #201729",
". c #563A3F",
"X c #2D5B3F",
"o c #79584F",
"O c #94785C",
"+ c #29973B",
"@ c #2ECA35",
"# c #62EB3D",
"$ c white",
"% c None",
/* pixels */
"%%%%%%%%%%%%%%%%%%%%%%%%%%%oooooooooooooo%%%%%%%%%%%%%%%%%%%%%%%",
"%%%%%%%%%%%%%%%%%%%%%%%%%%%oooooooooooooo%%%%%%%%%%%%%%%%%%%%%%%",
"%%%%%%%%%%%%%%%%%%%%%ooooooOOOOOOOOoooOOOoooooooo%%%%%%%%%%%%%%%",
"%%%%%%%%%%%%%%%%%%%%%ooooooOOOOOOOOoooOOOoooooooo%%%%%%%%%%%%%%%",
"%%%%%%%%%%%%%%%%%%%%%ooooooOOOOOOOOoooOOOoooooooo%%%%%%%%%%%%%%%",
"%%%%%%%%%%%%%%%%%%%ooOOOOOO..............OOOOOOOOooo%%%%%%%%%%%%",
"%%%%%%%%%%%%%%%%%%%ooOOOOOO..............OOOOOOOOooo%%%%%%%%%%%%",
"%%%%%%%%%%%%%%%%oooOO......              .....OOOOOOoo%%%%%%%%%%",
"%%%%%%%%%%%%%%%%oooOO......              .....OOOOOOoo%%%%%%%%%%",
"%%%%%%%%%%%%%%%%oooOO......              .....OOOOOOoo%%%%%%%%%%",
"%%%%%%%%%%%%%%%%oooOOOOO                   OOOOOOOOOoo%%%%%%%%%%",
"%%%%%%%%%%%%%%%%oooOOOOO                   OOOOOOOOOoo%%%%%%%%%%",
"%%%%%%%%%%%%%%%%oooOOOOO                   OOOOOOOOOoo%%%%%%%%%%",
"%%%%%%%%%%%%%%%%   ooOOOOOOOOOOOOOOOOOOOOOOOOOooo...%%%%%%%%%%%%",
"%%%%%%%%%%%%%%%%   ooOOOOOOOOOOOOOOOOOOOOOOOOOooo...%%%%%%%%%%%%",
"%%%%%%%%%%%%%%%%   ooOOOOOOOOOOOOOOOOOOOOOOOOOooo...%%%%%%%%%%%%",
"%%%%%%%%#####@@@   ooooooooOOO..ooooooooooooooooo...%%%%%%%%%%%%",
"%%%%%%%%#####@@@   ooooooooOOO..ooooooooooooooooo...%%%%%%%%%%%%",
"%%%%%###@@++++++XXXoo...ooo...oo...      ..ooo...%%%%%%%%%%%%%%%",
"%%%%%###@@++++++XXXoo...ooo...oo...      ..ooo...%%%%%%%%%%%%%%%",
"%%%%%###@@++++++XXXoo...ooo...oo...      ..ooo...%%%%%%%%%%%%%%%",
"%%###+++++@@@@@@   XX...OOO...OO$$$      $$ooo...%%%ooooo%%%%%%%",
"%%###+++++@@@@@@   XX...OOO...OO$$$      $$ooo...%%%ooooo%%%%%%%",
"%%###+++++@@@@@@   XX...OOO...OO$$$      $$ooo...%%%ooooo%%%%%%%",
"%%+++@@@@@%%%%%%   oooooOOO...OO           ooo...   OOOOOooo%%%%",
"%%+++@@@@@%%%%%%   oooooOOO...OO           ooo...   OOOOOooo%%%%",
"%%+++@@@@@%%%%%%   oooooOOO...OO           ooo...   OOOOOooo%%%%",
"%%%%%%%%%%%%%%%%   ooooo...oooooOOO      ..ooo   .....OOOooo%%%%",
"%%%%%%%%%%%%%%%%   ooooo...oooooOOO      ..ooo   .....OOOooo%%%%",
"%%%%%%%%%%%%%%%%   ooooo...oooooOOO      ..ooo   .....OOOooo%%%%",
"%%%%%%%%%%%%%%%%   ooooo...oooooOOOoooooo..ooo   .....   %%%%%%%",
"%%%%%%%%%%%%%%%%   ooooo...oooooOOOoooooo..ooo   .....   %%%%%%%",
"%%%%%%%%%%%%%%%%   ..ooo...oooooooo......ooooo...     %%%%%%%%%%",
"%%%%%%%%%%%%%%%%   ..ooo...oooooooo......ooooo...     %%%%%%%%%%",
"%%%%%%%%%%%%%%%%   ..ooo...oooooooo......ooooo...     %%%%%%%%%%",
"%%%%%%%%%%%%%%%%%%%  ooo...ooooooooooo...oooooooo   %%%%%%%%%%%%",
"%%%%%%%%%%%%%%%%%%%  ooo...ooooooooooo...oooooooo   %%%%%%%%%%%%",
"%%%%%%%%%%%%%%%%%%%  ooo...ooooooooooo...oooooooo   %%%%%%%%%%%%",
"%%%%%%%%%%%%%%%%%%%  oooooo...ooooooooooooooooooo   %%%%%%%%%%%%",
"%%%%%%%%%%%%%%%%%%%  oooooo...ooooooooooooooooooo   %%%%%%%%%%%%",
"%%%%%%%%%%%%%%%%%%%  oooooo...ooooooooooooooooooo   %%%%%%%%%%%%",
"%%%%%%%%%%%%%%%%%%%  ...ooo...oooooooo...ooooo...   %%%%%%%%%%%%",
"%%%%%%%%%%%%%%%%%%%  ...ooo...oooooooo...ooooo...   %%%%%%%%%%%%",
"%%%%%%%%%%%%%%%%%%%  ...ooo...oooooooo...ooooo...   %%%%%%%%%%%%",
"%%%%%%%%%%%%%%%%%%%%%      ...oo...ooo.....      %%%%%%%%%%%%%%%",
"%%%%%%%%%%%%%%%%%%%%%      ...oo...ooo.....      %%%%%%%%%%%%%%%",
"%%%%%%%%%%%%%%%%%%%%%   +++                +++   %%%%%%%%%%%%%%%",
"%%%%%%%%%%%%%%%%%%%%%   +++                +++   %%%%%%%%%%%%%%%",
"%%%%%%%%%%%%%%%%%%%%%   +++                +++   %%%%%%%%%%%%%%%",
"%%%%%%%%%%%%%%%%%%%%%   XXXXXX  %%%%%%   XXXXX   %%%%%%%%%%%%%%%",
"%%%%%%%%%%%%%%%%%%%%%   XXXXXX  %%%%%%   XXXXX   %%%%%%%%%%%%%%%",
"%%%%%%%%%%%%%%%%%%%%%   XXXXXX  %%%%%%   XXXXX   %%%%%%%%%%%%%%%",
"%%%%%%%%%%%%%%%%%%%%%   XXXXXX  %%%%%%   XXXXX   %%%%%%%%%%%%%%%",
"%%%%%%%%%%%%%%%%%%%%%   XXXXXX  %%%%%%   XXXXX   %%%%%%%%%%%%%%%",
"%%%%%%%%%%%%%%%%%%%%%   XXXXXX  %%%%%%   XXXXX   %%%%%%%%%%%%%%%",
"%%%%%%%%%%%%%%%%%%%%%%%%      %%%%%%%%%%%     %%%%%%%%%%%%%%%%%%",
"%%%%%%%%%%%%%%%%%%%%%%%%      %%%%%%%%%%%     %%%%%%%%%%%%%%%%%%",
"%%%%%%%%%%%%%%%%%%%%%%%%%%%%%%%%%%%%%%%%%%%%%%%%%%%%%%%%%%%%%%%%",
"%%%%%%%%%%%%%%%%%%%%%%%%%%%%%%%%%%%%%%%%%%%%%%%%%%%%%%%%%%%%%%%%",
"%%%%%%%%%%%%%%%%%%%%%%%%%%%%%%%%%%%%%%%%%%%%%%%%%%%%%%%%%%%%%%%%",
"%%%%%%%%%%%%%%%%%%%%%%%%%%%%%%%%%%%%%%%%%%%%%%%%%%%%%%%%%%%%%%%%",
"%%%%%%%%%%%%%%%%%%%%%%%%%%%%%%%%%%%%%%%%%%%%%%%%%%%%%%%%%%%%%%%%",
"%%%%%%%%%%%%%%%%%%%%%%%%%%%%%%%%%%%%%%%%%%%%%%%%%%%%%%%%%%%%%%%%",
"%%%%%%%%%%%%%%%%%%%%%%%%%%%%%%%%%%%%%%%%%%%%%%%%%%%%%%%%%%%%%%%%"
};
