/* XPM */
static char *result[] = {
/* columns rows colors chars-per-pixel */
"64 64 9 1 ",
"  c #201729",
". c #563A3F",
"X c #2D5B3F",
"o c #79584F",
"O c #94785C",
"+ c #29973B",
"@ c #2ECA35",
"# c #62EB3D",
"$ c None",
/* pixels */
"$$$$$$$$$$$$$$$$$$$$$$$$$$$$$$$$$$$$$$$$$$$$$$$$$$$$$$$$$$$$$$$$",
"$$$$$$$$$$$$$$$$$$$$$$$$$$$$$$$$$$$$$$$$$$$$$$$$$$$$$$$$$$$$$$$$",
"$$$$$$$$$$$$$$$$$$$$oooooooooooooo$$$$$$$$$$$$$$$$$$$$$$$$$$$$$$",
"$$$$$$$$$$$$$$$$$$$$oooooooooooooo$$$$$$$$$$$$$$$$$$$$$$$$$$$$$$",
"$$$$$$$$$$$$$$$$$$$$oooooooooooooo$$$$$$$$$$$$$$$$$$$$$$$$$$$$$$",
"$$$$$$$$$$$$ooooooooOOOOOOOOOOOOOOoooooo$$$$$$$$$$$$$$$$$$$$$$$$",
"$$$$$$$$$$$$ooooooooOOOOOOOOOOOOOOoooooo$$$$$$$$$$$$$$$$$$$$$$$$",
"$$$$$$$$$oooOOOOOOOO..............OOOOOOoo$$$$$$$$$$$$$$$$$$$$$$",
"$$$$$$$$$oooOOOOOOOO..............OOOOOOoo$$$$$$$$$$$$$$$$$$$$$$",
"$$$$$$$$$oooOOOOOOOO..............OOOOOOoo$$$$$$$$$$$$$$$$$$$$$$",
"$$$$$$$ooOOOOOO.....              ......OOooo$$$$$$$$$$$$$$$$$$$",
"$$$$$$$ooOOOOOO.....              ......OOooo$$$$$$$$$$$$$$$$$$$",
"$$$$$$$ooOOOOOO.....              ......OOooo$$$$$$$$$$$$$$$$$$$",
"$$$$$$$ooOOOOOOOOO                   OOOOOooo$$$$$$$$$$$$$$$$$$$",
"$$$$$$$ooOOOOOOOOO                   OOOOOooo$$$$$$$$$$$$$$$$$$$",
"$$$$$$$ooOOOOOOOOO                   OOOOOooo$$$$$$$$$$$$$$$$$$$",
"$$$$$$$$$...oooOOOOOOOOOOOOOOOOoooOOOOOOoo   $$$$$$$$$$$$$$$$$$$",
"$$$$$$$$$...oooOOOOOOOOOOOOOOOOoooOOOOOOoo   $$$$$$$$$$$$$$$$$$$",
"$$$$$$$$$...ooooooooooooooooooooooOOO...oo   ###$$$$$$$$$$$$$$$$",
"$$$$$$$$$...ooooooooooooooooooooooOOO...oo   ###$$$$$$$$$$$$$$$$",
"$$$$$$$$$...ooooooooooooooooooooooOOO...oo   ###$$$$$$$$$$$$$$$$",
"$$$$$$$$$$$$...ooooooooooo...oooooooo...oo   +++@@@$$$$$$$$$$$$$",
"$$$$$$$$$$$$...ooooooooooo...oooooooo...oo   +++@@@$$$$$$$$$$$$$",
"$$$$$$$$$$$$...ooooooooooo...oooooooo...oo   +++@@@$$$$$$$$$$$$$",
"$$$$$$$ooooo...ooooo...ooo...ooooo...OOOoo   @@@+++##$$$$$$$$$$$",
"$$$$$$$ooooo...ooooo...ooo...ooooo...OOOoo   @@@+++##$$$$$$$$$$$",
"$$$$$$$ooooo...ooooo...ooo...ooooo...OOOoo   @@@+++##$$$$$$$$$$$",
"$$$$oooOOOOO   ...ooooo...oooooooo...OOOoo   @@@@@@++###$$$$$$$$",
"$$$$oooOOOOO   ...ooooo...oooooooo...OOOoo   @@@@@@++###$$$$$$$$",
"$$$$oooOOOOO   ...ooooo...oooooooo...OOOoo   @@@@@@++###$$$$$$$$",
"$$$$oooOOooo...   oooooooo...ooooo...ooooo   $$$$$$@@+++$$$$$$$$",
"$$$$oooOOooo...   oooooooo...ooooo...ooooo   $$$$$$@@+++$$$$$$$$",
"$$$$$$$  ......   oooooooo...ooooo...ooooo   $$$$$$$$$$$$$$$$$$$",
"$$$$$$$  ......   oooooooo...ooooo...ooooo   $$$$$$$$$$$$$$$$$$$",
"$$$$$$$  ......   oooooooo...ooooo...ooooo   $$$$$$$$$$$$$$$$$$$",
"$$$$$$$$$      ...oooooooo...oooooooo...oo   $$$$$$$$$$$$$$$$$$$",
"$$$$$$$$$      ...oooooooo...oooooooo...oo   $$$$$$$$$$$$$$$$$$$",
"$$$$$$$$$      ...oooooooo...oooooooo...oo   $$$$$$$$$$$$$$$$$$$",
"$$$$$$$$$   ooooooooooo...ooooooooooo...  $$$$$$$$$$$$$$$$$$$$$$",
"$$$$$$$$$   ooooooooooo...ooooooooooo...  $$$$$$$$$$$$$$$$$$$$$$",
"$$$$$$$$$   ooooooooooo...ooooooooooo...  $$$$$$$$$$$$$$$$$$$$$$",
"$$$$$$$$$   oooooooooooooooooooooo...ooo  $$$$$$$$$$$$$$$$$$$$$$",
"$$$$$$$$$   oooooooooooooooooooooo...ooo  $$$$$$$$$$$$$$$$$$$$$$",
"$$$$$$$$$   oooooooooooooooooooooo...ooo  $$$$$$$$$$$$$$$$$$$$$$",
"$$$$$$$$$   ooo...ooooo...oooooooo...ooo  $$$$$$$$$$$$$$$$$$$$$$",
"$$$$$$$$$   ooo...ooooo...oooooooo...ooo  $$$$$$$$$$$$$$$$$$$$$$",
"$$$$$$$$$$$$      oo......ooo..ooo      $$$$$$$$$$$$$$$$$$$$$$$$",
"$$$$$$$$$$$$      oo......ooo..ooo      $$$$$$$$$$$$$$$$$$$$$$$$",
"$$$$$$$$$$$$      oo......ooo..ooo      $$$$$$$$$$$$$$$$$$$$$$$$",
"$$$$$$$$$$$$   +++                +++   $$$$$$$$$$$$$$$$$$$$$$$$",
"$$$$$$$$$$$$   +++                +++   $$$$$$$$$$$$$$$$$$$$$$$$",
"$$$$$$$$$$$$   +++                +++   $$$$$$$$$$$$$$$$$$$$$$$$",
"$$$$$$$$$$$$$$$     $$$$$$$$$  XXXXXX   $$$$$$$$$$$$$$$$$$$$$$$$",
"$$$$$$$$$$$$$$$     $$$$$$$$$  XXXXXX   $$$$$$$$$$$$$$$$$$$$$$$$",
"$$$$$$$$$$$$$$$     $$$$$$$$$  XXXXXX   $$$$$$$$$$$$$$$$$$$$$$$$",
"$$$$$$$$$$$$$$$$$$$$$$$$$$$$$  XXXXXX   $$$$$$$$$$$$$$$$$$$$$$$$",
"$$$$$$$$$$$$$$$$$$$$$$$$$$$$$  XXXXXX   $$$$$$$$$$$$$$$$$$$$$$$$",
"$$$$$$$$$$$$$$$$$$$$$$$$$$$$$$$      $$$$$$$$$$$$$$$$$$$$$$$$$$$",
"$$$$$$$$$$$$$$$$$$$$$$$$$$$$$$$      $$$$$$$$$$$$$$$$$$$$$$$$$$$",
"$$$$$$$$$$$$$$$$$$$$$$$$$$$$$$$      $$$$$$$$$$$$$$$$$$$$$$$$$$$",
"$$$$$$$$$$$$$$$$$$$$$$$$$$$$$$$$$$$$$$$$$$$$$$$$$$$$$$$$$$$$$$$$",
"$$$$$$$$$$$$$$$$$$$$$$$$$$$$$$$$$$$$$$$$$$$$$$$$$$$$$$$$$$$$$$$$",
"$$$$$$$$$$$$$$$$$$$$$$$$$$$$$$$$$$$$$$$$$$$$$$$$$$$$$$$$$$$$$$$$",
"$$$$$$$$$$$$$$$$$$$$$$$$$$$$$$$$$$$$$$$$$$$$$$$$$$$$$$$$$$$$$$$$"
};
