/* XPM */
static char *result[] = {
/* columns rows colors chars-per-pixel */
"64 64 7 1 ",
"  c #201729",
". c #563A3F",
"X c #2D5B3F",
"o c #79584F",
"O c #94785C",
"+ c #2ECA35",
"@ c None",
/* pixels */
"@@@@@@@@@@@@@@@@@@@@@@@@@++++++@@@@@@@@@@@@@@@@@@@@@@@@@@@@@@@@@",
"@@@@@@@@@@@@@@@@@@@@@@@@@++++++@@@@@@@@@@@@@@@@@@@@@@@@@@@@@@@@@",
"@@@@@@@@@@@@@@@@@@@@@@@ooooooooooooo@@@@@@@@@@@@@@@@@@@@@@@@@@@@",
"@@@@@@@@@@@@@@@@@@@@@@@ooooooooooooo@@@@@@@@@@@@@@@@@@@@@@@@@@@@",
"@@@@@@@@@@@@@@@@@ooooooOOOOOOOOOOOOOoooooo@@@@@@@@@@@@@@@@@@@@@@",
"@@@@@@@@@@@@@@@@@ooooooOOOOOOOOOOOOOoooooo@@@@@@@@@@@@@@@@@@@@@@",
"@@@@@@@@@@@@@@@@@ooooooOOOOOOOOOOOOOoooooo@@@@@@@@@@@@@@@@@@@@@@",
"@@@@@@@@@@@@@@@ooOOOOOO.............OOOOOOoo@@@@@@@@@@@@@@@@@@@@",
"@@@@@@@@@@@@@@@ooOOOOOO.............OOOOOOoo@@@@@@@@@@@@@@@@@@@@",
"@@@@@@@@@@@@@@@ooOOOOOO.............OOOOOOoo@@@@@@@@@@@@@@@@@@@@",
"@@@@@@@@@@@@oooOO......             ......OOooo@@@@@@@@@@@@@@@@@",
"@@@@@@@@@@@@oooOO......             ......OOooo@@@@@@@@@@@@@@@@@",
"@@@@@@@@@@@@oooOOOOO                   OOOOOooo@@@@@@@@@@@@@@@@@",
"@@@@@@@@@@@@oooOOOOO                   OOOOOooo@@@@@@@@@@@@@@@@@",
"@@@@@@@@@@@@oooOOOOO                   OOOOOooo@@@@@@@@@@@@@@@@@",
"@@@@@@@@@@@@   ooOOOOOOOO      OOOOOOOOOOOoo...@@@@@@@@@@@@@@@@@",
"@@@@@@@@@@@@   ooOOOOOOOO      OOOOOOOOOOOoo...@@@@@@@@@@@@@@@@@",
"@@@@@@@@@@@@   ooOOOOOOOO      OOOOOOOOOOOoo...@@@@@@@@@@@@@@@@@",
"@@@@@@@@@@@@   oo......OOOOOOOOOOOOO...ooooo...@@@@@@@@@@@@@@@@@",
"@@@@@@@@@@@@   oo......OOOOOOOOOOOOO...ooooo...@@@@@@@@@@@@@@@@@",
"@@@@@@@@@@@@   oo...ooo..OOOOOO.....oooooooo...@@@@@@@@@@@@@@@@@",
"@@@@@@@@@@@@   oo...ooo..OOOOOO.....oooooooo...@@@@@@@@@@@@@@@@@",
"@@@@@@@@@@@@   oo...ooo..OOOOOO.....oooooooo...@@@@@@@@@@@@@@@@@",
"@@@@@@@@@@@@   OO...ooooo.........ooooo...oo...@@@@@@@@@@@@@@@@@",
"@@@@@@@@@@@@   OO...ooooo.........ooooo...oo...@@@@@@@@@@@@@@@@@",
"@@@@@@@@@@@@   OO...ooooo.........ooooo...oo...@@@@@@@@@@@@@@@@@",
"@@@@@@@@@@@@   OO...oooooooo........ooo...oo...@@@@@@@@@@@@@@@@@",
"@@@@@@@@@@@@   OO...oooooooo........ooo...oo...@@@@@@@@@@@@@@@@@",
"@@@@@@@@@@@@   ..ooooooooooo...OOOOO......oo   @@@@@@@@@@@@@@@@@",
"@@@@@@@@@@@@   ..ooooooooooo...OOOOO......oo   @@@@@@@@@@@@@@@@@",
"@@@@@@@@@@@@   ..ooooooooooo...OOOOO......oo   @@@@@@@@@@@@@@@@@",
"@@@@@@@@@@@@@@@  ooooooooooo...ooooo...ooooo   @@@@@@@@@@@@@@@@@",
"@@@@@@@@@@@@@@@  ooooooooooo...ooooo...ooooo   @@@@@@@@@@@@@@@@@",
"@@@@@@@@@@@@@@@  ooooooooooo...ooooo...ooooo   @@@@@@@@@@@@@@@@@",
"@@@@@@@@@@@@@@@  ...ooo..ooo   .....   ooooo   @@@@@@@@@@@@@@@@@",
"@@@@@@@@@@@@@@@  ...ooo..ooo   .....   ooooo   @@@@@@@@@@@@@@@@@",
"@@@@@@@@@@@@@@@  ...ooo..ooo        ......oo   @@@@@@@@@@@@@@@@@",
"@@@@@@@@@@@@@@@  ...ooo..ooo        ......oo   @@@@@@@@@@@@@@@@@",
"@@@@@@@@@@@@@@@  ...ooo..ooo        ......oo   @@@@@@@@@@@@@@@@@",
"@@@@@@@@@@@@   ..oooooo..oooooo.....ooo...oo   @@@@@@@@@@@@@@@@@",
"@@@@@@@@@@@@   ..oooooo..oooooo.....ooo...oo   @@@@@@@@@@@@@@@@@",
"@@@@@@@@@@@@   ..oooooo..oooooo.....ooo...oo   @@@@@@@@@@@@@@@@@",
"@@@@@@@@@@@@   ooooo...oooooooo...ooooo.....   @@@@@@@@@@@@@@@@@",
"@@@@@@@@@@@@   ooooo...oooooooo...ooooo.....   @@@@@@@@@@@@@@@@@",
"@@@@@@@@@@@@   ooooo...oooooooo...ooooo.....   @@@@@@@@@@@@@@@@@",
"@@@@@@@@@@@@   ooooo...oooooooo...ooooo.....   @@@@@@@@@@@@@@@@@",
"@@@@@@@@@@@@   ooooo...oooooooo...ooooo.....   @@@@@@@@@@@@@@@@@",
"@@@@@@@@@@@@@@@  ........ooo...oooooooo...  @@@@@@@@@@@@@@@@@@@@",
"@@@@@@@@@@@@@@@  ........ooo...oooooooo...  @@@@@@@@@@@@@@@@@@@@",
"@@@@@@@@@@@@@@@  ........ooo...oooooooo...  @@@@@@@@@@@@@@@@@@@@",
"@@@@@@@@@@@@@@@@@      ........ooooo      @@@@@@@@@@@@@@@@@@@@@@",
"@@@@@@@@@@@@@@@@@      ........ooooo      @@@@@@@@@@@@@@@@@@@@@@",
"@@@@@@@@@@@@@@@@@@@@@@@             @@@@@@@@@@@@@@@@@@@@@@@@@@@@",
"@@@@@@@@@@@@@@@@@@@@@@@             @@@@@@@@@@@@@@@@@@@@@@@@@@@@",
"@@@@@@@@@@@@@@@@@@@@@@@             @@@@@@@@@@@@@@@@@@@@@@@@@@@@",
"@@@@@@@@@@@@@@@@@@@@@@@@@   XXXXXX  @@@@@@@@@@@@@@@@@@@@@@@@@@@@",
"@@@@@@@@@@@@@@@@@@@@@@@@@   XXXXXX  @@@@@@@@@@@@@@@@@@@@@@@@@@@@",
"@@@@@@@@@@@@@@@@@@@@@@@@@   XXXXXX  @@@@@@@@@@@@@@@@@@@@@@@@@@@@",
"@@@@@@@@@@@@@@@@@@@@@@@@@   XXXXXX  @@@@@@@@@@@@@@@@@@@@@@@@@@@@",
"@@@@@@@@@@@@@@@@@@@@@@@@@   XXXXXX  @@@@@@@@@@@@@@@@@@@@@@@@@@@@",
"@@@@@@@@@@@@@@@@@@@@@@@@@@@@      @@@@@@@@@@@@@@@@@@@@@@@@@@@@@@",
"@@@@@@@@@@@@@@@@@@@@@@@@@@@@      @@@@@@@@@@@@@@@@@@@@@@@@@@@@@@",
"@@@@@@@@@@@@@@@@@@@@@@@@@@@@      @@@@@@@@@@@@@@@@@@@@@@@@@@@@@@",
"@@@@@@@@@@@@@@@@@@@@@@@@@@@@@@@@@@@@@@@@@@@@@@@@@@@@@@@@@@@@@@@@"
};
