/* XPM */
static char *result[] = {
/* columns rows colors chars-per-pixel */
"64 64 9 1 ",
"  c #201729",
". c #563A3F",
"X c #2D5B3F",
"o c #79584F",
"O c #94785C",
"+ c #29973B",
"@ c #2ECA35",
"# c #62EB3D",
"$ c None",
/* pixels */
"$$$$$$$$$$$$$$$$$$$$$$$$$$$$oooooo$$$$$$$$$$$$$$$$$$$$$$$$$$$$$$",
"$$$$$$$$$$$$$$$$$$$$$$$$$$$$oooooo$$$$$$$$$$$$$$$$$$$$$$$$$$$$$$",
"$$$$$$$$$$$$$$$$$$$$$$$oooooOOOOOOoo$$$$$$$$$$$$$$$$$$$$$$$$$$$$",
"$$$$$$$$$$$$$$$$$$$$$$$oooooOOOOOOoo$$$$$$$$$$$$$$$$$$$$$$$$$$$$",
"$$$$$$$$$$$$$$$$$ooooooOOOOO......OOoooooo$$$$$$$$$$$$$$$$$$$$$$",
"$$$$$$$$$$$$$$$$$ooooooOOOOO......OOoooooo$$$$$$$$$$$$$$$$$$$$$$",
"$$$$$$$$$$$$$$$$$ooooooOOOOO......OOoooooo$$$$$$$$$$$$$$$$$$$$$$",
"$$$$$$$$$$$$$$$ooOOOOOO.............OOOOOOoo$$$$$$$$$$$$$$$$$$$$",
"$$$$$$$$$$$$$$$ooOOOOOO.............OOOOOOoo$$$$$$$$$$$$$$$$$$$$",
"$$$$$$$$$$$$$$$ooOOOOOO.............OOOOOOoo$$$$$$$$$$$$$$$$$$$$",
"$$$$$$$$$$$$oooOO......             ......OOooo$$$$$$$$$$$$$$$$$",
"$$$$$$$$$$$$oooOO......             ......OOooo$$$$$$$$$$$$$$$$$",
"$$$$$$$$$$$$oooOOOOO                   OOOOOooo$$$$$$$$$$$$$$$$$",
"$$$$$$$$$$$$oooOOOOO                   OOOOOooo$$$$$$$$$$$$$$$$$",
"$$$$$$$$$$$$oooOOOOO                   OOOOOooo$$$$$$$$$$$$$$$$$",
"$$$$$$$$$$$$   ooOOOOOOOOOOOOOOOOOOOOOOOOO.....$$$$$$$$$$$$$$$$$",
"$$$$$$$$$$$$   ooOOOOOOOOOOOOOOOOOOOOOOOOO.....$$$$$$$$$$$$$$$$$",
"$$$$$$$$$$$$   ooOOOOOOOOOOOOOOOOOOOOOOOOO.....$$$$$$$$$$$$$$$$$",
"$$$$$$$$$$$$   oo......OOOOOOOOOOOOOooo...oo...$$$$$$$$$$$$$$$$$",
"$$$$$$$$$$$$   oo......OOOOOOOOOOOOOooo...oo...$$$$$$$$$$$$$$$$$",
"$$$$$$$$$$$$   oo...ooooo...ooooooooooo...oo...$$$$$$$$$$$$$$$$$",
"$$$$$$$$$$$$   oo...ooooo...ooooooooooo...oo...$$$$$$$$$$$$$$$$$",
"$$$$$$$$$$$$   oo...ooooo...ooooooooooo...oo...$$$$$$$$$$$$$$$$$",
"$$$$$$$$$$$$   oo...oooOO...ooo.....ooo...oo...$$$$$$$$$$$$$$$$$",
"$$$$$$$$$$$$   oo...oooOO...ooo.....ooo...oo...$$$$$$$$$$$$$$$$$",
"$$$$$$$$$$$$   oo...oooOO...ooo.....ooo...oo...$$$$$$$$$$$$$$$$$",
"$$$$$$$$$$$$     ooooooOO...oooooooo......oo...$$$$$$$$$$$$$$$$$",
"$$$$$$$$$$$$     ooooooOO...oooooooo......oo...$$$$$$$$$$$$$$$$$",
"$$$$$$$$$$$$     ooo.....+++...oooooooo...oo...$$$$$$$$$$$$$$$$$",
"$$$$$$$$$$$$     ooo.....+++...oooooooo...oo...$$$$$$$$$$$$$$$$$",
"$$$$$$$$$$$$     ooo.....+++...oooooooo...oo...$$$$$$$$$$$$$$$$$",
"$$$$$$$$$$$$   ..oooooo@@+++@@@ooooo...ooo  $$$$$$$$$$$$$$$$$$$$",
"$$$$$$$$$$$$   ..oooooo@@+++@@@ooooo...ooo  $$$$$$$$$$$$$$$$$$$$",
"$$$$$$$$$$$$   ..oooooo@@+++@@@ooooo...ooo  $$$$$$$$$$$$$$$$$$$$",
"$$$$$$$$$$$$   ..oooooo@@+++###OOOOO...ooo  $$$$$$$$$$$$$$$$$$$$",
"$$$$$$$$$$$$   ..oooooo@@+++###OOOOO...ooo  $$$$$$$$$$$$$$$$$$$$",
"$$$$$$$$$$$$   ..ooo@@@++###ooo........ooo  $$$$$$$$$$$$$$$$$$$$",
"$$$$$$$$$$$$   ..ooo@@@++###ooo........ooo  $$$$$$$$$$$$$$$$$$$$",
"$$$$$$$$$$$$   ..ooo@@@++###ooo........ooo  $$$$$$$$$$$$$$$$$$$$",
"$$$$$$$$$$$$   ooooo@@@@@...ooo...oo......oo   $$$$$$$$$$$$$$$$$",
"$$$$$$$$$$$$   ooooo@@@@@...ooo...oo......oo   $$$$$$$$$$$$$$$$$",
"$$$$$$$$$$$$   ooooo@@@@@...ooo...oo......oo   $$$$$$$$$$$$$$$$$",
"$$$$$$$$$$$$   oo......oo......ooooo...ooooo   $$$$$$$$$$$$$$$$$",
"$$$$$$$$$$$$   oo......oo......ooooo...ooooo   $$$$$$$$$$$$$$$$$",
"$$$$$$$$$$$$   ..ooooooooooo...ooooo......oo   $$$$$$$$$$$$$$$$$",
"$$$$$$$$$$$$   ..ooooooooooo...ooooo......oo   $$$$$$$$$$$$$$$$$",
"$$$$$$$$$$$$   ..ooooooooooo...ooooo......oo   $$$$$$$$$$$$$$$$$",
"$$$$$$$$$$$$$$$  ...oooooooo...ooooo...ooo  $$$$$$$$$$$$$$$$$$$$",
"$$$$$$$$$$$$$$$  ...oooooooo...ooooo...ooo  $$$$$$$$$$$$$$$$$$$$",
"$$$$$$$$$$$$$$$  ...oooooooo...ooooo...ooo  $$$$$$$$$$$$$$$$$$$$",
"$$$$$$$$$$$$$$$$$      ..ooo......oo      $$$$$$$$$$$$$$$$$$$$$$",
"$$$$$$$$$$$$$$$$$      ..ooo......oo      $$$$$$$$$$$$$$$$$$$$$$",
"$$$$$$$$$$$$$$$$$   XXX             XXXXXX  $$$$$$$$$$$$$$$$$$$$",
"$$$$$$$$$$$$$$$$$   XXX             XXXXXX  $$$$$$$$$$$$$$$$$$$$",
"$$$$$$$$$$$$$$$$$   XXX             XXXXXX  $$$$$$$$$$$$$$$$$$$$",
"$$$$$$$$$$$$$$$$$$$$     $$$$$$$$$  XXXXXX  $$$$$$$$$$$$$$$$$$$$",
"$$$$$$$$$$$$$$$$$$$$     $$$$$$$$$  XXXXXX  $$$$$$$$$$$$$$$$$$$$",
"$$$$$$$$$$$$$$$$$$$$     $$$$$$$$$  XXXXXX  $$$$$$$$$$$$$$$$$$$$",
"$$$$$$$$$$$$$$$$$$$$$$$$$$$$$$$$$$$$      $$$$$$$$$$$$$$$$$$$$$$",
"$$$$$$$$$$$$$$$$$$$$$$$$$$$$$$$$$$$$      $$$$$$$$$$$$$$$$$$$$$$",
"$$$$$$$$$$$$$$$$$$$$$$$$$$$$$$$$$$$$$$$$$$$$$$$$$$$$$$$$$$$$$$$$",
"$$$$$$$$$$$$$$$$$$$$$$$$$$$$$$$$$$$$$$$$$$$$$$$$$$$$$$$$$$$$$$$$",
"$$$$$$$$$$$$$$$$$$$$$$$$$$$$$$$$$$$$$$$$$$$$$$$$$$$$$$$$$$$$$$$$",
"$$$$$$$$$$$$$$$$$$$$$$$$$$$$$$$$$$$$$$$$$$$$$$$$$$$$$$$$$$$$$$$$"
};
