/* XPM */
static char *result[] = {
/* columns rows colors chars-per-pixel */
"64 64 8 1 ",
"  c #201729",
". c #563A3F",
"X c #2D5B3F",
"o c #79584F",
"O c #94785C",
"+ c #2ECA35",
"@ c white",
"# c None",
/* pixels */
"##################################++############################",
"##################################++############################",
"#######################ooooooooooooo+++#########################",
"#######################ooooooooooooo+++#########################",
"#################ooooooOOOOOOOOOOOOOoooooo######################",
"#################ooooooOOOOOOOOOOOOOoooooo######################",
"#################ooooooOOOOOOOOOOOOOoooooo######################",
"###############ooOOOOOO.............OOOOOOoo####################",
"###############ooOOOOOO.............OOOOOOoo####################",
"###############ooOOOOOO.............OOOOOOoo####################",
"############oooOO......             ......OOooo#################",
"############oooOO......             ......OOooo#################",
"############oooOOOOO                   OOOOOooo#################",
"############oooOOOOO                   OOOOOooo#################",
"############oooOOOOO                   OOOOOooo#################",
"############   ooOOOOOO     OOOOOOOOOOOOOOoo...#################",
"############   ooOOOOOO     OOOOOOOOOOOOOOoo...#################",
"############   ooOOOOOO     OOOOOOOOOOOOOOoo...#################",
"############   .....OOOOOOOOOOOOOO.....ooooo...#################",
"############   .....OOOOOOOOOOOOOO.....ooooo...#################",
"############   ........OOOOO......oooooooo.....#################",
"############   ........OOOOO......oooooooo.....#################",
"############   ........OOOOO......oooooooo.....#################",
"############   .....ooo........ooooo...ooo     #################",
"############   .....ooo........ooooo...ooo     #################",
"############   .....ooo........ooooo...ooo     #################",
"############   ..ooooooooooo......oo...ooo@@   #################",
"############   ..ooooooooooo......oo...ooo@@   #################",
"############   oooooooooo...OOOOOO.....ooo     #################",
"############   oooooooooo...OOOOOO.....ooo     #################",
"############   oooooooooo...OOOOOO.....ooo     #################",
"###############  oooooooo...oooooo..oooooo..   #################",
"###############  oooooooo...oooooo..oooooo..   #################",
"###############  oooooooo...oooooo..oooooo..   #################",
"###############  ooo...oo   ......  oooooooo   #################",
"###############  ooo...oo   ......  oooooooo   #################",
"###############  ooo...ooooo        ...ooooo   #################",
"###############  ooo...ooooo        ...ooooo   #################",
"###############  ooo...ooooo        ...ooooo   #################",
"############   ..ooo...oooooooo...oo...ooooo   #################",
"############   ..ooo...oooooooo...oo...ooooo   #################",
"############   ..ooo...oooooooo...oo...ooooo   #################",
"############   oo...oooooooo...ooooo......oo   #################",
"############   oo...oooooooo...ooooo......oo   #################",
"############   oo...oooooooo...ooooo........   #################",
"############   oo...oooooooo...ooooo........   #################",
"############   oo...oooooooo...ooooo........   #################",
"###############  ...........oooooooo......  ####################",
"###############  ...........oooooooo......  ####################",
"###############  ...........oooooooo......  ####################",
"#################      ..ooooooooooo      ######################",
"#################      ..ooooooooooo      ######################",
"#################   XXX             XXXXXX  ####################",
"#################   XXX             XXXXXX  ####################",
"#################   XXX             XXXXXX  ####################",
"####################     #########  XXXXXX  ####################",
"####################     #########  XXXXXX  ####################",
"####################     #########  XXXXXX  ####################",
"####################################      ######################",
"####################################      ######################",
"################################################################",
"################################################################",
"################################################################",
"################################################################"
};
