/* XPM */
static char *result[] = {
/* columns rows colors chars-per-pixel */
"64 64 9 1 ",
"  c #201729",
". c #563A3F",
"X c #2D5B3F",
"o c #79584F",
"O c #94785C",
"+ c #29973B",
"@ c #2ECA35",
"# c #62EB3D",
"$ c None",
/* pixels */
"$$$$$$$$$$$$$$$$$$$$$$$$$$$$$$$$$$$$$$$$$$$$$$$$$$$$$$$$$$$$$$$$",
"$$$$$$$$$$$$$$$$$$$$$$$$$$$$$$$$$$$$$$$$$$$$$$$$$$$$$$$$$$$$$$$$",
"$$$$$$$$$$$$$$$$$$$$$oooooooooooooo$$$$$$$$$$$$$$$$$$$$$$$$$$$$$",
"$$$$$$$$$$$$$$$$$$$$$oooooooooooooo$$$$$$$$$$$$$$$$$$$$$$$$$$$$$",
"$$$$$$$$$$$$$$$$$$$$$oooooooooooooo$$$$$$$$$$$$$$$$$$$$$$$$$$$$$",
"$$$$$$$$$$$$$ooooooooOOOOOOOOOOOOOOoooooo$$$$$$$$$$$$$$$$$$$$$$$",
"$$$$$$$$$$$$$ooooooooOOOOOOOOOOOOOOoooooo$$$$$$$$$$$$$$$$$$$$$$$",
"$$$$$$$$$$oooOOOOOOOO..............OOOOOOoo$$$$$$$$$$$$$$$$$$$$$",
"$$$$$$$$$$oooOOOOOOOO..............OOOOOOoo$$$$$$$$$$$$$$$$$$$$$",
"$$$$$$$$$$oooOOOOOOOO..............OOOOOOoo$$$$$$$$$$$$$$$$$$$$$",
"$$$$$$$$ooOOOOOO.....              ......OOooo$$$$$$$$$$$$$$$$$$",
"$$$$$$$$ooOOOOOO.....              ......OOooo$$$$$$$$$$$$$$$$$$",
"$$$$$$$$ooOOOOOO.....              ......OOooo$$$$$$$$$$$$$$$$$$",
"$$$$$$$$ooOOOOOOOOO                   OOOOOooo$$$$$$$$$$$$$$$$$$",
"$$$$$$$$ooOOOOOOOOO                   OOOOOooo$$$$$$$$$$$$$$$$$$",
"$$$$$$$$ooOOOOOOOOO                   OOOOOooo$$$$$$$$$$$$$$$$$$",
"$$$$$$$$$$...oooOOOOOOOOOOOoooOOOOOOOOOOOoo   $$$$$$$$$$$$$$$$$$",
"$$$$$$$$$$...oooOOOOOOOOOOOoooOOOOOOOOOOOoo   $$$$$$$$$$$$$$$$$$",
"$$$$$$$$$$...oooooooooooooooooOO...oooooooo   ########$$$$$$$$$$",
"$$$$$$$$$$...oooooooooooooooooOO...oooooooo   ########$$$$$$$$$$",
"$$$$$$$$$$...oooooooooooooooooOO...oooooooo   ########$$$$$$$$$$",
"$$$$$$$$$$$$$...ooooo...oooooooo...oooooo..   ++++++@@###$$$$$$$",
"$$$$$$$$$$$$$...ooooo...oooooooo...oooooo..   ++++++@@###$$$$$$$",
"$$$$$$$$$$$$$...ooooo...oooooooo...oooooo..   ++++++@@###$$$$$$$",
"$$$$$oooooooo......oo...oooooo..OOOoooooo..   @@@@@@@@$$$$$$$$$$",
"$$$$$oooooooo......oo...oooooo..OOOoooooo..   @@@@@@@@$$$$$$$$$$",
"$$$$$oooooooo......oo...oooooo..OOOoooooo..   @@@@@@@@$$$$$$$$$$",
"$$oooOOOOO......ooo..ooooooooo..OOOoooooo..   $$$$$$$$$$$$$$$$$$",
"$$oooOOOOO......ooo..ooooooooo..OOOoooooo..   $$$$$$$$$$$$$$$$$$",
"$$oooOOOOO......ooo..ooooooooo..OOOoooooo..   $$$$$$$$$$$$$$$$$$",
"$$oooOOOoo   oooooooo...oooooo..ooooooooooo   $$$$$$$$$$$$$$$$$$",
"$$oooOOOoo   oooooooo...oooooo..ooooooooooo   $$$$$$$$$$$$$$$$$$",
"$$$$$   ..   oooooooo...oooooo..ooooooooooo   $$$$$$$$$$$$$$$$$$",
"$$$$$   ..   oooooooo...oooooo..ooooooooooo   $$$$$$$$$$$$$$$$$$",
"$$$$$   ..   oooooooo...oooooo..ooooooooooo   $$$$$$$$$$$$$$$$$$",
"$$$$$$$$     oooooooo...oooooooo...oooooo..   $$$$$$$$$$$$$$$$$$",
"$$$$$$$$     oooooooo...oooooooo...oooooo..   $$$$$$$$$$$$$$$$$$",
"$$$$$$$$     oooooooo...oooooooo...oooooo..   $$$$$$$$$$$$$$$$$$",
"$$$$$$$$$$   oooooo..ooooooooooo...oooooo  $$$$$$$$$$$$$$$$$$$$$",
"$$$$$$$$$$   oooooo..ooooooooooo...oooooo  $$$$$$$$$$$$$$$$$$$$$",
"$$$$$$$$$$   oooooo..ooooooooooo...oooooo  $$$$$$$$$$$$$$$$$$$$$",
"$$$$$$$$$$   ooooooooooooooooo..ooooooooo  $$$$$$$$$$$$$$$$$$$$$",
"$$$$$$$$$$   ooooooooooooooooo..ooooooooo  $$$$$$$$$$$$$$$$$$$$$",
"$$$$$$$$$$   ooooooooooooooooo..ooooooooo  $$$$$$$$$$$$$$$$$$$$$",
"$$$$$$$$$$   ...ooo..ooooooooo..oooooo...  $$$$$$$$$$$$$$$$$$$$$",
"$$$$$$$$$$   ...ooo..ooooooooo..oooooo...  $$$$$$$$$$$$$$$$$$$$$",
"$$$$$$$$$$$$$      ..ooo...ooooo...      $$$$$$$$$$$$$$$$$$$$$$$",
"$$$$$$$$$$$$$      ..ooo...ooooo...      $$$$$$$$$$$$$$$$$$$$$$$",
"$$$$$$$$$$$$$      ..ooo...ooooo...      $$$$$$$$$$$$$$$$$$$$$$$",
"$$$$$$$$$$$$$   +++                XXX   $$$$$$$$$$$$$$$$$$$$$$$",
"$$$$$$$$$$$$$   +++                XXX   $$$$$$$$$$$$$$$$$$$$$$$",
"$$$$$$$$$$$$$   +++                XXX   $$$$$$$$$$$$$$$$$$$$$$$",
"$$$$$$$$$$$$$   XXXXX   $$$$$$$$      $$$$$$$$$$$$$$$$$$$$$$$$$$",
"$$$$$$$$$$$$$   XXXXX   $$$$$$$$      $$$$$$$$$$$$$$$$$$$$$$$$$$",
"$$$$$$$$$$$$$   XXXXX   $$$$$$$$      $$$$$$$$$$$$$$$$$$$$$$$$$$",
"$$$$$$$$$$$$$   XXXXX   $$$$$$$$$$$$$$$$$$$$$$$$$$$$$$$$$$$$$$$$",
"$$$$$$$$$$$$$   XXXXX   $$$$$$$$$$$$$$$$$$$$$$$$$$$$$$$$$$$$$$$$",
"$$$$$$$$$$$$$$$$     $$$$$$$$$$$$$$$$$$$$$$$$$$$$$$$$$$$$$$$$$$$",
"$$$$$$$$$$$$$$$$     $$$$$$$$$$$$$$$$$$$$$$$$$$$$$$$$$$$$$$$$$$$",
"$$$$$$$$$$$$$$$$     $$$$$$$$$$$$$$$$$$$$$$$$$$$$$$$$$$$$$$$$$$$",
"$$$$$$$$$$$$$$$$$$$$$$$$$$$$$$$$$$$$$$$$$$$$$$$$$$$$$$$$$$$$$$$$",
"$$$$$$$$$$$$$$$$$$$$$$$$$$$$$$$$$$$$$$$$$$$$$$$$$$$$$$$$$$$$$$$$",
"$$$$$$$$$$$$$$$$$$$$$$$$$$$$$$$$$$$$$$$$$$$$$$$$$$$$$$$$$$$$$$$$",
"$$$$$$$$$$$$$$$$$$$$$$$$$$$$$$$$$$$$$$$$$$$$$$$$$$$$$$$$$$$$$$$$"
};
