/* XPM */
static char *result[] = {
/* columns rows colors chars-per-pixel */
"64 64 9 1 ",
"  c #201729",
". c #563A3F",
"X c #2D5B3F",
"o c #79584F",
"O c #94785C",
"+ c #29973B",
"@ c #2ECA35",
"# c #62EB3D",
"$ c None",
/* pixels */
"$$$$$$$$$$$$$$$$$$$$$$oooooooooooooo$$$$$$$$$$$$$$$$$$$$$$$$$$$$",
"$$$$$$$$$$$$$$$$$$$$$$oooooooooooooo$$$$$$$$$$$$$$$$$$$$$$$$$$$$",
"$$$$$$$$$$$$$$ooooooooOOOOOOOOOOOOOOoooooo$$$$$$$$$$$$$$$$$$$$$$",
"$$$$$$$$$$$$$$ooooooooOOOOOOOOOOOOOOoooooo$$$$$$$$$$$$$$$$$$$$$$",
"$$$$$$$$$$$$$$ooooooooOOOOOOOOOOOOOOoooooo$$$$$$$$$$$$$$$$$$$$$$",
"$$$$$$$$$$$oooOOOOOOOO..............OOOOOOoo$$$$$$$$$$$$$$$$$$$$",
"$$$$$$$$$$$oooOOOOOOOO..............OOOOOOoo$$$$$$$$$$$$$$$$$$$$",
"$$$$$$$$$ooOOOOOO.....              ......OOooo$$$$$$$$$$$$$$$$$",
"$$$$$$$$$ooOOOOOO.....              ......OOooo$$$$$$$$$$$$$$$$$",
"$$$$$$$$$ooOOOOOO.....              ......OOooo$$$$$$$$$$$$$$$$$",
"$$$$$$$$$ooOOOOOOOOO                   OOOOOooo$$$$$$$$$$$$$$$$$",
"$$$$$$$$$ooOOOOOOOOO                   OOOOOooo$$$$$$$$$$$$$$$$$",
"$$$$$$$$$ooOOOOOOOOO                   OOOOOooo$$$$$$$$$$$$$$$$$",
"$$$$$$$$$$$...oooOOOOOOOOOOOOOOooOOOOOOOOOoo   $$$$$$$$$$$$$$$$$",
"$$$$$$$$$$$...oooOOOOOOOOOOOOOOooOOOOOOOOOoo   $$$$$$$$$$$$$$$$$",
"$$$$$$$$$$$...oooOOOOOOOOOOOOOOooOOOOOOOOOoo   $$$$$$$$$$$$$$$$$",
"$$$$$$$$$$$...oooooooooooooooooooOOO...ooooo   @@@#####$$$$$$$$$",
"$$$$$$$$$$$...oooooooooooooooooooOOO...ooooo   @@@#####$$$$$$$$$",
"$$$$$$$$$$$$$$...oooooooo...oooooooo...ooooo   ++++++@@###$$$$$$",
"$$$$$$$$$$$$$$...oooooooo...oooooooo...ooooo   ++++++@@###$$$$$$",
"$$$$$$$$$$$$$$...oooooooo...oooooooo...ooooo   ++++++@@###$$$$$$",
"$$$$$$ooooo$$$...ooo..ooo...ooooo...OOOooooo   @@@@@@+++++###$$$",
"$$$$$$ooooo$$$...ooo..ooo...ooooo...OOOooooo   @@@@@@+++++###$$$",
"$$$$$$ooooo$$$...ooo..ooo...ooooo...OOOooooo   @@@@@@+++++###$$$",
"$$$oooOOOOO   ...ooooo...oooooooo...OOOooooo   $$$$$$@@@@@+++$$$",
"$$$oooOOOOO   ...ooooo...oooooooo...OOOooooo   $$$$$$@@@@@+++$$$",
"$$$oooOOOOO   ...ooooo...oooooooo...OOOooooo   $$$$$$@@@@@+++$$$",
"$$$oooOOOoo...   oooooooo...ooooo...oooooooo   $$$$$$$$$$$$$$$$$",
"$$$oooOOOoo...   oooooooo...ooooo...oooooooo   $$$$$$$$$$$$$$$$$",
"$$$oooOOOoo...   oooooooo...ooooo...oooooooo   $$$$$$$$$$$$$$$$$",
"$$$$$$   .....   oooooooo...ooooo...oooooooo   $$$$$$$$$$$$$$$$$",
"$$$$$$   .....   oooooooo...ooooo...oooooooo   $$$$$$$$$$$$$$$$$",
"$$$$$$$$$     ...oooooooo...oooooooo...ooo..   $$$$$$$$$$$$$$$$$",
"$$$$$$$$$     ...oooooooo...oooooooo...ooo..   $$$$$$$$$$$$$$$$$",
"$$$$$$$$$     ...oooooooo...oooooooo...ooo..   $$$$$$$$$$$$$$$$$",
"$$$$$$$$$$$   oooooooo...ooooooooooo...ooo  $$$$$$$$$$$$$$$$$$$$",
"$$$$$$$$$$$   oooooooo...ooooooooooo...ooo  $$$$$$$$$$$$$$$$$$$$",
"$$$$$$$$$$$   oooooooo...ooooooooooo...ooo  $$$$$$$$$$$$$$$$$$$$",
"$$$$$$$$$$$   ooooooooooooooooooo...oooooo  $$$$$$$$$$$$$$$$$$$$",
"$$$$$$$$$$$   ooooooooooooooooooo...oooooo  $$$$$$$$$$$$$$$$$$$$",
"$$$$$$$$$$$   ooooooooooooooooooo...oooooo  $$$$$$$$$$$$$$$$$$$$",
"$$$$$$$$$$$   ...ooooo...oooooooo...ooo...  $$$$$$$$$$$$$$$$$$$$",
"$$$$$$$$$$$   ...ooooo...oooooooo...ooo...  $$$$$$$$$$$$$$$$$$$$",
"$$$$$$$$$$$   ...ooooo...oooooooo...ooo...  $$$$$$$$$$$$$$$$$$$$",
"$$$$$$$$$$$$$$      .....ooo...oo...      $$$$$$$$$$$$$$$$$$$$$$",
"$$$$$$$$$$$$$$      .....ooo...oo...      $$$$$$$$$$$$$$$$$$$$$$",
"$$$$$$$$$$$$$$   +++                +++   $$$$$$$$$$$$$$$$$$$$$$",
"$$$$$$$$$$$$$$   +++                +++   $$$$$$$$$$$$$$$$$$$$$$",
"$$$$$$$$$$$$$$   +++                +++   $$$$$$$$$$$$$$$$$$$$$$",
"$$$$$$$$$$$$$$   XXXXX   $$$$$$  XXXXXX   $$$$$$$$$$$$$$$$$$$$$$",
"$$$$$$$$$$$$$$   XXXXX   $$$$$$  XXXXXX   $$$$$$$$$$$$$$$$$$$$$$",
"$$$$$$$$$$$$$$   XXXXX   $$$$$$  XXXXXX   $$$$$$$$$$$$$$$$$$$$$$",
"$$$$$$$$$$$$$$   XXXXX   $$$$$$  XXXXXX   $$$$$$$$$$$$$$$$$$$$$$",
"$$$$$$$$$$$$$$   XXXXX   $$$$$$  XXXXXX   $$$$$$$$$$$$$$$$$$$$$$",
"$$$$$$$$$$$$$$   XXXXX   $$$$$$  XXXXXX   $$$$$$$$$$$$$$$$$$$$$$",
"$$$$$$$$$$$$$$$$$     $$$$$$$$$$$      $$$$$$$$$$$$$$$$$$$$$$$$$",
"$$$$$$$$$$$$$$$$$     $$$$$$$$$$$      $$$$$$$$$$$$$$$$$$$$$$$$$",
"$$$$$$$$$$$$$$$$$$$$$$$$$$$$$$$$$$$$$$$$$$$$$$$$$$$$$$$$$$$$$$$$",
"$$$$$$$$$$$$$$$$$$$$$$$$$$$$$$$$$$$$$$$$$$$$$$$$$$$$$$$$$$$$$$$$",
"$$$$$$$$$$$$$$$$$$$$$$$$$$$$$$$$$$$$$$$$$$$$$$$$$$$$$$$$$$$$$$$$",
"$$$$$$$$$$$$$$$$$$$$$$$$$$$$$$$$$$$$$$$$$$$$$$$$$$$$$$$$$$$$$$$$",
"$$$$$$$$$$$$$$$$$$$$$$$$$$$$$$$$$$$$$$$$$$$$$$$$$$$$$$$$$$$$$$$$",
"$$$$$$$$$$$$$$$$$$$$$$$$$$$$$$$$$$$$$$$$$$$$$$$$$$$$$$$$$$$$$$$$",
"$$$$$$$$$$$$$$$$$$$$$$$$$$$$$$$$$$$$$$$$$$$$$$$$$$$$$$$$$$$$$$$$"
};
