/* XPM */
static char *result[] = {
/* columns rows colors chars-per-pixel */
"64 64 6 1 ",
"  c #985838",
". c #CFD526",
"X c #E89840",
"o c #F2F840",
"O c #FEFFA4",
"+ c None",
/* pixels */
"++++++++++++++++++++++++++++++++++++++++++++++++++++++++++++++++",
"++++++++++++++++++++++++++++++++++++++++++++++++++++++++++++++++",
"++++++++++++++++++++++++++++++++++++++++++++++++++++++++++++++++",
"++++++++++++++++++++++++++++++++++++++++++++++++++++++++++++++++",
"++++++++++++++++++++++++++++++++++++++++++++++++++++++++++++++++",
"++++++++++++++++++++++++++++++    ++++++++++++++++++++++++++++++",
"++++++++++++++++++++++++++++++    ++++++++++++++++++++++++++++++",
"++++++++++++++++++++++++++++++    ++++++++++++++++++++++++++++++",
"++++++++++++++++++++++++++++++    ++++++++++++++++++++++++++++++",
"++++++++++++++++++++++++++++++    ++++++++++++++++++++++++++++++",
"+++++++++++++++++++++++++     oooo     +++++++++++++++++++++++++",
"+++++++++++++++++++++++++     oooo     +++++++++++++++++++++++++",
"+++++++++++++++++++++++++     oooo     +++++++++++++++++++++++++",
"+++++++++++++++++++++++++     oooo     +++++++++++++++++++++++++",
"+++++++++++++++++++++++++     oooo     +++++++++++++++++++++++++",
"+++++++++++++++++++++++++     ....     +++++++++++++++++++++++++",
"+++++++++++++++++++++++++     ....     +++++++++++++++++++++++++",
"+++++++++++++++++++++++++     ....     +++++++++++++++++++++++++",
"+++++++++++++++++++++++++     ....     +++++++++++++++++++++++++",
"+++++++++++++++++++++++++     ....     +++++++++++++++++++++++++",
"+++++++++++++++++++++++++     ....     +++++++++++++++++++++++++",
"+++++++++++++++++++++++++     ....     +++++++++++++++++++++++++",
"+++++++++++++++++++++++++     ....     +++++++++++++++++++++++++",
"+++++++++++++++++++++++++     ....     +++++++++++++++++++++++++",
"+++++++++++++++++++++++++     ....     +++++++++++++++++++++++++",
"+++++++++++++++++++++++++     ....     +++++++++++++++++++++++++",
"+++++++++++++++++++++++++     ....     +++++++++++++++++++++++++",
"+++++++++++++++++++++++++     ....     +++++++++++++++++++++++++",
"+++++++++++++++++++++++++     ....     +++++++++++++++++++++++++",
"+++++++++++++++++++++++++     ....     +++++++++++++++++++++++++",
"+++++++++++++++++++++++++     ....     +++++++++++++++++++++++++",
"+++++++++++++++++++++++++     ....     +++++++++++++++++++++++++",
"+++++++++++++++++++++++++     ....     +++++++++++++++++++++++++",
"+++++++++++++++++++++++++     ....     +++++++++++++++++++++++++",
"+++++++++++++++++++++++++     ....     +++++++++++++++++++++++++",
"+++++++++++++++++++++++++     ....     +++++++++++++++++++++++++",
"+++++++++++++++++++++++++     ....     +++++++++++++++++++++++++",
"+++++++++++++++++++++++++     ....     +++++++++++++++++++++++++",
"+++++++++++++++++++++++++     ....     +++++++++++++++++++++++++",
"+++++++++++++++++++++++++     OOOO     +++++++++++++++++++++++++",
"+++++++++++++++++++++++++     OOOO     +++++++++++++++++++++++++",
"+++++++++++++++++++++++++     OOOO     +++++++++++++++++++++++++",
"+++++++++++++++++++++++++     OOOO     +++++++++++++++++++++++++",
"+++++++++++++++++++++++++     OOOO     +++++++++++++++++++++++++",
"+++++++++++++++++++++++++     oooo     +++++++++++++++++++++++++",
"+++++++++++++++++++++++++     oooo     +++++++++++++++++++++++++",
"+++++++++++++++++++++++++     oooo     +++++++++++++++++++++++++",
"+++++++++++++++++++++++++     oooo     +++++++++++++++++++++++++",
"+++++++++++++++++++++++++     oooo     +++++++++++++++++++++++++",
"+++++++++++++++++++++++++     XXXX     +++++++++++++++++++++++++",
"+++++++++++++++++++++++++     XXXX     +++++++++++++++++++++++++",
"+++++++++++++++++++++++++     XXXX     +++++++++++++++++++++++++",
"+++++++++++++++++++++++++     XXXX     +++++++++++++++++++++++++",
"+++++++++++++++++++++++++     XXXX     +++++++++++++++++++++++++",
"++++++++++++++++++++++++++++++    ++++++++++++++++++++++++++++++",
"++++++++++++++++++++++++++++++    ++++++++++++++++++++++++++++++",
"++++++++++++++++++++++++++++++    ++++++++++++++++++++++++++++++",
"++++++++++++++++++++++++++++++    ++++++++++++++++++++++++++++++",
"++++++++++++++++++++++++++++++    ++++++++++++++++++++++++++++++",
"++++++++++++++++++++++++++++++++++++++++++++++++++++++++++++++++",
"++++++++++++++++++++++++++++++++++++++++++++++++++++++++++++++++",
"++++++++++++++++++++++++++++++++++++++++++++++++++++++++++++++++",
"++++++++++++++++++++++++++++++++++++++++++++++++++++++++++++++++",
"++++++++++++++++++++++++++++++++++++++++++++++++++++++++++++++++"
};
