/* XPM */
static char *result[] = {
/* columns rows colors chars-per-pixel */
"64 64 6 1 ",
"  c #985838",
". c #CFD526",
"X c #E89840",
"o c #F2F840",
"O c #FEFFA4",
"+ c None",
/* pixels */
"++++++++++++++++++++++++++++++++++++++++++++++++++++++++++++++++",
"++++++++++++++++++++++++++++++++++++++++++++++++++++++++++++++++",
"++++++++++++++++++++++++++++++++++++++++++++++++++++++++++++++++",
"++++++++++++++++++++++++++++++++++++++++++++++++++++++++++++++++",
"+++++++++++++++++++                        +++++++++++++++++++++",
"+++++++++++++++++++                        +++++++++++++++++++++",
"+++++++++++++++++++                        +++++++++++++++++++++",
"+++++++++++++++++++                        +++++++++++++++++++++",
"+++++++++++++++++++                        +++++++++++++++++++++",
"++++++++++++++     OOOOOOOOOOoooooooooooooo     ++++++++++++++++",
"++++++++++++++     OOOOOOOOOOoooooooooooooo     ++++++++++++++++",
"++++++++++++++     OOOOOOOOOOoooooooooooooo     ++++++++++++++++",
"++++++++++++++     OOOOOOOOOOoooooooooooooo     ++++++++++++++++",
"++++++++++++++     OOOOOOOOOOoooooooooooooo     ++++++++++++++++",
"+++++++++     OOOOOoooooooooo....OOOOOoooooooooo     +++++++++++",
"+++++++++     OOOOOoooooooooo....OOOOOoooooooooo     +++++++++++",
"+++++++++     OOOOOoooooooooo....OOOOOoooooooooo     +++++++++++",
"+++++++++     OOOOOoooooooooo....OOOOOoooooooooo     +++++++++++",
"+++++++++     OOOOOoooooooooo....OOOOOoooooooooo     +++++++++++",
"++++     OOOOOooooooooooooooo....OOOOOooooooooooooooo     ++++++",
"++++     OOOOOooooooooooooooo....OOOOOooooooooooooooo     ++++++",
"++++     OOOOOooooooooooooooo....OOOOOooooooooooooooo     ++++++",
"++++     OOOOOooooooooooooooo....OOOOOooooooooooooooo     ++++++",
"++++     OOOOOooooooooooooooo....OOOOOooooooooooooooo     ++++++",
"++++     OOOOOooooo.....ooooo....OOOOO.....OOOOOooooo     ++++++",
"++++     OOOOOooooo.....ooooo....OOOOO.....OOOOOooooo     ++++++",
"++++     OOOOOooooo.....ooooo....OOOOO.....OOOOOooooo     ++++++",
"++++     OOOOOooooo.....ooooo....OOOOO.....OOOOOooooo     ++++++",
"++++     OOOOOooooo.....ooooo....OOOOO.....OOOOOooooo     ++++++",
"++++     ooooo.....OOOOOooooo....OOOOOooooo.....OOOOO     ++++++",
"++++     ooooo.....OOOOOooooo....OOOOOooooo.....OOOOO     ++++++",
"++++     ooooo.....OOOOOooooo....OOOOOooooo.....OOOOO     ++++++",
"++++     ooooo.....OOOOOooooo....OOOOOooooo.....OOOOO     ++++++",
"++++     ooooo.....OOOOO..............ooooo.....OOOOO     ++++++",
"++++     ooooo.....OOOOO..............ooooo.....OOOOO     ++++++",
"++++     ooooo.....OOOOO..............ooooo.....OOOOO     ++++++",
"++++     ooooo.....OOOOO..............ooooo.....OOOOO     ++++++",
"++++     ooooo.....OOOOO..............ooooo.....OOOOO     ++++++",
"++++     XXXXXoooooooooo.....OOOO.....OOOOOoooooXXXXX     ++++++",
"++++     XXXXXoooooooooo.....OOOO.....OOOOOoooooXXXXX     ++++++",
"++++     XXXXXoooooooooo.....OOOO.....OOOOOoooooXXXXX     ++++++",
"++++     XXXXXoooooooooo.....OOOO.....OOOOOoooooXXXXX     ++++++",
"++++     XXXXXoooooooooo.....OOOO.....OOOOOoooooXXXXX     ++++++",
"+++++++++     XXXXXoooooOOOOOooooOOOOOoooooXXXXX     +++++++++++",
"+++++++++     XXXXXoooooOOOOOooooOOOOOoooooXXXXX     +++++++++++",
"+++++++++     XXXXXoooooOOOOOooooOOOOOoooooXXXXX     +++++++++++",
"+++++++++     XXXXXoooooOOOOOooooOOOOOoooooXXXXX     +++++++++++",
"+++++++++     XXXXXoooooOOOOOooooOOOOOoooooXXXXX     +++++++++++",
"++++++++++++++     XXXXXXXXXXXXXXXXXXXXXXXX     ++++++++++++++++",
"++++++++++++++     XXXXXXXXXXXXXXXXXXXXXXXX     ++++++++++++++++",
"++++++++++++++     XXXXXXXXXXXXXXXXXXXXXXXX     ++++++++++++++++",
"++++++++++++++     XXXXXXXXXXXXXXXXXXXXXXXX     ++++++++++++++++",
"++++++++++++++     XXXXXXXXXXXXXXXXXXXXXXXX     ++++++++++++++++",
"+++++++++++++++++++                        +++++++++++++++++++++",
"+++++++++++++++++++                        +++++++++++++++++++++",
"+++++++++++++++++++                        +++++++++++++++++++++",
"+++++++++++++++++++                        +++++++++++++++++++++",
"+++++++++++++++++++                        +++++++++++++++++++++",
"++++++++++++++++++++++++++++++++++++++++++++++++++++++++++++++++",
"++++++++++++++++++++++++++++++++++++++++++++++++++++++++++++++++",
"++++++++++++++++++++++++++++++++++++++++++++++++++++++++++++++++",
"++++++++++++++++++++++++++++++++++++++++++++++++++++++++++++++++",
"++++++++++++++++++++++++++++++++++++++++++++++++++++++++++++++++",
"++++++++++++++++++++++++++++++++++++++++++++++++++++++++++++++++"
};
