/* XPM */
static char *result[] = {
/* columns rows colors chars-per-pixel */
"64 64 6 1 ",
"  c #985838",
". c #CFD526",
"X c #E89840",
"o c #F2F840",
"O c #FEFFA4",
"+ c None",
/* pixels */
"++++++++++++++++++++++++++++++++++++++++++++++++++++++++++++++++",
"++++++++++++++++++++++++++++++++++++++++++++++++++++++++++++++++",
"++++++++++++++++++++++++++++++++++++++++++++++++++++++++++++++++",
"++++++++++++++++++++++++++++++++++++++++++++++++++++++++++++++++",
"++++++++++++++++++++++++++++++++++++++++++++++++++++++++++++++++",
"++++++++++++++++++++++                   +++++++++++++++++++++++",
"++++++++++++++++++++++                   +++++++++++++++++++++++",
"++++++++++++++++++++++                   +++++++++++++++++++++++",
"++++++++++++++++++++++                   +++++++++++++++++++++++",
"++++++++++++++++++++++                   +++++++++++++++++++++++",
"+++++++++++++++++     XXXXX    OOOOOooooo     ++++++++++++++++++",
"+++++++++++++++++     XXXXX    OOOOOooooo     ++++++++++++++++++",
"+++++++++++++++++     XXXXX    OOOOOooooo     ++++++++++++++++++",
"+++++++++++++++++     XXXXX    OOOOOooooo     ++++++++++++++++++",
"+++++++++++++++++     XXXXX    OOOOOooooo     ++++++++++++++++++",
"++++++++++++     XXXXX     OOOOOOOOOOOOOOooooo     +++++++++++++",
"++++++++++++     XXXXX     OOOOOOOOOOOOOOooooo     +++++++++++++",
"++++++++++++     XXXXX     OOOOOOOOOOOOOOooooo     +++++++++++++",
"++++++++++++     XXXXX     OOOOOOOOOOOOOOooooo     +++++++++++++",
"++++++++++++     XXXXX     OOOOOOOOOOOOOOooooo     +++++++++++++",
"++++++++++++     XXXXX     OOOOOOOOOOOOOOoooooooooo     ++++++++",
"++++++++++++     XXXXX     OOOOOOOOOOOOOOoooooooooo     ++++++++",
"++++++++++++     XXXXX     OOOOOOOOOOOOOOoooooooooo     ++++++++",
"++++++++++++     XXXXX     OOOOOOOOOOOOOOoooooooooo     ++++++++",
"++++++++++++     XXXXX     OOOOOOOOOOOOOOoooooooooo     ++++++++",
"+++++++     XXXXX     OOOOOOOOOoooooOOOOOOOOOOooooo     ++++++++",
"+++++++     XXXXX     OOOOOOOOOoooooOOOOOOOOOOooooo     ++++++++",
"+++++++     XXXXX     OOOOOOOOOoooooOOOOOOOOOOooooo     ++++++++",
"+++++++     XXXXX     OOOOOOOOOoooooOOOOOOOOOOooooo     ++++++++",
"+++++++     XXXXX     OOOOOOOOOoooooOOOOOOOOOOooooo     ++++++++",
"+++++++     XXXXX     OOOOOooooOOOOOOOOOO.....OOOOO     ++++++++",
"+++++++     XXXXX     OOOOOooooOOOOOOOOOO.....OOOOO     ++++++++",
"+++++++     XXXXX     OOOOOooooOOOOOOOOOO.....OOOOO     ++++++++",
"+++++++     XXXXX     OOOOOooooOOOOOOOOOO.....OOOOO     ++++++++",
"+++++++     XXXXX     ooooo....OOOOO..........OOOOO     ++++++++",
"+++++++     XXXXX     ooooo....OOOOO..........OOOOO     ++++++++",
"+++++++     XXXXX     ooooo....OOOOO..........OOOOO     ++++++++",
"+++++++     XXXXX     ooooo....OOOOO..........OOOOO     ++++++++",
"+++++++     XXXXX     ooooo....OOOOO..........OOOOO     ++++++++",
"++++++++++++     XXXXX     ooooooooo.....oooooXXXXX     ++++++++",
"++++++++++++     XXXXX     ooooooooo.....oooooXXXXX     ++++++++",
"++++++++++++     XXXXX     ooooooooo.....oooooXXXXX     ++++++++",
"++++++++++++     XXXXX     ooooooooo.....oooooXXXXX     ++++++++",
"++++++++++++     XXXXX     ooooooooo.....oooooXXXXX     ++++++++",
"++++++++++++     XXXXX     XXXXoooooOOOOOXXXXX     +++++++++++++",
"++++++++++++     XXXXX     XXXXoooooOOOOOXXXXX     +++++++++++++",
"++++++++++++     XXXXX     XXXXoooooOOOOOXXXXX     +++++++++++++",
"++++++++++++     XXXXX     XXXXoooooOOOOOXXXXX     +++++++++++++",
"++++++++++++     XXXXX     XXXXoooooOOOOOXXXXX     +++++++++++++",
"+++++++++++++++++     XXXXX    XXXXXXXXXX     ++++++++++++++++++",
"+++++++++++++++++     XXXXX    XXXXXXXXXX     ++++++++++++++++++",
"+++++++++++++++++     XXXXX    XXXXXXXXXX     ++++++++++++++++++",
"+++++++++++++++++     XXXXX    XXXXXXXXXX     ++++++++++++++++++",
"+++++++++++++++++     XXXXX    XXXXXXXXXX     ++++++++++++++++++",
"++++++++++++++++++++++                   +++++++++++++++++++++++",
"++++++++++++++++++++++                   +++++++++++++++++++++++",
"++++++++++++++++++++++                   +++++++++++++++++++++++",
"++++++++++++++++++++++                   +++++++++++++++++++++++",
"++++++++++++++++++++++                   +++++++++++++++++++++++",
"++++++++++++++++++++++++++++++++++++++++++++++++++++++++++++++++",
"++++++++++++++++++++++++++++++++++++++++++++++++++++++++++++++++",
"++++++++++++++++++++++++++++++++++++++++++++++++++++++++++++++++",
"++++++++++++++++++++++++++++++++++++++++++++++++++++++++++++++++",
"++++++++++++++++++++++++++++++++++++++++++++++++++++++++++++++++"
};
