/* XPM */
static char *result[] = {
/* columns rows colors chars-per-pixel */
"64 64 6 1 ",
"  c #985838",
". c #CFD526",
"X c #E89840",
"o c #F2F840",
"O c #FEFFA4",
"+ c None",
/* pixels */
"++++++++++++++++++++++++++++++++++++++++++++++++++++++++++++++++",
"++++++++++++++++++++++++++++++++++++++++++++++++++++++++++++++++",
"++++++++++++++++++++++++++++++++++++++++++++++++++++++++++++++++",
"++++++++++++++++++++++++++++++++++++++++++++++++++++++++++++++++",
"++++++++++++++++++++++++++++++++++++++++++++++++++++++++++++++++",
"++++++++++++++++++++++                   +++++++++++++++++++++++",
"++++++++++++++++++++++                   +++++++++++++++++++++++",
"++++++++++++++++++++++                   +++++++++++++++++++++++",
"++++++++++++++++++++++                   +++++++++++++++++++++++",
"++++++++++++++++++++++                   +++++++++++++++++++++++",
"+++++++++++++++++     OOOOOOOOO     XXXXX     ++++++++++++++++++",
"+++++++++++++++++     OOOOOOOOO     XXXXX     ++++++++++++++++++",
"+++++++++++++++++     OOOOOOOOO     XXXXX     ++++++++++++++++++",
"+++++++++++++++++     OOOOOOOOO     XXXXX     ++++++++++++++++++",
"+++++++++++++++++     OOOOOOOOO     XXXXX     ++++++++++++++++++",
"++++++++++++     OOOOOOOOOO....ooooo     XXXXX     +++++++++++++",
"++++++++++++     OOOOOOOOOO....ooooo     XXXXX     +++++++++++++",
"++++++++++++     OOOOOOOOOO....ooooo     XXXXX     +++++++++++++",
"++++++++++++     OOOOOOOOOO....ooooo     XXXXX     +++++++++++++",
"++++++++++++     OOOOOOOOOO....ooooo     XXXXX     +++++++++++++",
"+++++++     OOOOOOOOOOOOOOO....ooooo     XXXXX     +++++++++++++",
"+++++++     OOOOOOOOOOOOOOO....ooooo     XXXXX     +++++++++++++",
"+++++++     OOOOOOOOOOOOOOO....ooooo     XXXXX     +++++++++++++",
"+++++++     OOOOOOOOOOOOOOO....ooooo     XXXXX     +++++++++++++",
"+++++++     OOOOOOOOOOOOOOO....ooooo     XXXXX     +++++++++++++",
"+++++++     OOOOOOOOOOOOOOOooooOOOOOooooo     XXXXX     ++++++++",
"+++++++     OOOOOOOOOOOOOOOooooOOOOOooooo     XXXXX     ++++++++",
"+++++++     OOOOOOOOOOOOOOOooooOOOOOooooo     XXXXX     ++++++++",
"+++++++     OOOOOOOOOOOOOOOooooOOOOOooooo     XXXXX     ++++++++",
"+++++++     OOOOOOOOOOOOOOOooooOOOOOooooo     XXXXX     ++++++++",
"+++++++     OOOOOoooooOOOOOooooooooo.....     XXXXX     ++++++++",
"+++++++     OOOOOoooooOOOOOooooooooo.....     XXXXX     ++++++++",
"+++++++     OOOOOoooooOOOOOooooooooo.....     XXXXX     ++++++++",
"+++++++     OOOOOoooooOOOOOooooooooo.....     XXXXX     ++++++++",
"+++++++     OOOOO.....ooooo.........ooooo     XXXXX     ++++++++",
"+++++++     OOOOO.....ooooo.........ooooo     XXXXX     ++++++++",
"+++++++     OOOOO.....ooooo.........ooooo     XXXXX     ++++++++",
"+++++++     OOOOO.....ooooo.........ooooo     XXXXX     ++++++++",
"+++++++     OOOOO.....ooooo.........ooooo     XXXXX     ++++++++",
"+++++++     XXXXXooooo.....OOOOooooo     XXXXX     +++++++++++++",
"+++++++     XXXXXooooo.....OOOOooooo     XXXXX     +++++++++++++",
"+++++++     XXXXXooooo.....OOOOooooo     XXXXX     +++++++++++++",
"+++++++     XXXXXooooo.....OOOOooooo     XXXXX     +++++++++++++",
"+++++++     XXXXXooooo.....OOOOooooo     XXXXX     +++++++++++++",
"++++++++++++     XXXXXOOOOOooooXXXXX     XXXXX     +++++++++++++",
"++++++++++++     XXXXXOOOOOooooXXXXX     XXXXX     +++++++++++++",
"++++++++++++     XXXXXOOOOOooooXXXXX     XXXXX     +++++++++++++",
"++++++++++++     XXXXXOOOOOooooXXXXX     XXXXX     +++++++++++++",
"++++++++++++     XXXXXOOOOOooooXXXXX     XXXXX     +++++++++++++",
"+++++++++++++++++     XXXXXXXXX     XXXXX     ++++++++++++++++++",
"+++++++++++++++++     XXXXXXXXX     XXXXX     ++++++++++++++++++",
"+++++++++++++++++     XXXXXXXXX     XXXXX     ++++++++++++++++++",
"+++++++++++++++++     XXXXXXXXX     XXXXX     ++++++++++++++++++",
"+++++++++++++++++     XXXXXXXXX     XXXXX     ++++++++++++++++++",
"++++++++++++++++++++++                   +++++++++++++++++++++++",
"++++++++++++++++++++++                   +++++++++++++++++++++++",
"++++++++++++++++++++++                   +++++++++++++++++++++++",
"++++++++++++++++++++++                   +++++++++++++++++++++++",
"++++++++++++++++++++++                   +++++++++++++++++++++++",
"++++++++++++++++++++++++++++++++++++++++++++++++++++++++++++++++",
"++++++++++++++++++++++++++++++++++++++++++++++++++++++++++++++++",
"++++++++++++++++++++++++++++++++++++++++++++++++++++++++++++++++",
"++++++++++++++++++++++++++++++++++++++++++++++++++++++++++++++++",
"++++++++++++++++++++++++++++++++++++++++++++++++++++++++++++++++"
};
