/* XPM */
static char *result[] = {
/* columns rows colors chars-per-pixel */
"64 64 8 1 ",
"  c #302639",
". c #563A3F",
"X c #79584F",
"o c #505060",
"O c #94785C",
"+ c #949EA8",
"@ c #D5D5D5",
"# c None",
/* pixels */
"#####oooooooooooooooooooooooooooooooooooooooooooooooooooooo#####",
"#####oooooooooooooooooooooooooooooooooooooooooooooooooooooo#####",
"#####oooooooooooooooooooooooooooooooooooooooooooooooooooooo#####",
"##ooo++++++++++++++++++++++++++++++++++++++++++++++++++++++ooo##",
"##ooo++++++++++++++++++++++++++++++++++++++++++++++++++++++ooo##",
"##ooo++                                                  ++ooo##",
"##ooo++                                                  ++ooo##",
"##ooo++  XXXXXXX..XXXXXXXXXXXXXXXXXXXXXXX..XXXXX..XXXXXoo++ooo##",
"##ooo++  XXXXXXX..XXXXXXXXXXXXXXXXXXXXXXX..XXXXX..XXXXXoo++ooo##",
"##ooo++  XXXXXXX..XXXXXXXXXXXXXXXXXXXXXXXXXXXXXX..XXXXXoo++ooo##",
"##ooo++  XXXXXXX..XXXXXXXXXXXXXXXXXXXXXXXXXXXXXX..XXXXXoo++ooo##",
"##ooo++  XXXXXXX..XXXXXXXXXXXXXXXXXXXXXXXXXXXXXX..XXXXXoo++ooo##",
"##ooo++  XXXXXOOXXOOOOOOOOOOOOOOOOOOOOOOOOOOOOOOXXOOOOOoo++ooo##",
"##ooo++  XXXXXOOXXOOOOOOOOOOOOOOOOOOOOOOOOOOOOOOXXOOOOOoo++ooo##",
"##ooo++  XXXXXOOXXOOOOOOOOOOOOOOOOOOOOOOOOOOOOOOXXOOOOOoo++ooo##",
"##ooo++  XXXXXOOXXOOOOOOOOOOOOOOOOOOOOOOOOOOOOOOXXOOOOOoo++ooo##",
"##ooo++  XXXXXOOXXOOOOOOOOOOOOOOOOOOOOOOOOOOOOOOOOOOOOOoo++ooo##",
"##ooo++  XXXXXOOXXOOOOOOOOOOOOOOOOOOOOOOOOOOOOOOOOOOOOOoo++ooo##",
"##ooo++  XXXXXOOXXOOOOOOOOOOOOOOOOOOOOOOOOOOOOOOOOOOOOOoo++ooo##",
"##ooo++  XXXXXOOOOOOOOOXXOOOOOOOOOOOOOOOOOOOOOOOOOOOOOOoo++ooo##",
"##ooo++  XXXXXOOOOOOOOOXXOOOOOOOOOOOOOOOOOOOOOOOOOOOOOOoo++ooo##",
"##ooo++  XXXXXOOOOOOOOOXXOOOOOOOOOOOOOOOOOOOOOOOOOOOOOOoo++ooo##",
"##ooo++  XXXXXOOOOOOOOOXXOOOOOOOOOOOOOOOOOOOOOOOOOOOOOOoo++ooo##",
"##ooo++  XXXXXOOOOOOOOOXXOOOOOOOOOOOOOOOOOOOOOOOOOOOOOOoo++ooo##",
"##ooo++  XXXXXOOOOOOOOOXXOOOOOOOOOOOOOOOOOOOOOOOOOOOOOOoo++ooo##",
"##ooo++  XXXXXOOOOOOOOOXXOOOOOOOOOOOOOOOOOOOOOOOOOOOOOOoo++ooo##",
"##ooo++  XXXXXOOOOOOOOOOOOOOOOOOOOOOOOOOOOOXXXOOOOOOOOOoo++ooo##",
"##ooo++  XXXXXOOOOOOOOOOOOOOOOOOOOOOOOOOOOOXXXOOOOOOOOOoo++ooo##",
"##ooo++  XXXXXOOOOOOOOOOOOO+++XXXX+++OOOOOOXXXOOOOOOOOOoo++ooo##",
"##ooo++  XXXXXOOOOOOOOOOOOO+++XXXX+++OOOOOOXXXOOOOOOOOOoo++ooo##",
"##ooo++  XXXXXOOOOOOOOOOO++@@@OOOO@@@ooOOOOXXXOOOOOOOOOoo++ooo##",
"##ooo++  XXXXXOOOOOOOOOOO++@@@OOOO@@@ooOOOOXXXOOOOOOOOOoo++ooo##",
"##ooo++  XX...OOOOOOOOO++@@OOOOOOOOOO++ooOOOOOOOOOOOOOOoo++ooo##",
"##ooo++  XX...OOOOOOOOO++@@OOOOOOOOOO++ooOOOOOOOOOOOOOOoo++ooo##",
"##ooo++  XX...OOOOOOOOO++@@OOOOOOOOOO++ooOOOOOOOOOOOOOOoo++ooo##",
"##ooo++  XX...OOOOOOOOO++@@OOOOOOOOOO++ooOOOOOOOOOOOOOOoo++ooo##",
"##ooo++  XX...OOOOOOOOO++@@OOOOOOOOOO++ooOOOOOOOOOOOOOOoo++ooo##",
"##ooo++  XX...OOOOOOOOOXX++@@@+++++++ooXXOOOOOOOOOOOOOOoo++ooo##",
"##ooo++  XX...OOOOOOOOOXX++@@@+++++++ooXXOOOOOOOOOOOOOOoo++ooo##",
"##ooo++  XXXXXOOOOOOOOOOOXXooooooooooXXOOOOOOOOOOOXXXOOoo++ooo##",
"##ooo++  XXXXXOOOOOOOOOOOXXooooooooooXXOOOOOOOOOOOXXXOOoo++ooo##",
"##ooo++  XXXXXOOOOOOOOOOOXXooooooooooXXOOOOOOOOOOOXXXOOoo++ooo##",
"##ooo++  XXXXXOOOOOOOOOOOOOXXXXXXXXXXOOOOOOOOOOOOOXXXOOoo++ooo##",
"##ooo++  XXXXXOOOOOOOOOOOOOXXXXXXXXXXOOOOOOOOOOOOOXXXOOoo++ooo##",
"##ooo++  XXXXXOOOOOOOOOOOOOOOOOOOOOOOOOOOOOOOOOOOOXXXOOoo++ooo##",
"##ooo++  XXXXXOOOOOOOOOOOOOOOOOOOOOOOOOOOOOOOOOOOOXXXOOoo++ooo##",
"##ooo++  XXXXXOOOOOOOOOOOOOOOOOOOOOOOOOOOOOOOOOOOOOOOOOoo++ooo##",
"##ooo++  XXXXXOOOOOOOOOOOOOOOOOOOOOOOOOOOOOOOOOOOOOOOOOoo++ooo##",
"##ooo++  XXXXXOOOOOOOOOOOOOOOOOOOOOOOOOOOOOOOOOOOOOOOOOoo++ooo##",
"##ooo++  XXXXXOOOOOOOXXOOOOOOOOOOOOOOOOOOOOOOOOOOOOOOOOoo++ooo##",
"##ooo++  XXXXXOOOOOOOXXOOOOOOOOOOOOOOOOOOOOOOOOOOOOOOOOoo++ooo##",
"##ooo++  XXXXXOOOOOOOXXOOOOOOOOOOOOOOOOOOOOOOOOOOOOOOOOoo++ooo##",
"##ooo++  XXXXXOOOOOOOXXOOOOOOOOOOOOOOOOOOOOOOOOOOOOOOOOoo++ooo##",
"##ooo++  XXXXXOOOOOOOXXOOOOOOOOOOOOOOOOOOOOXXXOOOOOOOOOoo++ooo##",
"##ooo++  XXXXXOOOOOOOXXOOOOOOOOOOOOOOOOOOOOXXXOOOOOOOOOoo++ooo##",
"##ooo++  XXXXXOOOOOOOOOOOOOOOOOOOOOOOOOOOOOXXXOOOOOOOOOoo++ooo##",
"##ooo++  XXXXXOOOOOOOOOOOOOOOOOOOOOOOOOOOOOXXXOOOOOOOOOoo++ooo##",
"##ooo++  XXXXXOOOOOOOOOOOOOOOOOOOOOOOOOOOOOXXXOOOOOOOOOoo++ooo##",
"##ooo++  oooooooooooooooooooooooooooooooooooooooooooooooo++ooo##",
"##ooo++  oooooooooooooooooooooooooooooooooooooooooooooooo++ooo##",
"##ooo++++++++++++++++++++++++++++++++++++++++++++++++++++++ooo##",
"##ooo++++++++++++++++++++++++++++++++++++++++++++++++++++++ooo##",
"#####oooooooooooooooooooooooooooooooooooooooooooooooooooooo#####",
"#####oooooooooooooooooooooooooooooooooooooooooooooooooooooo#####"
};
