/* XPM */
static char *result[] = {
/* columns rows colors chars-per-pixel */
"64 64 9 1 ",
"  c #201729",
". c #331F29",
"X c #302639",
"o c #563A3F",
"O c #79584F",
"+ c #505060",
"@ c #94785C",
"# c #949EA8",
"$ c None",
/* pixels */
"$$$$$++++++++++++++++++++++++++++++++++++++++++++++++++++++$$$$$",
"$$$$$++++++++++++++++++++++++++++++++++++++++++++++++++++++$$$$$",
"$$$$$++++++++++++++++++++++++++++++++++++++++++++++++++++++$$$$$",
"$$+++######################################################+++$$",
"$$+++######################################################+++$$",
"$$+++##                                                  ##+++$$",
"$$+++##                                                  ##+++$$",
"$$+++##  OOOOOOOOOOOOOOooOOOOOOOOOOOOOOOOOOOOOOOOOoooOO++##+++$$",
"$$+++##  OOOOOOOOOOOOOOooOOOOOOOOOOOOOOOOOOOOOOOOOoooOO++##+++$$",
"$$+++##  OOOOO@@@@@@@@@OO@@@@@@@@@@@@@@@@@@@@@@@OO@@@OO++##+++$$",
"$$+++##  OOOOO@@@@@@@@@OO@@@@@@@@@@@@@@@@@@@@@@@OO@@@OO++##+++$$",
"$$+++##  OOOOO@@@@@@@@@OO@@@@@@@@@@@@@@@@@@@@@@@OO@@@OO++##+++$$",
"$$+++##  OOOOO@@@@@@@@@@@OO@@@@@@@@@@@@@@@@@@@@@OO@@@OO++##+++$$",
"$$+++##  OOOOO@@@@@@@@@@@OO@@@@@@@@@@@@@@@@@@@@@OO@@@OO++##+++$$",
"$$+++##  ..OOO@@@@@@@@@@@OO@@@@@@@@@@@@OO@@@@@@@@@OOO..++##+++$$",
"$$+++##  ..OOO@@@@@@@@@@@OO@@@@@@@@@@@@OO@@@@@@@@@OOO..++##+++$$",
"$$+++##    OOOoo@@@@@@@@@@@@@@@@@@@@@@@@@OO@@@@@@@OOO  ++##+++$$",
"$$+++##    OOOoo@@@@@@@@@@@@@@@@@@@@@@@@@OO@@@@@@@OOO  ++##+++$$",
"$$+++##    OOOoo@@@@@@@@@@@@@@@@@@@@@@@@@OO@@@@@@@OOO  ++##+++$$",
"$$+++##    OOOOOOO@@@@@@@@@@@@@@@@@@@@@@@OO@@@@@OOOOO  ++##+++$$",
"$$+++##    OOOOOOO@@@@@@@@@@@@@@@@@@@@@@@OO@@@@@OOOOO  ++##+++$$",
"$$+++##    OOOOOOO@@@@@@@@@OOO##OO###OO@@@@@@@@@OOOOO  ++##+++$$",
"$$+++##    OOOOOOO@@@@@@@@@OOO##OO###OO@@@@@@@@@OOOOO  ++##+++$$",
"$$+++##    oooooOOOOOOOOOOO###++oo+++##OOOOOOOOOooooo  ++##+++$$",
"$$+++##    oooooOOOOOOOOOOO###++oo+++##OOOOOOOOOooooo  ++##+++$$",
"$$+++##    oooooOOOOOOOOOOO###++oo+++##OOOOOOOOOooooo  ++##+++$$",
"$$+++##    oooooOOOOOOOOOOO+++XXOOXXX++OOOOOOOOOooooo  ++##+++$$",
"$$+++##    oooooOOOOOOOOOOO+++XXOOXXX++OOOOOOOOOooooo  ++##+++$$",
"$$+++##    ...ooOOOOOOOooOOooo+++++++ooOOOOOOOOOoo...  ++##+++$$",
"$$+++##    ...ooOOOOOOOooOOooo+++++++ooOOOOOOOOOoo...  ++##+++$$",
"$$+++##       ooOOOOOOOooOOOOOoooooooOOOOOOOOOOOoo     ++##+++$$",
"$$+++##       ooOOOOOOOooOOOOOoooooooOOOOOOOOOOOoo     ++##+++$$",
"$$+++##       ooooooo..ooooooooooooooooooooooooooo     ++##+++$$",
"$$+++##       ooooooo..ooooooooooooooooooooooooooo     ++##+++$$",
"$$+++##       ooooooo..ooooooooooooooooooooooooooo     ++##+++$$",
"$$+++##       ..ooooo..oooooooooooooooooooo...oo..     ++##+++$$",
"$$+++##       ..ooooo..oooooooooooooooooooo...oo..     ++##+++$$",
"$$+++##         ................................       ++##+++$$",
"$$+++##         ................................       ++##+++$$",
"$$+++##         ................................       ++##+++$$",
"$$+++##         ................................       ++##+++$$",
"$$+++##         ................................       ++##+++$$",
"$$+++##                                                ++##+++$$",
"$$+++##                                                ++##+++$$",
"$$+++##                                                ++##+++$$",
"$$+++##                                                ++##+++$$",
"$$+++##                                                ++##+++$$",
"$$+++##                                                ++##+++$$",
"$$+++##                                                ++##+++$$",
"$$+++##                                                ++##+++$$",
"$$+++##                                                ++##+++$$",
"$$+++##                                                ++##+++$$",
"$$+++##                                                ++##+++$$",
"$$+++##                                                ++##+++$$",
"$$+++##                                                ++##+++$$",
"$$+++##                                                ++##+++$$",
"$$+++##                                                ++##+++$$",
"$$+++##                                                ++##+++$$",
"$$+++##  ++++++++++++++++++++++++++++++++++++++++++++++++##+++$$",
"$$+++##  ++++++++++++++++++++++++++++++++++++++++++++++++##+++$$",
"$$+++######################################################+++$$",
"$$+++######################################################+++$$",
"$$$$$++++++++++++++++++++++++++++++++++++++++++++++++++++++$$$$$",
"$$$$$++++++++++++++++++++++++++++++++++++++++++++++++++++++$$$$$"
};
