/* XPM */
static char *result[] = {
/* columns rows colors chars-per-pixel */
"64 64 3 1 ",
"  c #29973B",
". c #3ABE41",
"X c #6ADD4B",
/* pixels */
"................................................................",
"................................................................",
"................................................................",
"................................................................",
"................................................................",
"................................................................",
"................................................................",
"................................................................",
"....................................................XXXX........",
"....................................................XXXX........",
"....................................................XXXX........",
"....................................................XXXX........",
"....................................................XXXX........",
"....................................................XXXX........",
"....................................................XXXX........",
"....................................................XXXX........",
"............XXXX........XXXX........................    ........",
"............XXXX........XXXX........................    ........",
"............XXXX........XXXX........................    ........",
"............XXXX........XXXX........................    ........",
"............XXXX....XXXX    ....................................",
"............XXXX....XXXX    ....................................",
"............XXXX....XXXX    ....................................",
"............XXXX....XXXX    ....................................",
"............XXXX....XXXX........................................",
"............XXXX....XXXX........................................",
"............XXXX....XXXX........................................",
"............XXXX....XXXX........................................",
"............    ....    ........................................",
"............    ....    ........................................",
"............    ....    ........................................",
"............    ....    ........................................",
"................................................................",
"................................................................",
"................................................................",
"................................................................",
"................................................................",
"................................................................",
"................................................................",
"................................................................",
"....XXXX........................................................",
"....XXXX........................................................",
"....XXXX........................................................",
"....XXXX........................................................",
"................................................................",
"................................................................",
"................................................................",
"................................................................",
"............................XXXX........XXXX....................",
"............................XXXX........XXXX....................",
"............................XXXX........XXXX....................",
"............................XXXX........XXXX....................",
"............................    XXXX....XXXX....................",
"............................    XXXX....XXXX....................",
"............................    XXXX....XXXX....................",
"............................    XXXX....XXXX....................",
"................................XXXX....XXXX....................",
"................................XXXX....XXXX....................",
"................................XXXX....XXXX....................",
"................................XXXX....XXXX....................",
"................................    ....    ....................",
"................................    ....    ....................",
"................................    ....    ....................",
"................................    ....    ...................."
};
