/* XPM */
static char *result[] = {
/* columns rows colors chars-per-pixel */
"64 64 3 1 ",
"  c #328E41",
". c #35A541",
"X c #3ABE41",
/* pixels */
"................................................................",
"................................................................",
"................................................................",
"................................................................",
"................................................................",
"................................................................",
"......................XX..XX........................  ..........",
"......................XX..XX........................  ..........",
"................XXXX..XXXXXX......................    ..  ..  ..",
"................XXXX..XXXXXX......................    ..  ..  ..",
"................XX......XX....................  ..  ....      ..",
"................XX......XX....................  ..  ....      ..",
"..................    ........................  ........    ....",
"..................    ........................  ........    ....",
"..........................................................  ....",
"..........................................................  ....",
"................................................................",
"................................................................",
"................................................................",
"................................................................",
"................................................................",
"................................................................",
"..  ............................................................",
"..  ............................................................",
"..  ..  ..  ......................................  ............",
"..  ..  ..  ......................................  ............",
"......      ....................................    ............",
"......      ....................................    ............",
"......    ..................................  ..  ..............",
"......    ..................................  ..  ..............",
"........  ..................................  ..................",
"........  ..................................  ..................",
"................................................................",
"................................................................",
"................................................................",
"................................................................",
"..........XX..XX......XX....  ..................................",
"..........XX..XX......XX....  ..................................",
"..........XXXXXX..XXXXXX....  ..................................",
"..........XXXXXX..XXXXXX....  ..................................",
"............XX......XX..XX......................................",
"............XX......XX..XX......................................",
"................    ............................................",
"................    ............................................",
"..................  ............................................",
"..................  ............................................",
"............................................XX..XX..............",
"............................................XX..XX..............",
"..............................................XX................",
"..............................................XX................",
"........................................XX....XX................",
"........................................XX....XX................",
"....................  ..................XX......................",
"....................  ..................XX......................",
"......XX..XX........  ..  ..  ..................................",
"......XX..XX........  ..  ..  ..................................",
"........XX..............      ..................................",
"........XX..............      ..................................",
"..XX....XX..............    ....................................",
"..XX....XX..............    ....................................",
"..XX......................  ....................................",
"..XX......................  ....................................",
"................................................................",
"................................................................"
};
