/* XPM */
static char *result[] = {
/* columns rows colors chars-per-pixel */
"64 64 4 1 ",
"  c #4D4349",
". c #665E66",
"X c #7E7880",
"o c #979399",
/* pixels */
"     ........   ...XXXXXXXXXXXXX...  XXXXXX     ........   ..XXX",
"     ........   ...XXXXXXXXXXXXX...  XXXXXX     ........   ..XXX",
"     ........   ...XXXXXXXXXXXXX...  XXXXXX     ........   ..XXX",
"...XXXXXXXXXX...XXXXXXXXXXXXXXXXXXX..XXXXXX..XXXXXXXXXXX...XXXXX",
"...XXXXXXXXXX...XXXXXXXXXXXXXXXXXXX..XXXXXX..XXXXXXXXXXX...XXXXX",
"oooooooooooooXXXoooooooooooooooooooooXXXXXXoooooooooooooXXXooooo",
"oooooooooooooXXXoooooooooooooooooooooXXXXXXoooooooooooooXXXooooo",
"oooooooooooooXXXoooooooooooooooooooooXXXXXXoooooooooooooXXXooooo",
"oooooooooooooXXXoooooooooooooooooooooXXXooooooooooooooooXXXooooo",
"oooooooooooooXXXoooooooooooooooooooooXXXooooooooooooooooXXXooooo",
"oooooooooooooXXXoooooooooooooooooooooXXXooooooooooooooooXXXooooo",
"oooooooooooooXXXoooooooooooooooooooooXXXooooooooooooooooXXXooooo",
"oooooooooooooXXXoooooooooooooooooooooXXXooooooooooooooooXXXooooo",
"oooooooooooooXXXoooooooooooooooooooooXXXooooooooooooooooXXXooooo",
"oooooooooooooXXXoooooooooooooooooooooXXXooooooooooooooooXXXooooo",
"oooooooooooooXXXoooooooooooooooooooooXXXooooooooooooooooXXXooooo",
"oooooooooooXX...oooooooooooooooooooXXXXXoooooooooooooXXX...ooooo",
"oooooooooooXX...oooooooooooooooooooXXXXXoooooooooooooXXX...ooooo",
"oooooooooooXX...oooooooooooooooooooXXXXXoooooooooooooXXX...ooooo",
"XXXXXXXXXXX.....XXXoooooooooooooXXX.....XXXXXXXXXXXXX......XXXXX",
"XXXXXXXXXXX.....XXXoooooooooooooXXX.....XXXXXXXXXXXXX......XXXXX",
".....XXXooooooooXXX.....XXXXXXXXXXXXXoooooo.....XXXXXXXX...XX...",
".....XXXooooooooXXX.....XXXXXXXXXXXXXoooooo.....XXXXXXXX...XX...",
".....XXXooooooooXXX.....XXXXXXXXXXXXXoooooo.....XXXXXXXX...XX...",
"XXX..XXXooooooooXXX..XXXoooooooooooooooooooXXoooooooooooXXXooooo",
"XXX..XXXooooooooXXX..XXXoooooooooooooooooooXXoooooooooooXXXooooo",
"XXX..XXXooooooooXXX..XXXoooooooooooooooooooXXoooooooooooXXXooooo",
"XXX..XXXXXXXXXXX...XXooooooooooooooooXXXXXXoooooooooooooXXXooooo",
"XXX..XXXXXXXXXXX...XXooooooooooooooooXXXXXXoooooooooooooXXXooooo",
"...XXoooooooooooXXXooooooooooooooooooXXXooooooooooooooooXXXooooo",
"...XXoooooooooooXXXooooooooooooooooooXXXooooooooooooooooXXXooooo",
"...XXoooooooooooXXXooooooooooooooooooXXXooooooooooooooooXXXooooo",
"XXXoooooooooooooXXXooooooooooooooooooXXXooooooooooooooooXXXooooo",
"XXXoooooooooooooXXXooooooooooooooooooXXXooooooooooooooooXXXooooo",
"XXXoooooooooooooXXXooooooooooooooooooXXXooooooooooooooooXXXooooo",
"XXXoooooooooooooXXXooooooooooooooooooXXXooooooooooooooooXXXooooo",
"XXXoooooooooooooXXXooooooooooooooooooXXXooooooooooooooooXXXooooo",
"XXXooooooooooooo...XXooooooooooooooooXXXoooooooooooooXXX...ooooo",
"XXXooooooooooooo...XXooooooooooooooooXXXoooooooooooooXXX...ooooo",
"XXXooooooooooooo...XXooooooooooooooooXXXoooooooooooooXXX...ooooo",
"...XXooooooooXXX...XXXXXXXXXXXXX...XX...XXXXXXXXXXXXX......XXooo",
"...XXooooooooXXX...XXXXXXXXXXXXX...XX...XXXXXXXXXXXXX......XXooo",
"...XXooooooooXXX...XXXXXXXXXXXXX...XX...XXXXXXXXXXXXX......XXooo",
".....XXXXXXXX...XXXoooooooooooooXXX..XXXXXX.....XXXooooooooXX...",
".....XXXXXXXX...XXXoooooooooooooXXX..XXXXXX.....XXXooooooooXX...",
"XXXooooooooooXXXoooooooooooooooooooXXooooooXX...XXXooooooooXX...",
"XXXooooooooooXXXoooooooooooooooooooXXooooooXX...XXXooooooooXX...",
"XXXooooooooooXXXoooooooooooooooooooXXooooooXX...XXXooooooooXX...",
"oooooooooooooXXXoooooooooooooooooooooooooooXX...XXXXXXXXXXX..XXX",
"oooooooooooooXXXoooooooooooooooooooooooooooXX...XXXXXXXXXXX..XXX",
"oooooooooooooXXXoooooooooooooooooooooooooooXX...XXXXXXXXXXX..XXX",
"oooooooooooooXXXooooooooooooooooooooooooooo..XXXoooooooooooXXooo",
"oooooooooooooXXXooooooooooooooooooooooooooo..XXXoooooooooooXXooo",
"oooooooooooooXXXoooooooooooooooooooooooooooXXooooooooooooooXXooo",
"oooooooooooooXXXoooooooooooooooooooooooooooXXooooooooooooooXXooo",
"oooooooooooooXXXoooooooooooooooooooooooooooXXooooooooooooooXXooo",
"oooooooooooooXXXooooooooooooooooooooooooXXXXXooooooooooooooXXooo",
"oooooooooooooXXXooooooooooooooooooooooooXXXXXooooooooooooooXXooo",
"oooooooooooooXXXooooooooooooooooooooooooXXXXXooooooooooooooXXooo",
"oooooooooooXX...oooooooooooooooooooXXooo...XXoooooooooooooo..XXX",
"oooooooooooXX...oooooooooooooooooooXXooo...XXoooooooooooooo..XXX",
"XXXXXXXXXXX.....XXXoooooooooooooXXX..XXXXXX..XXXooooooooXXX..XXX",
"XXXXXXXXXXX.....XXXoooooooooooooXXX..XXXXXX..XXXooooooooXXX..XXX",
"XXXXXXXXXXX.....XXXoooooooooooooXXX..XXXXXX..XXXooooooooXXX..XXX"
};
