/* XPM */
static char *result[] = {
/* columns rows colors chars-per-pixel */
"64 64 9 1 ",
"  c gray9",
". c #432E27",
"X c #6A4834",
"o c #882E2E",
"O c #C43C3C",
"+ c #65659B",
"@ c #BFA787",
"# c #E8D4B2",
"$ c None",
/* pixels */
"$$$$$$$$$$$$$$$$$$$$$$$$$$$$$$$$$$$$$$$$$$$$$$$$$$$$$$$$$$$$$$$$",
"$$$$$$$$$$$$$$$$$$$$$$$$$$$$$$$$$$$$$$$$$$$$$$$$$$$$$$$$$$$$$$$$",
"$$$$$$$$$$$$$$$$$$$$$$$$$$$$$$$$$$$$$$$$$$$$$$$$$$$$$$$$$$$$$$$$",
"$$$$$$$$$$$$$$$$$$$$$$$$$$.....$$$$$$$$$$$$$$$$$$$$$$$$$$$$$$$$$",
"$$$$$$$$$$$$$$$$$$$$$$$$$$.....$$$$$$$$$$$$$$$$$$$$$$$$$$$$$$$$$",
"$$$$$$$$$$$$$$$$$$$$$$$$$$.....$$$$$$$$$$$$$$$$$$$$$$$$$$$$$$$$$",
"$$$$$$$$$$$$$$$$$$$$$$$...XXXXX......$$$$$$$$$$$$$$$$$$$$$$$$$$$",
"$$$$$$$$$$$$$$$$$$$$$$$...XXXXX......$$$$$$$$$$$$$$$$$$$$$$$$$$$",
"$$$$$$$$$$$$$$$$$$$$$$$...XXXXX......$$$$$$$$$$$$$$$$$$$$$$$$$$$",
"$$$$$$$$$$$$$$$$$......XXXXXX..   XXX......$$$$$$$$$$$$$$$$$$$$$",
"$$$$$$$$$$$$$$$$$......XXXXXX..   XXX......$$$$$$$$$$$$$$$$$$$$$",
"$$$$$$$$$$$$$$$$$......XXXXXX..   XXX......$$$$$$$$$$$$$$$$$$$$$",
"$$$$$$$$$$$$$$...XXXXXXXXXXXXXX......XXXXXX...$$$$$$$$$$$$$$$$$$",
"$$$$$$$$$$$$$$...XXXXXXXXXXXXXX......XXXXXX...$$$$$$$$$$$$$$$$$$",
"$$$$$$$$$$$$$$...XXXXXXXXXXXXXX......XXXXXX...$$$$$$$$$$$$$$$$$$",
"$$$$$$$$$$$$$$.........XXXXXXXX      ...XXX...$$$$$$$$$$$$$$$$$$",
"$$$$$$$$$$$$$$.........XXXXXXXX      ...XXX...$$$$$$$$$$$$$$$$$$",
"$$$$$$$$$$$   ...@@@@@@        ......XXXXXX...   $$$$$$$$$$$$$$$",
"$$$$$$$$$$$   ...@@@@@@        ......XXXXXX...   $$$$$$$$$$$$$$$",
"$$$$$$$$$$$   ...@@@@@@        ......XXXXXX...   $$$$$$$$$$$$$$$",
"$$$$$$$$$$$   @@@#########@@@@@...XXXXXX......   $$$$$$$$$$$$$$$",
"$$$$$$$$$$$   @@@#########@@@@@...XXXXXX......   $$$$$$$$$$$$$$$",
"$$$$$$$$$$$   @@@#########@@@@@...XXXXXX......   $$$$$$$$$$$$$$$",
"$$$$$$$$$$$   #################......XXX......   $$$$$$$$$$$$$$$",
"$$$$$$$$$$$   #################......XXX......   $$$$$$$$$$$$$$$",
"$$$$$$$$$$$   #################......XXX......   $$$$$$$$$$$$$$$",
"$$$$$$$$$$$   #########   #####@@@............   $$$$$$$$$$$$$$$",
"$$$$$$$$$$$   #########   #####@@@............   $$$$$$$$$$$$$$$",
"$$$$$$$$$$$   #########   #####@@@............   $$$$$$$$$$$$$$$",
"$$$$$$$$$$$$$$   ######   #####@@@.........   $$$$$$$$$$$$$$$$$$",
"$$$$$$$$$$$$$$   ######   #####@@@.........   $$$$$$$$$$$$$$$$$$",
"$$$$$$$$$$$$$$   ######   #####@@@.........   $$$$$$$$$$$$$$$$$$",
"$$$$$$$$$$$$$$   ##############@@@......@@@   $$$$$$$$$$$$$$$$$$",
"$$$$$$$$$$$$$$   ##############@@@......@@@   $$$$$$$$$$$$$$$$$$",
"$$$$$$$$$$$$$$   ##############@@@......@@@   $$$$$$$$$$$$$$$$$$",
"$$$$$$$$$$$$$$$$$   #########@@@@@@@@@@@   $$$$$$$$$$$$$$$$$$$$$",
"$$$$$$$$$$$$$$$$$   #########@@@@@@@@@@@   $$$$$$$$$$$$$$$$$$$$$",
"$$$$$$$$$$$$$$$$$   #########@@@@@@@@@@@   $$$$$$$$$$$$$$$$$$$$$",
"$$$$$$$$$$$$$$$$$$$$      @@@OOooo      $$$$$$$$$$$$$$$$$$$$$$$$",
"$$$$$$$$$$$$$$$$$$$$      @@@OOooo      $$$$$$$$$$$$$$$$$$$$$$$$",
"$$$$$$$$$$$$$$$$$$$$      @@@OOooo      $$$$$$$$$$$$$$$$$$$$$$$$",
"$$$$$$$$$$$$$$$$$   ###@@@   OOOOOooo   $$$$$$$$$$$$$$$$$$$$$$$$",
"$$$$$$$$$$$$$$$$$   ###@@@   OOOOOooo   $$$$$$$$$$$$$$$$$$$$$$$$",
"$$$$$$$$$$$$$$$$$   ###@@@   OOOOOooo   $$$$$$$$$$$$$$$$$$$$$$$$",
"$$$$$$$$$$$$$$$$$   ######   OOOOOOOO      $$$$$$$$$$$$$$$$$$$$$",
"$$$$$$$$$$$$$$$$$   ######   OOOOOOOO      $$$$$$$$$$$$$$$$$$$$$",
"$$$$$$$$$$$$$$$$$   ######   OOOOOOOO      $$$$$$$$$$$$$$$$$$$$$",
"$$$$$$$$$$$$$$$$$$$$      ...........      $$$$$$$$$$$$$$$$$$$$$",
"$$$$$$$$$$$$$$$$$$$$      ...........      $$$$$$$$$$$$$$$$$$$$$",
"$$$$$$$$$$$$$$$$$$$$      ooooooooooo   $$$$$$$$$$$$$$$$$$$$$$$$",
"$$$$$$$$$$$$$$$$$$$$      ooooooooooo   $$$$$$$$$$$$$$$$$$$$$$$$",
"$$$$$$$$$$$$$$$$$$$$      ooooooooooo   $$$$$$$$$$$$$$$$$$$$$$$$",
"$$$$$$$$$$$$$$$$$   ......     ++++++...   $$$$$$$$$$$$$$$$$$$$$",
"$$$$$$$$$$$$$$$$$   ......     ++++++...   $$$$$$$$$$$$$$$$$$$$$",
"$$$$$$$$$$$$$$$$$   ......     ++++++...   $$$$$$$$$$$$$$$$$$$$$",
"$$$$$$$$$$$$$$$$$   ......        ......   $$$$$$$$$$$$$$$$$$$$$",
"$$$$$$$$$$$$$$$$$   ......        ......   $$$$$$$$$$$$$$$$$$$$$",
"$$$$$$$$$$$$$$$$$   ......        ......   $$$$$$$$$$$$$$$$$$$$$",
"$$$$$$$$$$$$$$$$$$$$      $$$$$$$$      $$$$$$$$$$$$$$$$$$$$$$$$",
"$$$$$$$$$$$$$$$$$$$$      $$$$$$$$      $$$$$$$$$$$$$$$$$$$$$$$$",
"$$$$$$$$$$$$$$$$$$$$      $$$$$$$$      $$$$$$$$$$$$$$$$$$$$$$$$",
"$$$$$$$$$$$$$$$$$$$$$$$$$$$$$$$$$$$$$$$$$$$$$$$$$$$$$$$$$$$$$$$$",
"$$$$$$$$$$$$$$$$$$$$$$$$$$$$$$$$$$$$$$$$$$$$$$$$$$$$$$$$$$$$$$$$",
"$$$$$$$$$$$$$$$$$$$$$$$$$$$$$$$$$$$$$$$$$$$$$$$$$$$$$$$$$$$$$$$$"
};
