/* XPM */
static char *result[] = {
/* columns rows colors chars-per-pixel */
"64 64 12 1 ",
"  c gray9",
". c #681C1C",
"X c #432E27",
"o c #6A4834",
"O c #882E2E",
"+ c #C43C3C",
"@ c #65659B",
"# c #5586B9",
"$ c #BFA787",
"% c #E8D4B2",
"& c #F8F8F8",
"* c None",
/* pixels */
"***********************************XXXXX************************",
"***********************************XXXXX************************",
"**********************XXXXXXXXXXXXXoooooXXXXXX  ****************",
"**********************XXXXXXXXXXXXXoooooXXXXXX  ****************",
"**********************XXXXXXXXXXXXXoooooXXXXXX  ****************",
"**********************XXXXXXXXXXXXXoooooXXXXXX  ****************",
"******************XXXXoooooooooooooXX   oooooooo     ***********",
"******************XXXXoooooooooooooXX   oooooooo     ***********",
"******************XXXXoooooooooooooXX   oooooooo     ***********",
"*************XXXXXooooooooooooooooooooooooooXX  ****************",
"*************XXXXXooooooooooooooooooooooooooXX  ****************",
"*************XXXXXooooXXXXXXXXXXXXXXXoooooooooXX     ***********",
"*************XXXXXooooXXXXXXXXXXXXXXXoooooooooXX     ***********",
"*************XXXXXooooXXXXXXXXXXXXXXXoooooooooXX     ***********",
"*************XXXXXooooXXXXXXXXXXXXXXXoooooooooXX     ***********",
"***********XXoooooXXXX$$$$$$$$$$$$$$$XXXXXXXXXXXXXXXX  *********",
"***********XXoooooXXXX$$$$$$$$$$$$$$$XXXXXXXXXXXXXXXX  *********",
"***********XXoooooXXXX$$$$$$$$$$$$$$$XXXXXXXXXXXXXXXX  *********",
"***********XXXXXXX$$$$%%%%%%%%%%%%%%%$$$$$$$XXXXXXXXX  *********",
"***********XXXXXXX$$$$%%%%%%%%%%%%%%%$$$$$$$XXXXXXXXX  *********",
"***********  XXXXX$$%%%%%%%%%%%%%%%%%%%%%%%%$$       ***********",
"***********  XXXXX$$%%%%%%%%%%%%%%%%%%%%%%%%$$       ***********",
"***********  XXXXX$$%%%%%%%%%%%%%%%%%%%%%%%%$$       ***********",
"***********  $$$$$%%%%    %%%%%%%%%%%   %%%%%%$$     ***********",
"***********  $$$$$%%%%    %%%%%%%%%%%   %%%%%%$$     ***********",
"***********  $$$$$%%%%    %%%%%%%%%%%   %%%%%%$$     ***********",
"*************     %%%%    %%%%%%%%%%%   %%%%%%  ****************",
"*************     %%%%    %%%%%%%%%%%   %%%%%%  ****************",
"*************     %%%%    %%%%%%%%%%%   %%%%%%  ****************",
"*************     $$%%%%%%%%%%%%%%%%%%%%%%%%$$  ****************",
"*************     $$%%%%%%%%%%%%%%%%%%%%%%%%$$  ****************",
"*************     $$%%%%%%%%%%%%%%%%%%%%%%%%$$  ****************",
"******************  $$%%%%%%%%%%%%%%%%%%$$$$  ******************",
"******************  $$%%%%%%%%%%%%%%%%%%$$$$  ******************",
"******************  $$%%%%%%%%%%%%%%%%%%$$$$  ******************",
"*************.....++++++++$$$%%%%%%$$+++++++++  ****************",
"*************.....++++++++$$$%%%%%%$$+++++++++  ****************",
"*************.....++++++++$$$%%%%%%$$+++++++++  ****************",
"*************.....++OO++++++++++++++++++OOOO++  ****************",
"*************.....++OO++++++++++++++++++OOOO++  ****************",
"*************.....++OO++++++++++++++++++OOOO++  ****************",
"***********  %%%%%$$  OOOO+++++++++++OOO    $$%%     ***********",
"***********  %%%%%$$  OOOO+++++++++++OOO    $$%%     ***********",
"***********  %%%%%$$  OOOO+++++++++++OOO    $$%%     ***********",
"***********  $$$$$$$  XXXXXXX&&&&&&XXXXX    $$$$     ***********",
"***********  $$$$$$$  XXXXXXX&&&&&&XXXXX    $$$$     ***********",
"*************         OOOOOOOOOOOOOOOOOO        ****************",
"*************         OOOOOOOOOOOOOOOOOO        ****************",
"*************         OOOOOOOOOOOOOOOOOO        ****************",
"********************  ####@@@      @@###    ********************",
"********************  ####@@@      @@###    ********************",
"********************  ####@@@      @@###    ********************",
"********************  ####@@@      @@###    ********************",
"********************  ooooooo      ooooo    ********************",
"********************  ooooooo      ooooo    ********************",
"**********************       ******     ************************",
"**********************       ******     ************************",
"**********************       ******     ************************",
"****************************************************************",
"****************************************************************",
"****************************************************************",
"****************************************************************",
"****************************************************************",
"****************************************************************"
};
