/* XPM */
static char *result[] = {
/* columns rows colors chars-per-pixel */
"64 64 11 1 ",
"  c gray9",
". c #432E27",
"X c #6A4834",
"o c #882E2E",
"O c #C43C3C",
"+ c #65659B",
"@ c #5586B9",
"# c #BFA787",
"$ c #E8D4B2",
"% c #F8F8F8",
"& c None",
/* pixels */
"&&&&&&&&&&&&&&&&&&&&&&&&&&&&&&&&&&&&&&&&&&&&&&&&&&&&&&&&&&&&&&&&",
"&&&&&&&&&&&&&&&&&&&&&&&&&&&&&&&&&&&&&&&&&&&&&&&&&&&&&&&&&&&&&&&&",
"&&&&&&&&&&&&&&&&&&&&&&&&&&&&&&&&&&&&&&&&&&&&&&&&&&&&&&&&&&&&&&&&",
"&&&&&&&&&&&&&&&&&&&&&&&&&&&&&&&&&&&...&&&&&&&&&&&&&&&&&&&&&&&&&&",
"&&&&&&&&&&&&&&&&&&&&&&&&&&&&&&&&&&&...&&&&&&&&&&&&&&&&&&&&&&&&&&",
"&&&&&&&&&&&&&&&&&&&&&&&&&&&&&&&&&&&...&&&&&&&&&&&&&&&&&&&&&&&&&&",
"&&&&&&&&&&&&&&&&&&&&&..............XXX   &&&&&&&&&&&&&&&&&&&&&&&",
"&&&&&&&&&&&&&&&&&&&&&..............XXX   &&&&&&&&&&&&&&&&&&&&&&&",
"&&&&&&&&&&&&&&&&&&&&&..............XXX   &&&&&&&&&&&&&&&&&&&&&&&",
"&&&&&&&&&&&&&&&......XXXXXXXXXXXXXX      &&&&&&&&&&&&&&&&&&&&&&&",
"&&&&&&&&&&&&&&&......XXXXXXXXXXXXXX      &&&&&&&&&&&&&&&&&&&&&&&",
"&&&&&&&&&&&&&&&......XXXXXXXXXXXXXX      &&&&&&&&&&&&&&&&&&&&&&&",
"&&&&&&&&&&&&...XXXXXXXXXXXXXXXXXXXXXXXXXX   &&&&&&&&&&&&&&&&&&&&",
"&&&&&&&&&&&&...XXXXXXXXXXXXXXXXXXXXXXXXXX   &&&&&&&&&&&&&&&&&&&&",
"&&&&&&&&&&&&...XXXXXXXXXXXXXXXXXXXXXXXXXX   &&&&&&&&&&&&&&&&&&&&",
"&&&&&&&&&&&&...XXXXXXXXXXXXXXXXX.........   &&&&&&&&&&&&&&&&&&&&",
"&&&&&&&&&&&&...XXXXXXXXXXXXXXXXX.........   &&&&&&&&&&&&&&&&&&&&",
"&&&&&&&&&...XXXXXXXXXXXXXXX.....#########...   &&&&&&&&&&&&&&&&&",
"&&&&&&&&&...XXXXXXXXXXXXXXX.....#########...   &&&&&&&&&&&&&&&&&",
"&&&&&&&&&...XXXXXXXXXXXXXXX.....#########...   &&&&&&&&&&&&&&&&&",
"&&&&&&&&&...XXXXXXXXXXXX...#####$$$$$$$$$###   &&&&&&&&&&&&&&&&&",
"&&&&&&&&&...XXXXXXXXXXXX...#####$$$$$$$$$###   &&&&&&&&&&&&&&&&&",
"&&&&&&&&&...XXXXXXXXXXXX...#####$$$$$$$$$###   &&&&&&&&&&&&&&&&&",
"&&&&&&&&&...XXXXXXXXX......$$$$$$$$$$$$$$$$$   &&&&&&&&&&&&&&&&&",
"&&&&&&&&&...XXXXXXXXX......$$$$$$$$$$$$$$$$$   &&&&&&&&&&&&&&&&&",
"&&&&&&&&&...XXXXXXXXX......$$$$$$$$$$$$$$$$$   &&&&&&&&&&&&&&&&&",
"&&&&&&&&&   ...XXXXXX...###$$$$$   $$$$$$$$$   &&&&&&&&&&&&&&&&&",
"&&&&&&&&&   ...XXXXXX...###$$$$$   $$$$$$$$$   &&&&&&&&&&&&&&&&&",
"&&&&&&&&&   ...XXXXXX...###$$$$$   $$$$$$$$$   &&&&&&&&&&&&&&&&&",
"&&&&&&&&&&&&   .........###$$$$$   $$$$$$   &&&&&&&&&&&&&&&&&&&&",
"&&&&&&&&&&&&   .........###$$$$$   $$$$$$   &&&&&&&&&&&&&&&&&&&&",
"&&&&&&&&&&&&   .........###$$$$$   $$$$$$   &&&&&&&&&&&&&&&&&&&&",
"&&&&&&&&&&&&   ###......###$$$$$$$$$$$$$$   &&&&&&&&&&&&&&&&&&&&",
"&&&&&&&&&&&&   ###......###$$$$$$$$$$$$$$   &&&&&&&&&&&&&&&&&&&&",
"&&&&&&&&&&&&   ###......###$$$$$$$$$$$$$$   &&&&&&&&&&&&&&&&&&&&",
"&&&&&&&&&&&&&&&   ###########$$$$$$$$$   &&&&&&&&&&&&&&&&&&&&&&&",
"&&&&&&&&&&&&&&&   ###########$$$$$$$$$   &&&&&&&&&&&&&&&&&&&&&&&",
"&&&&&&&&&&&&&&&   ###########$$$$$$$$$   &&&&&&&&&&&&&&&&&&&&&&&",
"&&&&&&&&&&&&&&&&&&      oooOO###      &&&&&&&&&&&&&&&&&&&&&&&&&&",
"&&&&&&&&&&&&&&&&&&      oooOO###      &&&&&&&&&&&&&&&&&&&&&&&&&&",
"&&&&&&&&&&&&&&&&&&      oooOO###      &&&&&&&&&&&&&&&&&&&&&&&&&&",
"&&&&&&&&&&&&&&&&&&      OOOOOOOOOOO      &&&&&&&&&&&&&&&&&&&&&&&",
"&&&&&&&&&&&&&&&&&&      OOOOOOOOOOO      &&&&&&&&&&&&&&&&&&&&&&&",
"&&&&&&&&&&&&&&&&&&      OOOOOOOOOOO      &&&&&&&&&&&&&&&&&&&&&&&",
"&&&&&&&&&&&&&&&   ###$$$   OOOOOOOO      &&&&&&&&&&&&&&&&&&&&&&&",
"&&&&&&&&&&&&&&&   ###$$$   OOOOOOOO      &&&&&&&&&&&&&&&&&&&&&&&",
"&&&&&&&&&&&&&&&   ###$$$   OOOOOOOO      &&&&&&&&&&&&&&&&&&&&&&&",
"&&&&&&&&&&&&&&&   $$$$$$   .....%%%   &&&&&&&&&&&&&&&&&&&&&&&&&&",
"&&&&&&&&&&&&&&&   $$$$$$   .....%%%   &&&&&&&&&&&&&&&&&&&&&&&&&&",
"&&&&&&&&&&&&&&&&&&      ooooooooooo@@@   &&&&&&&&&&&&&&&&&&&&&&&",
"&&&&&&&&&&&&&&&&&&      ooooooooooo@@@   &&&&&&&&&&&&&&&&&&&&&&&",
"&&&&&&&&&&&&&&&&&&      ooooooooooo@@@   &&&&&&&&&&&&&&&&&&&&&&&",
"&&&&&&&&&&&&&&&   ...++++++  ++++++XXXXXX   &&&&&&&&&&&&&&&&&&&&",
"&&&&&&&&&&&&&&&   ...++++++  ++++++XXXXXX   &&&&&&&&&&&&&&&&&&&&",
"&&&&&&&&&&&&&&&   ...++++++  ++++++XXXXXX   &&&&&&&&&&&&&&&&&&&&",
"&&&&&&&&&&&&&&&   ......        ...XXXXXX   &&&&&&&&&&&&&&&&&&&&",
"&&&&&&&&&&&&&&&   ......        ...XXXXXX   &&&&&&&&&&&&&&&&&&&&",
"&&&&&&&&&&&&&&&   ......        ...XXXXXX   &&&&&&&&&&&&&&&&&&&&",
"&&&&&&&&&&&&&&&&&&      &&&&&&&&         &&&&&&&&&&&&&&&&&&&&&&&",
"&&&&&&&&&&&&&&&&&&      &&&&&&&&         &&&&&&&&&&&&&&&&&&&&&&&",
"&&&&&&&&&&&&&&&&&&      &&&&&&&&         &&&&&&&&&&&&&&&&&&&&&&&",
"&&&&&&&&&&&&&&&&&&&&&&&&&&&&&&&&&&&&&&&&&&&&&&&&&&&&&&&&&&&&&&&&",
"&&&&&&&&&&&&&&&&&&&&&&&&&&&&&&&&&&&&&&&&&&&&&&&&&&&&&&&&&&&&&&&&",
"&&&&&&&&&&&&&&&&&&&&&&&&&&&&&&&&&&&&&&&&&&&&&&&&&&&&&&&&&&&&&&&&"
};
