/* XPM */
static char *result[] = {
/* columns rows colors chars-per-pixel */
"64 64 11 1 ",
"  c gray9",
". c #681C1C",
"X c #432E27",
"o c #6A4834",
"O c #882E2E",
"+ c #C43C3C",
"@ c #65659B",
"# c #5586B9",
"$ c #BFA787",
"% c #E8D4B2",
"& c None",
/* pixels */
"&&&&&&&&&&&&&&&&&&&&&&&&&&&&&&&&&&&&&&&&&&&&&&&&&&&&&&&&&&&&&&&&",
"&&&&&&&&&&&&&&&&&&&&&&&&&&&&&&&&&&&&&&&&&&&&&&&&&&&&&&&&&&&&&&&&",
"&&&&&&&&&&&&&&&&&&&&&&&&&&&&&&&&&&&&&&&&&&&&&&&&&&&&&&&&&&&&&&&&",
"&&&&&&&&&&&&&&&&&&&&&XXXXXX&&&&&&&&&&&&&&&&&&&&&&&&&&&&&&&&&&&&&",
"&&&&&&&&&&&&&&&&&&&&&XXXXXX&&&&&&&&&&&&&&&&&&&&&&&&&&&&&&&&&&&&&",
"&&&&&&&&&&&&&&&&&&&&&XXXXXX&&&&&&&&&&&&&&&&&&&&&&&&&&&&&&&&&&&&&",
"&&&&&&&&&&&&&XXXXXXXXoooooo     XXXXXX&&&&&&&&&&&&&&&&&&&&&&&&&&",
"&&&&&&&&&&&&&XXXXXXXXoooooo     XXXXXX&&&&&&&&&&&&&&&&&&&&&&&&&&",
"&&&&&&&&&&XXXoooooXXX      oooooooooooXXXXX&&&&&&&&&&&&&&&&&&&&&",
"&&&&&&&&&&XXXoooooXXX      oooooooooooXXXXX&&&&&&&&&&&&&&&&&&&&&",
"&&&&&&&&&&XXXoooooXXX      oooooooooooXXXXX&&&&&&&&&&&&&&&&&&&&&",
"&&&&&&&&&&&&&  XXXoooooooooooooooooooooooooXXX&&&&&&&&&&&&&&&&&&",
"&&&&&&&&&&&&&  XXXoooooooooooooooooooooooooXXX&&&&&&&&&&&&&&&&&&",
"&&&&&&&&&&&&&  XXXoooooooooooooooooooooooooXXX&&&&&&&&&&&&&&&&&&",
"&&&&&&&&&&XXXooooooooooooooooooooooooooooooXXX&&&&&&&&&&&&&&&&&&",
"&&&&&&&&&&XXXooooooooooooooooooooooooooooooXXX&&&&&&&&&&&&&&&&&&",
"&&&&&&&&&&XXXooooooooooooooooooooooooooooooXXX&&&&&&&&&&&&&&&&&&",
"&&&&&&&XXXoooooooooooooooooooooooooooooooooXXX   &&&&&&&&&&&&&&&",
"&&&&&&&XXXoooooooooooooooooooooooooooooooooXXX   &&&&&&&&&&&&&&&",
"&&&&&&&XXXXXXooooooooooooooooooooooooooooXXXXX   &&&&&&&&&&&&&&&",
"&&&&&&&XXXXXXooooooooooooooooooooooooooooXXXXX   &&&&&&&&&&&&&&&",
"&&&&&&&XXXXXXooooooooooooooooooooooooooooXXXXX   &&&&&&&&&&&&&&&",
"&&&&&&&&&&   XXooooooooooooooooooooooooooXXXXX   &&&&&&&&&&&&&&&",
"&&&&&&&&&&   XXooooooooooooooooooooooooooXXXXX   &&&&&&&&&&&&&&&",
"&&&&&&&&&&   XXooooooooooooooooooooooooooXXXXX   &&&&&&&&&&&&&&&",
"&&&&&&&&&&   XXXXXXXXooooooooooooooXXXXXXXXXXX   &&&&&&&&&&&&&&&",
"&&&&&&&&&&   XXXXXXXXooooooooooooooXXXXXXXXXXX   &&&&&&&&&&&&&&&",
"&&&&&&&&&&   XXXXXXXXooooooooooooooXXXXXXXXXXX   &&&&&&&&&&&&&&&",
"&&&&&&&&&&&&&  XXXXXXXXXXXXXXXXXXXXXXXXXXXX   &&&&&&&&&&&&&&&&&&",
"&&&&&&&&&&&&&  XXXXXXXXXXXXXXXXXXXXXXXXXXXX   &&&&&&&&&&&&&&&&&&",
"&&&&&&&&&&&&&  XXXXXXXXXXXXXXXXXXXXXXXXXXXX   &&&&&&&&&&&&&&&&&&",
"&&&&&&&&&&&&&  $$$XXXXXXXXXXXXXXXXXXXXXXX$$   &&&&&&&&&&&&&&&&&&",
"&&&&&&&&&&&&&  $$$XXXXXXXXXXXXXXXXXXXXXXX$$   &&&&&&&&&&&&&&&&&&",
"&&&&&&&&&&&&&&&   $$$%%%XXXXXXXXXXX%%%$$$  &&&&&&&&&&&&&&&&&&&&&",
"&&&&&&&&&&&&&&&   $$$%%%XXXXXXXXXXX%%%$$$  &&&&&&&&&&&&&&&&&&&&&",
"&&&&&&&&&&&&&&&   $$$%%%XXXXXXXXXXX%%%$$$  &&&&&&&&&&&&&&&&&&&&&",
"&&&&&&&&&&&&&..+++++++++$$$%%%%%$$$++++++++   &&&&&&&&&&&&&&&&&&",
"&&&&&&&&&&&&&..+++++++++$$$%%%%%$$$++++++++   &&&&&&&&&&&&&&&&&&",
"&&&&&&&&&&&&&..+++++++++$$$%%%%%$$$++++++++   &&&&&&&&&&&&&&&&&&",
"&&&&&&&&&&&&&  $$$   ++++++++++++++OOO+++++   &&&&&&&&&&&&&&&&&&",
"&&&&&&&&&&&&&  $$$   ++++++++++++++OOO+++++   &&&&&&&&&&&&&&&&&&",
"&&&&&&&&&&&&&  $$$   ++++++++++++++OOO+++++   &&&&&&&&&&&&&&&&&&",
"&&&&&&&&&&&&&&&      OOO+++++++++++   $$$%%   &&&&&&&&&&&&&&&&&&",
"&&&&&&&&&&&&&&&      OOO+++++++++++   $$$%%   &&&&&&&&&&&&&&&&&&",
"&&&&&&&&&&&&&&&      OOO+++++++++++   $$$%%   &&&&&&&&&&&&&&&&&&",
"&&&&&&&&&&&&&&&&&&   XXXXXXXXXXXXXX   $$$$$   &&&&&&&&&&&&&&&&&&",
"&&&&&&&&&&&&&&&&&&   XXXXXXXXXXXXXX   $$$$$   &&&&&&&&&&&&&&&&&&",
"&&&&&&&&&&&&&&&&&&   OOOOOOOOOOOOOOOOO     &&&&&&&&&&&&&&&&&&&&&",
"&&&&&&&&&&&&&&&&&&   OOOOOOOOOOOOOOOOO     &&&&&&&&&&&&&&&&&&&&&",
"&&&&&&&&&&&&&&&&&&   OOOOOOOOOOOOOOOOO     &&&&&&&&&&&&&&&&&&&&&",
"&&&&&&&&&&&&&&&&&&   ###@@@     XXXXXX   &&&&&&&&&&&&&&&&&&&&&&&",
"&&&&&&&&&&&&&&&&&&   ###@@@     XXXXXX   &&&&&&&&&&&&&&&&&&&&&&&",
"&&&&&&&&&&&&&&&&&&   ###@@@     XXXXXX   &&&&&&&&&&&&&&&&&&&&&&&",
"&&&&&&&&&&&&&&&&&&   oooooo  &&&      &&&&&&&&&&&&&&&&&&&&&&&&&&",
"&&&&&&&&&&&&&&&&&&   oooooo  &&&      &&&&&&&&&&&&&&&&&&&&&&&&&&",
"&&&&&&&&&&&&&&&&&&   oooooo  &&&      &&&&&&&&&&&&&&&&&&&&&&&&&&",
"&&&&&&&&&&&&&&&&&&&&&      &&&&&&&&&&&&&&&&&&&&&&&&&&&&&&&&&&&&&",
"&&&&&&&&&&&&&&&&&&&&&      &&&&&&&&&&&&&&&&&&&&&&&&&&&&&&&&&&&&&",
"&&&&&&&&&&&&&&&&&&&&&&&&&&&&&&&&&&&&&&&&&&&&&&&&&&&&&&&&&&&&&&&&",
"&&&&&&&&&&&&&&&&&&&&&&&&&&&&&&&&&&&&&&&&&&&&&&&&&&&&&&&&&&&&&&&&",
"&&&&&&&&&&&&&&&&&&&&&&&&&&&&&&&&&&&&&&&&&&&&&&&&&&&&&&&&&&&&&&&&",
"&&&&&&&&&&&&&&&&&&&&&&&&&&&&&&&&&&&&&&&&&&&&&&&&&&&&&&&&&&&&&&&&",
"&&&&&&&&&&&&&&&&&&&&&&&&&&&&&&&&&&&&&&&&&&&&&&&&&&&&&&&&&&&&&&&&",
"&&&&&&&&&&&&&&&&&&&&&&&&&&&&&&&&&&&&&&&&&&&&&&&&&&&&&&&&&&&&&&&&"
};
