/* XPM */
static char *result[] = {
/* columns rows colors chars-per-pixel */
"64 64 12 1 ",
"  c gray9",
". c #681C1C",
"X c #432E27",
"o c #6A4834",
"O c #882E2E",
"+ c #C43C3C",
"@ c #65659B",
"# c #5586B9",
"$ c #BFA787",
"% c #E8D4B2",
"& c #F8F8F8",
"* c None",
/* pixels */
"********************************XXXXXX**************************",
"********************************XXXXXX**************************",
"********************************XXXXXX**************************",
"*******************XXXXXXXXXXXXXooooooXXXXXX   *****************",
"*******************XXXXXXXXXXXXXooooooXXXXXX   *****************",
"*******************XXXXXXXXXXXXXooooooXXXXXX   *****************",
"*************XXXXXXoooooooooooooXXX   ooooooooo   **************",
"*************XXXXXXoooooooooooooXXX   ooooooooo   **************",
"*************XXXXXXoooooooooooooXXX   ooooooooo   **************",
"**********XXXooooooooooooooooooooooooooooXXX   *****************",
"**********XXXooooooooooooooooooooooooooooXXX   *****************",
"**********XXXooooooooooooooooooooooooooooXXX   *****************",
"**********XXXooooooXXXXXXXXXXXXXXXXoooooooooXXX   **************",
"**********XXXooooooXXXXXXXXXXXXXXXXoooooooooXXX   **************",
"**********XXXooooooXXXXXXXXXXXXXXXXoooooooooXXX   **************",
"*******XXXoooXXXXXX$$$$$$$$$$$$$$$$XXXXXXXXXXXXXXX   ***********",
"*******XXXoooXXXXXX$$$$$$$$$$$$$$$$XXXXXXXXXXXXXXX   ***********",
"*******XXXoooXXXXXX$$$$$$$$$$$$$$$$XXXXXXXXXXXXXXX   ***********",
"*******XXXXXX$$$$$$%%%%%%%%%%%%%%%%$$$$$$XXXXXXXXX   ***********",
"*******XXXXXX$$$$$$%%%%%%%%%%%%%%%%$$$$$$XXXXXXXXX   ***********",
"*******XXXXXX$$$$$$%%%%%%%%%%%%%%%%$$$$$$XXXXXXXXX   ***********",
"*******   XXX$$$%%%%%%%%%%%%%%%%%%%%%%%%%$$$      **************",
"*******   XXX$$$%%%%%%%%%%%%%%%%%%%%%%%%%$$$      **************",
"*******   XXX$$$%%%%%%%%%%%%%%%%%%%%%%%%%$$$      **************",
"*******   $$$%%%%%%   %%%%%%%%%%%%%   %%%%%%$$$   **************",
"*******   $$$%%%%%%   %%%%%%%%%%%%%   %%%%%%$$$   **************",
"*******   $$$%%%%%%   %%%%%%%%%%%%%   %%%%%%$$$   **************",
"**********   %%%%%%   %%%%%%%%%%%%%   %%%%%%   *****************",
"**********   %%%%%%   %%%%%%%%%%%%%   %%%%%%   *****************",
"**********   %%%%%%   %%%%%%%%%%%%%   %%%%%%   *****************",
"**********   $$$%%%%%%%%%%%%%%%%%%%%%%%%%$$$   *****************",
"**********   $$$%%%%%%%%%%%%%%%%%%%%%%%%%$$$   *****************",
"**********   $$$%%%%%%%%%%%%%%%%%%%%%%%%%$$$   *****************",
"**********   $$$%%%%%%%%%%%%%%%%%%%%%%%%%$$$   *****************",
"*************   $$$%%%%%%%%%%%%%%%%%%%$$$   ********************",
"*************   $$$%%%%%%%%%%%%%%%%%%%$$$   ********************",
"*************   $$$%%%%%%%%%%%%%%%%%%%$$$   ********************",
"**********...+++++++++$$$%%%%%%%$$$+++++++++   *****************",
"**********...+++++++++$$$%%%%%%%$$$+++++++++   *****************",
"**********...+++++++++$$$%%%%%%%$$$+++++++++   *****************",
"**********   $$$   ++++++++++++++++OOO++++++   *****************",
"**********   $$$   ++++++++++++++++OOO++++++   *****************",
"**********   $$$   ++++++++++++++++OOO++++++   *****************",
"*************      OOO+++++++++++++   $$$%%%   *****************",
"*************      OOO+++++++++++++   $$$%%%   *****************",
"*************      OOO+++++++++++++   $$$%%%   *****************",
"****************   XXXXXX&&&&&&&XXX   $$$$$$   *****************",
"****************   XXXXXX&&&&&&&XXX   $$$$$$   *****************",
"****************   XXXXXX&&&&&&&XXX   $$$$$$   *****************",
"****************   OOOOOOOOOOOOOOOOOOO      ********************",
"****************   OOOOOOOOOOOOOOOOOOO      ********************",
"****************   OOOOOOOOOOOOOOOOOOO      ********************",
"****************   ###@@@       XXXXXX   ***********************",
"****************   ###@@@       XXXXXX   ***********************",
"****************   ###@@@       XXXXXX   ***********************",
"****************   oooooo   ****      **************************",
"****************   oooooo   ****      **************************",
"****************   oooooo   ****      **************************",
"*******************      ***************************************",
"*******************      ***************************************",
"*******************      ***************************************",
"****************************************************************",
"****************************************************************",
"****************************************************************"
};
