/* XPM */
static char *result[] = {
/* columns rows colors chars-per-pixel */
"64 64 9 1 ",
"  c gray9",
". c #432E27",
"X c #6A4834",
"o c #882E2E",
"O c #C43C3C",
"+ c #65659B",
"@ c #BFA787",
"# c #E8D4B2",
"$ c None",
/* pixels */
"$$$$$$$$$$$$$$$$$$$$$$$$$$$$$$$$$$$$$$$$$$$$$$$$$$$$$$$$$$$$$$$$",
"$$$$$$$$$$$$$$$$$$$$$$$$$$$$$$$$$$$$$$$$$$$$$$$$$$$$$$$$$$$$$$$$",
"$$$$$$$$$$$$$$$$$$$$$$$$$$$$$$$$$$$$$$$$$$$$$$$$$$$$$$$$$$$$$$$$",
"$$$$$$$$$$$$$$$$$$$$$$$$$$$$$$$$$$...$$$$$$$$$$$$$$$$$$$$$$$$$$$",
"$$$$$$$$$$$$$$$$$$$$$$$$$$$$$$$$$$...$$$$$$$$$$$$$$$$$$$$$$$$$$$",
"$$$$$$$$$$$$$$$$$$$$$$$$$$$$$$$$$$...$$$$$$$$$$$$$$$$$$$$$$$$$$$",
"$$$$$$$$$$$$$$$$$$$$..............XXX   $$$$$$$$$$$$$$$$$$$$$$$$",
"$$$$$$$$$$$$$$$$$$$$..............XXX   $$$$$$$$$$$$$$$$$$$$$$$$",
"$$$$$$$$$$$$$$$$$$$$..............XXX   $$$$$$$$$$$$$$$$$$$$$$$$",
"$$$$$$$$$$$$$$......XXXXXXXXXXXXXX      $$$$$$$$$$$$$$$$$$$$$$$$",
"$$$$$$$$$$$$$$......XXXXXXXXXXXXXX      $$$$$$$$$$$$$$$$$$$$$$$$",
"$$$$$$$$$$$$$$......XXXXXXXXXXXXXX      $$$$$$$$$$$$$$$$$$$$$$$$",
"$$$$$$$$$$$...XXXXXXXXXXXXXXXXXXXXXXXXXX   $$$$$$$$$$$$$$$$$$$$$",
"$$$$$$$$$$$...XXXXXXXXXXXXXXXXXXXXXXXXXX   $$$$$$$$$$$$$$$$$$$$$",
"$$$$$$$$$$$...XXXXXXXXXXXXXXXXXXXXXXXXXX   $$$$$$$$$$$$$$$$$$$$$",
"$$$$$$$$$$$...XXXXXXXXXXXXXXXXX.........   $$$$$$$$$$$$$$$$$$$$$",
"$$$$$$$$$$$...XXXXXXXXXXXXXXXXX.........   $$$$$$$$$$$$$$$$$$$$$",
"$$$$$$$$...XXXXXXXXXXXXXXX.....@@@@@@@@@...   $$$$$$$$$$$$$$$$$$",
"$$$$$$$$...XXXXXXXXXXXXXXX.....@@@@@@@@@...   $$$$$$$$$$$$$$$$$$",
"$$$$$$$$...XXXXXXXXXXXXXXX.....@@@@@@@@@...   $$$$$$$$$$$$$$$$$$",
"$$$$$$$$...XXXXXXXXXXXX...@@@@@#########@@@   $$$$$$$$$$$$$$$$$$",
"$$$$$$$$...XXXXXXXXXXXX...@@@@@#########@@@   $$$$$$$$$$$$$$$$$$",
"$$$$$$$$...XXXXXXXXXXXX...@@@@@#########@@@   $$$$$$$$$$$$$$$$$$",
"$$$$$$$$...XXXXXXXXX......#################   $$$$$$$$$$$$$$$$$$",
"$$$$$$$$...XXXXXXXXX......#################   $$$$$$$$$$$$$$$$$$",
"$$$$$$$$...XXXXXXXXX......#################   $$$$$$$$$$$$$$$$$$",
"$$$$$$$$   ...XXXXXX...@@@#####   #########   $$$$$$$$$$$$$$$$$$",
"$$$$$$$$   ...XXXXXX...@@@#####   #########   $$$$$$$$$$$$$$$$$$",
"$$$$$$$$   ...XXXXXX...@@@#####   #########   $$$$$$$$$$$$$$$$$$",
"$$$$$$$$$$$   .........@@@#####   ######   $$$$$$$$$$$$$$$$$$$$$",
"$$$$$$$$$$$   .........@@@#####   ######   $$$$$$$$$$$$$$$$$$$$$",
"$$$$$$$$$$$   .........@@@#####   ######   $$$$$$$$$$$$$$$$$$$$$",
"$$$$$$$$$$$   @@@......@@@##############   $$$$$$$$$$$$$$$$$$$$$",
"$$$$$$$$$$$   @@@......@@@##############   $$$$$$$$$$$$$$$$$$$$$",
"$$$$$$$$$$$   @@@......@@@##############   $$$$$$$$$$$$$$$$$$$$$",
"$$$$$$$$$$$$$$   @@@@@@@@@@@#########   $$$$$$$$$$$$$$$$$$$$$$$$",
"$$$$$$$$$$$$$$   @@@@@@@@@@@#########   $$$$$$$$$$$$$$$$$$$$$$$$",
"$$$$$$$$$$$$$$   @@@@@@@@@@@#########   $$$$$$$$$$$$$$$$$$$$$$$$",
"$$$$$$$$$$$$$$$$$      oooOO@@@      $$$$$$$$$$$$$$$$$$$$$$$$$$$",
"$$$$$$$$$$$$$$$$$      oooOO@@@      $$$$$$$$$$$$$$$$$$$$$$$$$$$",
"$$$$$$$$$$$$$$$$$      oooOO@@@      $$$$$$$$$$$$$$$$$$$$$$$$$$$",
"$$$$$$$$$$$$$$$$$   oooOOOOO   @@@###   $$$$$$$$$$$$$$$$$$$$$$$$",
"$$$$$$$$$$$$$$$$$   oooOOOOO   @@@###   $$$$$$$$$$$$$$$$$$$$$$$$",
"$$$$$$$$$$$$$$$$$   oooOOOOO   @@@###   $$$$$$$$$$$$$$$$$$$$$$$$",
"$$$$$$$$$$$$$$      OOOOOOOO   ######   $$$$$$$$$$$$$$$$$$$$$$$$",
"$$$$$$$$$$$$$$      OOOOOOOO   ######   $$$$$$$$$$$$$$$$$$$$$$$$",
"$$$$$$$$$$$$$$      OOOOOOOO   ######   $$$$$$$$$$$$$$$$$$$$$$$$",
"$$$$$$$$$$$$$$      ...........      $$$$$$$$$$$$$$$$$$$$$$$$$$$",
"$$$$$$$$$$$$$$      ...........      $$$$$$$$$$$$$$$$$$$$$$$$$$$",
"$$$$$$$$$$$$$$$$$   ooooooooooo      $$$$$$$$$$$$$$$$$$$$$$$$$$$",
"$$$$$$$$$$$$$$$$$   ooooooooooo      $$$$$$$$$$$$$$$$$$$$$$$$$$$",
"$$$$$$$$$$$$$$$$$   ooooooooooo      $$$$$$$$$$$$$$$$$$$$$$$$$$$",
"$$$$$$$$$$$$$$   ...++++++     ......   $$$$$$$$$$$$$$$$$$$$$$$$",
"$$$$$$$$$$$$$$   ...++++++     ......   $$$$$$$$$$$$$$$$$$$$$$$$",
"$$$$$$$$$$$$$$   ...++++++     ......   $$$$$$$$$$$$$$$$$$$$$$$$",
"$$$$$$$$$$$$$$   ......        ......   $$$$$$$$$$$$$$$$$$$$$$$$",
"$$$$$$$$$$$$$$   ......        ......   $$$$$$$$$$$$$$$$$$$$$$$$",
"$$$$$$$$$$$$$$   ......        ......   $$$$$$$$$$$$$$$$$$$$$$$$",
"$$$$$$$$$$$$$$$$$      $$$$$$$$      $$$$$$$$$$$$$$$$$$$$$$$$$$$",
"$$$$$$$$$$$$$$$$$      $$$$$$$$      $$$$$$$$$$$$$$$$$$$$$$$$$$$",
"$$$$$$$$$$$$$$$$$      $$$$$$$$      $$$$$$$$$$$$$$$$$$$$$$$$$$$",
"$$$$$$$$$$$$$$$$$$$$$$$$$$$$$$$$$$$$$$$$$$$$$$$$$$$$$$$$$$$$$$$$",
"$$$$$$$$$$$$$$$$$$$$$$$$$$$$$$$$$$$$$$$$$$$$$$$$$$$$$$$$$$$$$$$$",
"$$$$$$$$$$$$$$$$$$$$$$$$$$$$$$$$$$$$$$$$$$$$$$$$$$$$$$$$$$$$$$$$"
};
