/* XPM */
static char *result[] = {
/* columns rows colors chars-per-pixel */
"64 64 11 1 ",
"  c gray9",
". c #432E27",
"X c #6A4834",
"o c #882E2E",
"O c #C43C3C",
"+ c #65659B",
"@ c #5586B9",
"# c #BFA787",
"$ c #E8D4B2",
"% c #F8F8F8",
"& c None",
/* pixels */
"&&&&&&&&&&&&&&&&&&&&&&&&&&.......&&&&&&&&&&&&&&&&&&&&&&&&&&&&&&&",
"&&&&&&&&&&&&&&&&&&&&&&&&&&.......&&&&&&&&&&&&&&&&&&&&&&&&&&&&&&&",
"&&&&&&&&&&&&&&&&&&&&&&&&&&.......&&&&&&&&&&&&&&&&&&&&&&&&&&&&&&&",
"&&&&&&&&&&&&&&&&&&&&&&&...XXXXXXX......&&&&&&&&&&&&&&&&&&&&&&&&&",
"&&&&&&&&&&&&&&&&&&&&&&&...XXXXXXX......&&&&&&&&&&&&&&&&&&&&&&&&&",
"&&&&&&&&&&&&&&&&&&&&&&&...XXXXXXX......&&&&&&&&&&&&&&&&&&&&&&&&&",
"&&&&&&&&&&&&&&&&&......XXXXXX....   XXX......&&&&&&&&&&&&&&&&&&&",
"&&&&&&&&&&&&&&&&&......XXXXXX....   XXX......&&&&&&&&&&&&&&&&&&&",
"&&&&&&&&&&&&&&&&&......XXXXXX....   XXX......&&&&&&&&&&&&&&&&&&&",
"&&&&&&&&&&&&&&...XXXXXXXXXXXXXXXX......XXXXXX...&&&&&&&&&&&&&&&&",
"&&&&&&&&&&&&&&...XXXXXXXXXXXXXXXX......XXXXXX...&&&&&&&&&&&&&&&&",
"&&&&&&&&&&&&&&...XXXXXXXXXXXXXXXX......XXXXXX...&&&&&&&&&&&&&&&&",
"&&&&&&&&&&&&&&.........XXXXXXXXXX      ...XXX...&&&&&&&&&&&&&&&&",
"&&&&&&&&&&&&&&.........XXXXXXXXXX      ...XXX...&&&&&&&&&&&&&&&&",
"&&&&&&&&&&&&&&.........XXXXXXXXXX      ...XXX...&&&&&&&&&&&&&&&&",
"&&&&&&&&&&&   ...######          ......XXXXXX...   &&&&&&&&&&&&&",
"&&&&&&&&&&&   ...######          ......XXXXXX...   &&&&&&&&&&&&&",
"&&&&&&&&&&&   ...######          ......XXXXXX...   &&&&&&&&&&&&&",
"&&&&&&&&&&&   ###$$$$$$$$$#######...XXXXXX......   &&&&&&&&&&&&&",
"&&&&&&&&&&&   ###$$$$$$$$$#######...XXXXXX......   &&&&&&&&&&&&&",
"&&&&&&&&&&&   ###$$$$$$$$$#######...XXXXXX......   &&&&&&&&&&&&&",
"&&&&&&&&&&&   $$$$$$$$$$$$$$$$$$$......XXX......   &&&&&&&&&&&&&",
"&&&&&&&&&&&   $$$$$$$$$$$$$$$$$$$......XXX......   &&&&&&&&&&&&&",
"&&&&&&&&&&&   $$$$$$$$$$$$$$$$$$$......XXX......   &&&&&&&&&&&&&",
"&&&&&&&&&&&   $$$$$$$$$   $$$$$$$###............   &&&&&&&&&&&&&",
"&&&&&&&&&&&   $$$$$$$$$   $$$$$$$###............   &&&&&&&&&&&&&",
"&&&&&&&&&&&   $$$$$$$$$   $$$$$$$###............   &&&&&&&&&&&&&",
"&&&&&&&&&&&&&&   $$$$$$   $$$$$$$###.........   &&&&&&&&&&&&&&&&",
"&&&&&&&&&&&&&&   $$$$$$   $$$$$$$###.........   &&&&&&&&&&&&&&&&",
"&&&&&&&&&&&&&&   $$$$$$   $$$$$$$###.........   &&&&&&&&&&&&&&&&",
"&&&&&&&&&&&&&&   $$$$$$$$$$$$$$$$###......###   &&&&&&&&&&&&&&&&",
"&&&&&&&&&&&&&&   $$$$$$$$$$$$$$$$###......###   &&&&&&&&&&&&&&&&",
"&&&&&&&&&&&&&&   $$$$$$$$$$$$$$$$###......###   &&&&&&&&&&&&&&&&",
"&&&&&&&&&&&&&&   $$$$$$$$$$$$$$$$###......###   &&&&&&&&&&&&&&&&",
"&&&&&&&&&&&&&&&&&   $$$$$$$$$#############   &&&&&&&&&&&&&&&&&&&",
"&&&&&&&&&&&&&&&&&   $$$$$$$$$#############   &&&&&&&&&&&&&&&&&&&",
"&&&&&&&&&&&&&&&&&   $$$$$$$$$#############   &&&&&&&&&&&&&&&&&&&",
"&&&&&&&&&&&&&&&&&&&&   ######ooooOOO      &&&&&&&&&&&&&&&&&&&&&&",
"&&&&&&&&&&&&&&&&&&&&   ######ooooOOO      &&&&&&&&&&&&&&&&&&&&&&",
"&&&&&&&&&&&&&&&&&&&&   ######ooooOOO      &&&&&&&&&&&&&&&&&&&&&&",
"&&&&&&&&&&&&&&&&&&&&   OOOOOOOOOO         &&&&&&&&&&&&&&&&&&&&&&",
"&&&&&&&&&&&&&&&&&&&&   OOOOOOOOOO         &&&&&&&&&&&&&&&&&&&&&&",
"&&&&&&&&&&&&&&&&&&&&   OOOOOOOOOO         &&&&&&&&&&&&&&&&&&&&&&",
"&&&&&&&&&&&&&&&&&&&&   OOOOOO    $$$###   &&&&&&&&&&&&&&&&&&&&&&",
"&&&&&&&&&&&&&&&&&&&&   OOOOOO    $$$###   &&&&&&&&&&&&&&&&&&&&&&",
"&&&&&&&&&&&&&&&&&&&&   OOOOOO    $$$###   &&&&&&&&&&&&&&&&&&&&&&",
"&&&&&&&&&&&&&&&&&&&&   %%%...    $$$$$$   &&&&&&&&&&&&&&&&&&&&&&",
"&&&&&&&&&&&&&&&&&&&&   %%%...    $$$$$$   &&&&&&&&&&&&&&&&&&&&&&",
"&&&&&&&&&&&&&&&&&&&&   %%%...    $$$$$$   &&&&&&&&&&&&&&&&&&&&&&",
"&&&&&&&&&&&&&&&&&   @@@oooooooooo         &&&&&&&&&&&&&&&&&&&&&&",
"&&&&&&&&&&&&&&&&&   @@@oooooooooo         &&&&&&&&&&&&&&&&&&&&&&",
"&&&&&&&&&&&&&&&&&   @@@oooooooooo         &&&&&&&&&&&&&&&&&&&&&&",
"&&&&&&&&&&&&&&   XXXXXX++++++    ++++++...   &&&&&&&&&&&&&&&&&&&",
"&&&&&&&&&&&&&&   XXXXXX++++++    ++++++...   &&&&&&&&&&&&&&&&&&&",
"&&&&&&&&&&&&&&   XXXXXX++++++    ++++++...   &&&&&&&&&&&&&&&&&&&",
"&&&&&&&&&&&&&&   XXXXXX...          ......   &&&&&&&&&&&&&&&&&&&",
"&&&&&&&&&&&&&&   XXXXXX...          ......   &&&&&&&&&&&&&&&&&&&",
"&&&&&&&&&&&&&&   XXXXXX...          ......   &&&&&&&&&&&&&&&&&&&",
"&&&&&&&&&&&&&&&&&         &&&&&&&&&&      &&&&&&&&&&&&&&&&&&&&&&",
"&&&&&&&&&&&&&&&&&         &&&&&&&&&&      &&&&&&&&&&&&&&&&&&&&&&",
"&&&&&&&&&&&&&&&&&         &&&&&&&&&&      &&&&&&&&&&&&&&&&&&&&&&",
"&&&&&&&&&&&&&&&&&&&&&&&&&&&&&&&&&&&&&&&&&&&&&&&&&&&&&&&&&&&&&&&&",
"&&&&&&&&&&&&&&&&&&&&&&&&&&&&&&&&&&&&&&&&&&&&&&&&&&&&&&&&&&&&&&&&",
"&&&&&&&&&&&&&&&&&&&&&&&&&&&&&&&&&&&&&&&&&&&&&&&&&&&&&&&&&&&&&&&&"
};
