/* XPM */
static char *result[] = {
/* columns rows colors chars-per-pixel */
"64 64 9 1 ",
"  c #1F1518",
". c #18372D",
"X c #332B2E",
"o c #1B4231",
"O c #225C39",
"+ c #4D4349",
"@ c #2C8B2A",
"# c #54AA35",
"$ c None",
/* pixels */
"ooo####################################@@@@@@@@@@@@@@@@@@@@@@@@@",
"ooo####################################@@@@@@@@@@@@@@@@@@@@@@@@@",
"ooo####################################@@@@@@@@@@@@@@@@@@@@@@@@@",
"ooo#######################################@@@@@######@@@#####@@@",
"ooo#######################################@@@@@######@@@#####@@@",
"ooo#######################################@@@@@######@@@#####@@@",
"ooo@@@@@#############################################@@@########",
"ooo@@@@@#############################################@@@########",
"ooo@@@##########################################################",
"ooo@@@##########################################################",
"ooo@@@##########################################################",
"ooo@@@##########################################################",
"ooo@@@##########################################################",
"ooo@@@##########################################################",
"ooo#############################################################",
"ooo#############################################################",
"ooo#############################################################",
"ooo#####@@@######################@@@#################@@@########",
"ooo#####@@@######################@@@#################@@@########",
"ooo@@@##@@@######@@######@@@#####@@@######@@@@@######@@@#####@@@",
"ooo@@@##@@@######@@######@@@#####@@@######@@@@@######@@@#####@@@",
"ooo@@@##@@@######@@######@@@#####@@@######@@@@@######@@@#####@@@",
"ooo@@@##@@@@@@@@@@@######@@@@@@@@@@@######@@@@@######@@@@@@@@@@@",
"ooo@@@##@@@@@@@@@@@######@@@@@@@@@@@######@@@@@######@@@@@@@@@@@",
"ooo@@@##@@@@@@@@@@@######@@@@@@@@@@@######@@@@@######@@@@@@@@@@@",
"ooo@@@@@@@@OOOOOO@@######@@@OOOOO@@@@@@@@@OOOOO@@@@@@@@@OOOOO@@@",
"ooo@@@@@@@@OOOOOO@@######@@@OOOOO@@@@@@@@@OOOOO@@@@@@@@@OOOOO@@@",
"ooo@@@@@@@@OOOOOO@@######@@@OOOOO@@@@@@@@@OOOOO@@@@@@@@@OOOOO@@@",
"ooo@@@@@OOO@@@@@@@@@@@@@@@@@OOO@@OOO@@@@@@OOOOO@@@@@@OOO@@@@@@@@",
"ooo@@@@@OOO@@@@@@@@@@@@@@@@@OOO@@OOO@@@@@@OOOOO@@@@@@OOO@@@@@@@@",
"ooo@@@@@OOO@@@@@@@@@@@@@@@@@OOO@@OOO@@@@@@OOOOO@@@@@@OOO@@@@@@@@",
"oooOOOOOOOO@@@@@@OO@@@@@@OOOOOO@@@@@OOOOOO@@@@@OOOOOOOOO@@@@@OOO",
"oooOOOOOOOO@@@@@@OO@@@@@@OOOOOO@@@@@OOOOOO@@@@@OOOOOOOOO@@@@@OOO",
"oooOOOOOOOOOOOOOOOOOOOOOOOOOOOO@@@@@OOOOOO@@@@@OOOOOOOOOOOOOOOOO",
"oooOOOOOOOOOOOOOOOOOOOOOOOOOOOO@@@@@OOOOOO@@@@@OOOOOOOOOOOOOOOOO",
"oooOOOOOOOOOOOOOOOOOOOOOOOOOOOO@@@@@OOOOOO@@@@@OOOOOOOOOOOOOOOOO",
"oooOOOOOOOOOOOOOOOOOOOOOOOOOOOOOOOOOOOOOOOOOOOOOOOOOOOOOOOOOOOOO",
"oooOOOOOOOOOOOOOOOOOOOOOOOOOOOOOOOOOOOOOOOOOOOOOOOOOOOOOOOOOOOOO",
"oooOOOOOOOOOOOOOOOOOOOOOOOOOOOOOOOOOOOOOOOOOOOOOOOOOOOOOOOOOOOOO",
"...OOOOOOOOOOOOOOOOOOOOOOOOOOOOOOOOOOOOOOOOOOOOOOOOOOOOOOOOOOOOO",
"...OOOOOOOOOOOOOOOOOOOOOOOOOOOOOOOOOOOOOOOOOOOOOOOOOOOOOOOOOOOOO",
"...OOOOOOOOOOOOOOOOOOOOOOOOOOOOOOOOOOOOOOOOOOOOOOOOOOOOOOOOOOOOO",
"...OOOOO.........OOOOOOOOOOO........OOOOOO.....OOOOOO........OOO",
"...OOOOO.........OOOOOOOOOOO........OOOOOO.....OOOOOO........OOO",
"...OOOOO.........OOOOOOOOOOO........OOOOOO.....OOOOOO........OOO",
"$$$.....XXXXXXXXX...........XXXXXXXX......XXXXX......XXXXXXXX...",
"$$$.....XXXXXXXXX...........XXXXXXXX......XXXXX......XXXXXXXX...",
"$$$XXXXX   XXX+++XXXXXXXXXXX++++++++XXXXXXXXXXXXXXXXX   XX+++XXX",
"$$$XXXXX   XXX+++XXXXXXXXXXX++++++++XXXXXXXXXXXXXXXXX   XX+++XXX",
"$$$XXXXX   XXX+++XXXXXXXXXXX++++++++XXXXXXXXXXXXXXXXX   XX+++XXX",
"$$$XXX++++++++++++++++XXX+++++++++++++++++++++++++++++++++++++++",
"$$$XXX++++++++++++++++XXX+++++++++++++++++++++++++++++++++++++++",
"$$$XXX++++++++++++++++XXX+++++++++++++++++++++++++++++++++++++++",
"$$$XXX++++++++++++++++   XXXXXX+++++++++++++++++++++++++++++++++",
"$$$XXX++++++++++++++++   XXXXXX+++++++++++++++++++++++++++++++++",
"$$$XXX++++++++++++++++   XXXXXX+++++++++++++++++++++++++++++++++",
"$$$XXX+++++++++++++XXX+++++++++XX+++++++++++++++++++++++++++++++",
"$$$XXX+++++++++++++XXX+++++++++XX+++++++++++++++++++++++++++++++",
"$$$$$$  +++++++++XX++++++++++++XX++++++++++++++++++++++++++++XXX",
"$$$$$$  +++++++++XX++++++++++++XX++++++++++++++++++++++++++++XXX",
"$$$$$$  +++++++++XX++++++++++++XX++++++++++++++++++++++++++++XXX",
"$$$$$$$$                                                        ",
"$$$$$$$$                                                        ",
"$$$$$$$$                                                        "
};
