/* XPM */
static char *result[] = {
/* columns rows colors chars-per-pixel */
"64 64 8 1 ",
"  c #1F1518",
". c #18372D",
"X c #332B2E",
"o c #225C39",
"O c #4D4349",
"+ c #2C8B2A",
"@ c #54AA35",
"# c None",
/* pixels */
"####oooooooooooooooooooooooooooooooooooooooooooooooooooooooooooo",
"####oooooooooooooooooooooooooooooooooooooooooooooooooooooooooooo",
"####oooooooooooooooooooooooooooooooooooooooooooooooooooooooooooo",
"##oo++++++++++++++@@@@@+++++++++++++++++++++++++++++++++++++@@@@",
"##oo++++++++++++++@@@@@+++++++++++++++++++++++++++++++++++++@@@@",
"oo++++++++@@@@@+++@@@@@+++@@@@@+++@@@@@+++++@@@@@@++@@@@@@++@@@@",
"oo++++++++@@@@@+++@@@@@+++@@@@@+++@@@@@+++++@@@@@@++@@@@@@++@@@@",
"oo++++++++@@@@@+++@@@@@+++@@@@@+++@@@@@+++++@@@@@@++@@@@@@++@@@@",
"oo++@@@@@@@@@@@@@@@@@@@@@@@@@@@+++@@@@@@@@@@@@@@@@++@@@@@@@@@@@@",
"oo++@@@@@@@@@@@@@@@@@@@@@@@@@@@+++@@@@@@@@@@@@@@@@++@@@@@@@@@@@@",
"oo++@@@@@@@@@@@@@@@@@@@@@@@@@@@+++@@@@@@@@@@@@@@@@++@@@@@@@@@@@@",
"oo++@@@@@@@@@@@@@@@@@@@@@@@@@@@@@@@@@@@@@@@@@@@@@@@@@@@@@@@@@@@@",
"oo++@@@@@@@@@@@@@@@@@@@@@@@@@@@@@@@@@@@@@@@@@@@@@@@@@@@@@@@@@@@@",
"oo++@@@@@@@@@@@@@@@@@@@@@@@@@@@@@@@@@@@@@@@@@@@@@@@@@@@@@@@@@@@@",
"oo++@@@@@@@@@@@@@@@@@@@@@@@@@@@@@@@@@@@@@@@@@@@@@@@@@@@@@@@@@@@@",
"oo++@@@@@@@@@@@@@@@@@@@@@@@@@@@@@@@@@@@@@@@@@@@@@@@@@@@@@@@@@@@@",
"oo++@@@@@@@@@@@@@@@@@@@@@@@@@@@@@@@@@@@@@@@@@@@@@@@@@@@@@@@@@@@@",
"oo++@@@@@@@@@@@@@@@@@@@@@@@@@@@@@@@@@@@@@@@@@@@@@@@@@@@@@@@@@@@@",
"oo++@@@@@@@@@@@@@@@@@@@@@@@@@@@@@@@@@@@@@@@@@@@@@@@@@@@@@@@@@@@@",
"oo++@@@@@@@@@@@@@@@@@@@@@@@@@@@+++@@@@@@@@@@@@@@@@++@@@@@@@@@@@@",
"oo++@@@@@@@@@@@@@@@@@@@@@@@@@@@+++@@@@@@@@@@@@@@@@++@@@@@@@@@@@@",
"oo++@@@+++@@@@@+++@@@@@+++@@@@@+++@@@@@+++++@@@@@@++@@@@@@++@@@@",
"oo++@@@+++@@@@@+++@@@@@+++@@@@@+++@@@@@+++++@@@@@@++@@@@@@++@@@@",
"oo++@@@+++@@@@@+++@@@@@+++@@@@@+++@@@@@+++++@@@@@@++@@@@@@++@@@@",
"oo++++++++++++++++@@@@@+++++++++++@@@@@+++++@@@@@@++++++++++@@@@",
"oo++++++++++++++++@@@@@+++++++++++@@@@@+++++@@@@@@++++++++++@@@@",
"oo++++++++++++++++@@@@@+++++++++++@@@@@+++++@@@@@@++++++++++@@@@",
"oo++++++++ooooo+++@@@@@+++ooooo++++++++ooooo++++++++oooooo++@@@@",
"oo++++++++ooooo+++@@@@@+++ooooo++++++++ooooo++++++++oooooo++@@@@",
"oo+++++ooo++++++++++++++++oo+++ooo+++++ooooo++++++oo++++++++++++",
"oo+++++ooo++++++++++++++++oo+++ooo+++++ooooo++++++oo++++++++++++",
"oo+++++ooo++++++++++++++++oo+++ooo+++++ooooo++++++oo++++++++++++",
"..oooooooo+++++ooo+++++ooooo++++++ooooo+++++oooooooo++++++oo++++",
"..oooooooo+++++ooo+++++ooooo++++++ooooo+++++oooooooo++++++oo++++",
"..oooooooo+++++ooo+++++ooooo++++++ooooo+++++oooooooo++++++oo++++",
"..oooooooooooooooooooooooooo++++++ooooo+++++oooooooooooooooooooo",
"..oooooooooooooooooooooooooo++++++ooooo+++++oooooooooooooooooooo",
"..oooooooooooooooooooooooooooooooooooooooooooooooooooooooooooooo",
"..oooooooooooooooooooooooooooooooooooooooooooooooooooooooooooooo",
"..oooooooooooooooooooooooooooooooooooooooooooooooooooooooooooooo",
"..oooooooooooooooooooooooooooooooooooooooooooooooooooooooooooooo",
"..oooooooooooooooooooooooooooooooooooooooooooooooooooooooooooooo",
"..oooooooooooooooooooooooooooooooooooooooooooooooooooooooooooooo",
"....ooo........ooooooooooo........ooooo.....oooooo........oooooo",
"....ooo........ooooooooooo........ooooo.....oooooo........oooooo",
"##.....XXXXXXXX...........XXXXXXXX.....XXXXX......XXXXXXXX......",
"##.....XXXXXXXX...........XXXXXXXX.....XXXXX......XXXXXXXX......",
"##.....XXXXXXXX...........XXXXXXXX.....XXXXX......XXXXXXXX......",
"##  XXX   XXOOOXXXXXXXXXXXOOOOOOOOXXXXXXXXXXXXXXXX  XXXOOOXXXXXX",
"##  XXX   XXOOOXXXXXXXXXXXOOOOOOOOXXXXXXXXXXXXXXXX  XXXOOOXXXXXX",
"##  XXX   XXOOOXXXXXXXXXXXOOOOOOOOXXXXXXXXXXXXXXXX  XXXOOOXXXXXX",
"##  OOOOOOOOOOOOOOOOXXXOOOOOOOOOOOOOOOOOOOOOOOOOOOOOOOOOOOOOOOOO",
"##  OOOOOOOOOOOOOOOOXXXOOOOOOOOOOOOOOOOOOOOOOOOOOOOOOOOOOOOOOOOO",
"##  OOOOOOOOOOOOOOOOXXXOOOOOOOOOOOOOOOOOOOOOOOOOOOOOOOOOOOOOOOOO",
"##  OOOOOOOOOOOOOOOOXXXOOOOOOOOOOOOOOOOOOOOOOOOOOOOOOOOOOOOOOOOO",
"##  OOOOOOOOOOOOOOOOXXXOOOOOOOOOOOOOOOOOOOOOOOOOOOOOOOOOOOOOOOOO",
"##  OOOOOOOOOOOOOOOOXXXOOOOOOOOOOOOOOOOOOOOOOOOOOOOOOOOOOOOOOOOO",
"##  OOOOOOOOOOOOOOOOXXXOOOOOOOOOOOOOOOOOOOOOOOOOOOOOOOOOOOOOOOOO",
"##  OOOOOOOOOOOOOOOOXXXOOOOOOOOOOOOOOOOOOOOOOOOOOOOOOOOOOOOOOOOO",
"##  OOOOOOOOOOOXXXXXXXXXXXOOOOOOOOOOOOOOOOOOOOOOOOOOOOOOOOXXXXXX",
"##  OOOOOOOOOOOXXXXXXXXXXXOOOOOOOOOOOOOOOOOOOOOOOOOOOOOOOOXXXXXX",
"####                                                            ",
"####                                                            ",
"####                                                            "
};
