/* XPM */
static char *result[] = {
/* columns rows colors chars-per-pixel */
"64 64 16 1 ",
"  c #1F1518",
". c #18372D",
"X c #332B2E",
"o c #1B4231",
"O c #225C39",
"+ c #4D4349",
"@ c #2C8B2A",
"# c #3F982F",
"$ c #4BA232",
"% c #4EA433",
"& c #50A634",
"* c #51A734",
"= c #51A834",
"- c #53A935",
"; c #54AA35",
": c None",
/* pixels */
";;;;;*=;;&$&*-;;;;;;;;;;;;;;;;;;;;;;;;;;;;;;;@@;;;@@@@@@@@OOOooo",
";;;;;;;;;;;;;;;;;;;;;;;;;;;;;;;;;;;;;;;;;;;;;@@;;;@@@@@@@@OOOooo",
";;;;;;;;;;;;;;;;;;;;;;--;;;;;;;;;;;;;;;;;;;;;@@;;;@@@@@@@@OOOooo",
";;;;;;;;;;;;;;;;;;;;;;;;;;;;;;;;;;;;;;;;;;;;;;;;;;@@@@@@@@OOOooo",
";;;;;;;;;;;;;;;;;;;;;;;;;;;;;;;;;;;;;;;;;;;;;;;;;;@@@@@@@@OOOooo",
"#%-;;;;;;;;;;;;;;;;;;;;;;;;;;;;;;;;;;;;;;;;;;;;;;;@@@@@@@@OOOooo",
";;;;;;;;;;;;;;;;;;;;;;;;;;;;;;;;;;;;;;;;;;;;;@@@@@@@@OOOOOOOOooo",
";;;;;;;;;;;;;;;;;;;;;;;;;;;;;;;;;;;;;;;;;;;;;@@@@@@@@OOOOOOOOooo",
";;;;;;;;;;;;;;;;;;;;;;;;;;;;;;;;;;;;;;;;;;;;;;;;;;@@@@@@OOOOOooo",
";;;;;;;;;;;;;;;;;;;;;;;;;;;;;;;;;;;;;;;;;;;;;;;;;;@@@@@@OOOOOooo",
";;;;;;;;;;;;;;;;;;;;;;;;;;;;;;;;;;;;;;;;;;;;;;;;;;@@@@@@OOOOOooo",
";;;;;;;;;;;;;;;;;;;;;;;;;;;;;;;;;;;;;;;;;;;;;;;;;;@@@@@@OOOOOooo",
";;;;;;;;;;;;;;;;;;;;;;;;;;;;;;;;;;;;;;;;;;;;;;;;;;@@@@@@OOOOOooo",
";;;;;;;;;;;;;;;;;;;;;;;;;;;;;;;;;;;;;;;;;;;;;;;;;;@@@@@@OOOOOooo",
";;;;;;;;;;;;;;;;;;;;;;;;;;;;;;;;;;;;;;;;;;;;;@@@@@@@@@@@@@OOOooo",
";;;;;;;;;;;;;;;;;;;;;;;;;;;;;;;;;;;;;;;;;;;;;@@@@@@@@@@@@@OOOooo",
";;;;;;;;;;;;;;;;;;;;;;;;;;;;;;;;;;;;;;;;;;;;;@@@@@@@@@@@@@OOOooo",
";;;;;;;;@@@;;;;;;;;;;;;;;;;;@@@;;;;;;;;;;;;;;;;;;;;;;@@@@@OOOooo",
";;;;;;;;@@@;;;;;;;;;;;;;;;;;@@@;;;;;;;;;;;;;;;;;;;;;;@@@@@OOOooo",
"@@@;;;;;@@@;;;;;;@@@@@;;;;;;@@@;;;;;@@@;;;;;;@@@@@;;;@@@@@OOOooo",
"@@@;;;;;@@@;;;;;;@@@@@;;;;;;@@@;;;;;@@@;;;;;;@@@@@;;;@@@@@OOOooo",
"@@@;;;;;@@@;;;;;;@@@@@;;;;;;@@@;;;;;@@@;;;;;;@@@@@;;;@@@@@OOOooo",
"@@@@@@@@@@@;;;;;;@@@@@;;;;;;@@@@@@@@@@@;;;;;;@@@@@@@@OOOOOOOOooo",
"@@@@@@@@@@@;;;;;;@@@@@;;;;;;@@@@@@@@@@@;;;;;;@@@@@@@@OOOOOOOOooo",
"@@@@@@@@@@@;;;;;;@@@@@;;;;;;@@@@@@@@@@@;;;;;;@@@@@@@@OOOOOOOOooo",
"@@@OOOOO@@@@@@@@@OOOOO@@@@@@@@@OOOOO@@@@@@@@@@@@@@@@@@@@OOOOOooo",
"@@@OOOOO@@@@@@@@@OOOOO@@@@@@@@@OOOOO@@@@@@@@@@@@@@@@@@@@OOOOOooo",
"@@@OOOOO@@@@@@@@@OOOOO@@@@@@@@@OOOOO@@@@@@@@@@@@@@@@@@@@OOOOOooo",
"@@@OOO@@OOO@@@@@@OOOOO@@@@@@OOO@@@@@@@@OOO@@@@@OOO@@@@@@OOOOOooo",
"@@@OOO@@OOO@@@@@@OOOOO@@@@@@OOO@@@@@@@@OOO@@@@@OOO@@@@@@OOOOOooo",
"@@@OOO@@OOO@@@@@@OOOOO@@@@@@OOO@@@@@@@@OOO@@@@@OOO@@@@@@OOOOOooo",
"OOOOOO@@@@@OOOOOO@@@@@OOOOOOOOO@@@@@OOOOOOOOOOOOOO@@@@@@OOOOOooo",
"OOOOOO@@@@@OOOOOO@@@@@OOOOOOOOO@@@@@OOOOOOOOOOOOOO@@@@@@OOOOOooo",
"OOOOOO@@@@@OOOOOO@@@@@OOOOOOOOOOOOOOOOOOOOOOOOOOOOOOOOOOOOOOOooo",
"OOOOOO@@@@@OOOOOO@@@@@OOOOOOOOOOOOOOOOOOOOOOOOOOOOOOOOOOOOOOOooo",
"OOOOOO@@@@@OOOOOO@@@@@OOOOOOOOOOOOOOOOOOOOOOOOOOOOOOOOOOOOOOOooo",
"OOOOOOOOOOOOOOOOOOOOOOOOOOOOOOOOOOOOOOOOOOOOOOOOOOOOOOOOOOOOOooo",
"OOOOOOOOOOOOOOOOOOOOOOOOOOOOOOOOOOOOOOOOOOOOOOOOOOOOOOOOOOOOOooo",
"OOOOOOOOOOOOOOOOOOOOOOOOOOOOOOOOOOOOOOOOOOOOOOOOOOOOOOOOOOOOOooo",
"OOOOOOOOOOOOOOOOOOOOOOOOOOOOOOOOOOOOOOOOOOOOOOOOOOOOOOOOOOOOOooo",
"OOOOOOOOOOOOOOOOOOOOOOOOOOOOOOOOOOOOOOOOOOOOOOOOOOOOOOOOOOOOOooo",
"OOOOOOOOOOOOOOOOOOOOOOOOOOOOOOOOOOOOOOOOOOOOOOOOOOOOOOOOOOOOOooo",
"OOO........OOOOOO.....OOOOOO........OOOOOOOOOOO.........OOOOOooo",
"OOO........OOOOOO.....OOOOOO........OOOOOOOOOOO.........OOOOOooo",
"OOO........OOOOOO.....OOOOOO........OOOOOOOOOOO.........OOOOOooo",
"...XXXXXXXX......XXXXX......XXXXXXXX...........XXXXXXXXX.....OOO",
"...XXXXXXXX......XXXXX......XXXXXXXX...........XXXXXXXXX.....OOO",
"XXX++++++++++++++++++++++XXX   XX+++++++++XXXXX+++++++++XX   OOO",
"XXX++++++++++++++++++++++XXX   XX+++++++++XXXXX+++++++++XX   OOO",
"XXX++++++++++++++++++++++XXX   XX+++++++++XXXXX+++++++++XX   OOO",
"++++++++++++++++++++++++++++++++++++++++++XXX+++++++++++XX   OOO",
"++++++++++++++++++++++++++++++++++++++++++XXX+++++++++++XX   OOO",
"++++++++++++++++++++++++++++++++++++++++++XXX+++++++++++XX   OOO",
"XXXXXX++++++++++++++++++++++++++++++++++++   XXXXX++++++XX   OOO",
"XXXXXX++++++++++++++++++++++++++++++++++++   XXXXX++++++XX   OOO",
"XXXXXX++++++++++++++++++++++++++++++++++++   XXXXX++++++XX   OOO",
"++++++XX+++++++++++++++++++++++++++++++XXX++++++++XXX+++XX   :::",
"++++++XX+++++++++++++++++++++++++++++++XXX++++++++XXX+++XX   :::",
"++++++XX++++++++++++++++++++++++++++XXX+++++++++++XXXXXX  ::::::",
"++++++XX++++++++++++++++++++++++++++XXX+++++++++++XXXXXX  ::::::",
"++++++XX++++++++++++++++++++++++++++XXX+++++++++++XXXXXX  ::::::",
"                                                        ::::::::",
"                                                        ::::::::",
"                                                        ::::::::"
};
