/* XPM */
static char *result[] = {
/* columns rows colors chars-per-pixel */
"64 64 6 1 ",
"  c #302639",
". c #2D5B3F",
"X c #29973B",
"o c #2ECA35",
"O c #62EB3D",
"+ c None",
/* pixels */
"++++++++++++++++++++++++++++++++++++++++++++++++++++++++++++++++",
"++++++++++++++++++++++++++++++++++++++++++++++++++++++++++++++++",
"++++++++++++++++++++++++++++++++++++++++++++++++++++++++++++++++",
"++++++++++++++++++++++++++++++++++++++++++++++++++++++++++++++++",
"++++++++++++++++++++++++........++++........++++++++++++++++++++",
"++++++++++++++++++++++++........++++........++++++++++++++++++++",
"++++++++++++++++++++++++........++++........++++++++++++++++++++",
"++++++++++++++++++++++++........++++........++++++++++++++++++++",
"++++++++++++++++........XXXXXXXX....XXXXXXXX....++++++++++++++++",
"++++++++++++++++........XXXXXXXX....XXXXXXXX....++++++++++++++++",
"++++++++++++++++........XXXXXXXX....XXXXXXXX....++++++++++++++++",
"++++++++++++++++........XXXXXXXX....XXXXXXXX....++++++++++++++++",
"++++++++++++....XXXXooooOOOOooooXXXXooooooooXXXX....++++++++++++",
"++++++++++++....XXXXooooOOOOooooXXXXooooooooXXXX....++++++++++++",
"++++++++++++....XXXXooooOOOOooooXXXXooooooooXXXX....++++++++++++",
"++++++++++++....XXXXooooOOOOooooXXXXooooooooXXXX....++++++++++++",
"++++++++....XXXXooooooooooooooooooooooooOOOOooooXXXX    ++++++++",
"++++++++....XXXXooooooooooooooooooooooooOOOOooooXXXX    ++++++++",
"++++++++....XXXXooooooooooooooooooooooooOOOOooooXXXX    ++++++++",
"++++++++....XXXXooooooooooooooooooooooooOOOOooooXXXX    ++++++++",
"++++++++....ooooOOOOooooooooooooooooooooooooooooXXXX    ++++++++",
"++++++++....ooooOOOOooooooooooooooooooooooooooooXXXX    ++++++++",
"++++++++....ooooOOOOooooooooooooooooooooooooooooXXXX    ++++++++",
"++++++++....ooooOOOOooooooooooooooooooooooooooooXXXX    ++++++++",
"++++....XXXXXXXXooooooooooooooooooooooooooooooooooooXXXX    ++++",
"++++....XXXXXXXXooooooooooooooooooooooooooooooooooooXXXX    ++++",
"++++....XXXXXXXXooooooooooooooooooooooooooooooooooooXXXX    ++++",
"++++....XXXXXXXXooooooooooooooooooooooooooooooooooooXXXX    ++++",
"++++....XXXXooooOOOOOOOOooooooooooooooooXXXXooooOOOOoooo    ++++",
"++++....XXXXooooOOOOOOOOooooooooooooooooXXXXooooOOOOoooo    ++++",
"++++....XXXXooooOOOOOOOOooooooooooooooooXXXXooooOOOOoooo    ++++",
"++++....XXXXooooOOOOOOOOooooooooooooooooXXXXooooOOOOoooo    ++++",
"++++....XXXXooooOOOOOOOOooooXXXXooooOOOOooooXXXXooooXXXX    ++++",
"++++....XXXXooooOOOOOOOOooooXXXXooooOOOOooooXXXXooooXXXX    ++++",
"++++....XXXXooooOOOOOOOOooooXXXXooooOOOOooooXXXXooooXXXX    ++++",
"++++....XXXXooooOOOOOOOOooooXXXXooooOOOOooooXXXXooooXXXX    ++++",
"++++    ....XXXXooooooooXXXXXXXXooooooooooooXXXXXXXX....    ++++",
"++++    ....XXXXooooooooXXXXXXXXooooooooooooXXXXXXXX....    ++++",
"++++    ....XXXXooooooooXXXXXXXXooooooooooooXXXXXXXX....    ++++",
"++++    ....XXXXooooooooXXXXXXXXooooooooooooXXXXXXXX....    ++++",
"++++    ........XXXXXXXXXXXX....XXXXXXXX....XXXX....        ++++",
"++++    ........XXXXXXXXXXXX....XXXXXXXX....XXXX....        ++++",
"++++    ........XXXXXXXXXXXX....XXXXXXXX....XXXX....        ++++",
"++++    ........XXXXXXXXXXXX....XXXXXXXX....XXXX....        ++++",
"++++++++        ........    XXXXXXXX....    ........    ++++++++",
"++++++++        ........    XXXXXXXX....    ........    ++++++++",
"++++++++        ........    XXXXXXXX....    ........    ++++++++",
"++++++++        ........    XXXXXXXX....    ........    ++++++++",
"++++++++                ....................            ++++++++",
"++++++++                ....................            ++++++++",
"++++++++                ....................            ++++++++",
"++++++++                ....................            ++++++++",
"++++++++++++                ....                    ++++++++++++",
"++++++++++++                ....                    ++++++++++++",
"++++++++++++                ....                    ++++++++++++",
"++++++++++++                ....                    ++++++++++++",
"++++++++++++++++++++                        ++++++++++++++++++++",
"++++++++++++++++++++                        ++++++++++++++++++++",
"++++++++++++++++++++                        ++++++++++++++++++++",
"++++++++++++++++++++                        ++++++++++++++++++++",
"++++++++++++++++++++++++++++++++++++++++++++++++++++++++++++++++",
"++++++++++++++++++++++++++++++++++++++++++++++++++++++++++++++++",
"++++++++++++++++++++++++++++++++++++++++++++++++++++++++++++++++",
"++++++++++++++++++++++++++++++++++++++++++++++++++++++++++++++++"
};
