/* XPM */
static char *result[] = {
/* columns rows colors chars-per-pixel */
"64 64 8 1 ",
"  c #1F1518",
". c #18372D",
"X c #332B2E",
"o c #1B4231",
"O c #225C39",
"+ c #2C8B2A",
"@ c #54AA35",
"# c None",
/* pixels */
"#####OOOOOOOOOOOOOOOOOOOOOOOOOOOOOOOOOOOOOOOOOOOOOOOOOOOOOOOOOOO",
"#####OOOOOOOOOOOOOOOOOOOOOOOOOOOOOOOOOOOOOOOOOOOOOOOOOOOOOOOOOOO",
"#####OOOOOOOOOOOOOOOOOOOOOOOOOOOOOOOOOOOOOOOOOOOOOOOOOOOOOOOOOOO",
"###OO++++++++++++++++++++++++++++++++++++++++++++++++++++++++@@@",
"###OO++++++++++++++++++++++++++++++++++++++++++++++++++++++++@@@",
"ooo++@@@@@@@@@@@@@@@@@@@@@@@@+++@@@@@++++++++@@@@@@++@@@@@@++@@@",
"ooo++@@@@@@@@@@@@@@@@@@@@@@@@+++@@@@@++++++++@@@@@@++@@@@@@++@@@",
"ooo++@@@@@@@@@@@@@@@@@@@@@@@@+++@@@@@++++++++@@@@@@++@@@@@@++@@@",
"ooo+++++@@@@@@@@@@@@@@@@@@@@@@@@@@@@@@@@@@@@@@@@@@@++@@@@@@@@@@@",
"ooo+++++@@@@@@@@@@@@@@@@@@@@@@@@@@@@@@@@@@@@@@@@@@@++@@@@@@@@@@@",
"ooo+++++@@@@@@@@@@@@@@@@@@@@@@@@@@@@@@@@@@@@@@@@@@@++@@@@@@@@@@@",
"ooo@@@@@@@@@@@@@@@@@@@@@@@@@@@@@@@@@@@@@@@@@@@@@@@@@@@@@@@@@@@@@",
"ooo@@@@@@@@@@@@@@@@@@@@@@@@@@@@@@@@@@@@@@@@@@@@@@@@@@@@@@@@@@@@@",
"ooo@@@@@@@@@@@@@@@@@@@@@@@@@@@@@@@@@@@@@@@@@@@@@@@@@@@@@@@@@@@@@",
"ooo@@@@@@@@@@@@@@@@@@@@@@@@@@@@@@@@@@@@@@@@@@@@@@@@@@@@@@@@@@@@@",
"ooo@@@@@@@@@@@@@@@@@@@@@@@@@@@@@@@@@@@@@@@@@@@@@@@@@@@@@@@@@@@@@",
"ooo+++++@@@@@@@@@@@@@@@@@@@@@@@@@@@@@@@@@@@@@@@@@@@@@@@@@@@@@@@@",
"ooo+++++@@@@@@@@@@@@@@@@@@@@@@@@@@@@@@@@@@@@@@@@@@@@@@@@@@@@@@@@",
"ooo+++++@@@@@@@@@@@@@@@@@@@@@@@@@@@@@@@@@@@@@@@@@@@@@@@@@@@@@@@@",
"ooo++@@@@@@@@@@@@@@@@@@@@@@@@@@@@@@@@@@@@@@@@@@@++++++++@@@@@@@@",
"ooo++@@@@@@@@@@@@@@@@@@@@@@@@@@@@@@@@@@@@@@@@@@@++++++++@@@@@@@@",
"ooo++@@@@@@@@@@@@@@@@@@@@@@@@@@@@@@@@@@@+++++@@@@@@++++++++++@@@",
"ooo++@@@@@@@@@@@@@@@@@@@@@@@@@@@@@@@@@@@+++++@@@@@@++++++++++@@@",
"ooo++@@@@@@@@@@@@@@@@@@@@@@@@@@@@@@@@@@@+++++@@@@@@++++++++++@@@",
"ooo+++++@@@@@@@@@@@@@@@@@@@@@@@@@@@@@@@@+++++@@@@@@+++++OOO++@@@",
"ooo+++++@@@@@@@@@@@@@@@@@@@@@@@@@@@@@@@@+++++@@@@@@+++++OOO++@@@",
"ooo+++++@@@@@@@@@@@@@@@@@@@@@@@@@@@@@@@@+++++@@@@@@+++++OOO++@@@",
"ooo@@@@@@@@@@@@@@@@@@@@@@@@@@@@@@@@@@@@@@@@@@@@@++++++++OOOOO+++",
"ooo@@@@@@@@@@@@@@@@@@@@@@@@@@@@@@@@@@@@@@@@@@@@@++++++++OOOOO+++",
"ooo@@@@@@@@@@@@@@@@@@@@@@@@@@@@@@@@@@@@@@@@@@++++++OOOOOOOOOO+++",
"ooo@@@@@@@@@@@@@@@@@@@@@@@@@@@@@@@@@@@@@@@@@@++++++OOOOOOOOOO+++",
"ooo@@@@@@@@@@@@@@@@@@@@@@@@@@@@@@@@@@@@@@@@@@++++++OOOOOOOOOO+++",
"ooo+++++@@@@@@@@@@@@@@@@@@@@@@@@@@@@@++++++++++++++++OOOOOO++OOO",
"ooo+++++@@@@@@@@@@@@@@@@@@@@@@@@@@@@@++++++++++++++++OOOOOO++OOO",
"ooo+++++@@@@@@@@@@@@@@@@@@@@@@@@@@@@@++++++++++++++++OOOOOO++OOO",
"ooo++@@@@@@@@@@@@@@@@@@@@@@@@@@@@@@@@+++@@@@@++++++OOOOOOOOOOOOO",
"ooo++@@@@@@@@@@@@@@@@@@@@@@@@@@@@@@@@+++@@@@@++++++OOOOOOOOOOOOO",
"ooo++@@@@@@@@@@@@@@@@@@@@@@@@@@@@@@@@@@@@@@@@@@@+++++OOOOOOOOOOO",
"ooo++@@@@@@@@@@@@@@@@@@@@@@@@@@@@@@@@@@@@@@@@@@@+++++OOOOOOOOOOO",
"ooo++@@@@@@@@@@@@@@@@@@@@@@@@@@@@@@@@@@@@@@@@@@@+++++OOOOOOOOOOO",
"ooo+++++@@@@@@@@@@@@@@@@@@@@@@@@@@@@@@@@++++++++OOOOOOOOOOOOOOOO",
"ooo+++++@@@@@@@@@@@@@@@@@@@@@@@@@@@@@@@@++++++++OOOOOOOOOOOOOOOO",
"ooo+++++@@@@@@@@@@@@@@@@@@@@@@@@@@@@@@@@++++++++OOOOOOOOOOOOOOOO",
"ooo+++++@@@@@@@@@@@@@@@@@@@@@@@@@@@@@@@@+++++++++++++OOOOOO..OOO",
"ooo+++++@@@@@@@@@@@@@@@@@@@@@@@@@@@@@@@@+++++++++++++OOOOOO..OOO",
"ooo++@@@@@@@@@@@@@@@@@@@@@@@@@@@@@@@@@@@+++@@++++++++OOO...XX...",
"ooo++@@@@@@@@@@@@@@@@@@@@@@@@@@@@@@@@@@@+++@@++++++++OOO...XX...",
"ooo++@@@@@@@@@@@@@@@@@@@@@@@@@@@@@@@@@@@+++@@++++++++OOO...XX...",
"ooo++@@@@@@@@@@@@@@@@@@@@@@@@@@@@@@@@@@@@@@@@++++++++OOO...XXXXX",
"ooo++@@@@@@@@@@@@@@@@@@@@@@@@@@@@@@@@@@@@@@@@++++++++OOO...XXXXX",
"ooo++@@@@@@@@@@@@@@@@@@@@@@@@@@@@@@@@@@@@@@@@++++++++OOO...XXXXX",
"ooo+++++@@@@@@@@@@@@@@@@@@@@@@@@@@@@@@@@++++++++OOOOOOOO...XXXXX",
"ooo+++++@@@@@@@@@@@@@@@@@@@@@@@@@@@@@@@@++++++++OOOOOOOO...XXXXX",
"ooo@@@@@@@@@@@@@@@@@@@@@@@@@@@@@@@@@@@@@@@@@@++++++OOOOO...XXXXX",
"ooo@@@@@@@@@@@@@@@@@@@@@@@@@@@@@@@@@@@@@@@@@@++++++OOOOO...XXXXX",
"ooo@@@@@@@@@@@@@@@@@@@@@@@@@@@@@@@@@@@@@@@@@@++++++OOOOO...XXXXX",
"ooo@@@@@@@@@@@@@@@@@@@@@@@@@@@@@@@@@@@@@@@@@@++++++OOOOO...  XXX",
"ooo@@@@@@@@@@@@@@@@@@@@@@@@@@@@@@@@@@@@@@@@@@++++++OOOOO...  XXX",
"ooo@@@@@@@@@@@@@@@@@@@@@@@@@@@@@@@@@@@@@@@@@@++++++OOOOO...  XXX",
"ooo+++++@@@@@@@@@@@@@@@@@@@@@@@@@@@@@@@@+++++++++++++OOO...  XXX",
"ooo+++++@@@@@@@@@@@@@@@@@@@@@@@@@@@@@@@@+++++++++++++OOO...  XXX",
"ooo++@@@@@@@@@@@@@@@@@@@@@@@@@@@@@@@@@@@@@@@@@@@+++++OOO...     ",
"ooo++@@@@@@@@@@@@@@@@@@@@@@@@@@@@@@@@@@@@@@@@@@@+++++OOO...     ",
"ooo++@@@@@@@@@@@@@@@@@@@@@@@@@@@@@@@@@@@@@@@@@@@+++++OOO...     "
};
