/* XPM */
static char *result[] = {
/* columns rows colors chars-per-pixel */
"64 64 9 1 ",
"  c #1F1518",
". c #18372D",
"X c #332B2E",
"o c #1B4231",
"O c #225C39",
"+ c #4D4349",
"@ c #2C8B2A",
"# c #54AA35",
"$ c None",
/* pixels */
"OOOOOOOOOOOOOOOOOOOOOOOOOOOOOOOOOOOOOOOOOOOOOOOOOOOOOoooooo$$$$$",
"OOOOOOOOOOOOOOOOOOOOOOOOOOOOOOOOOOOOOOOOOOOOOOOOOOOOOoooooo$$$$$",
"OOOOOOOOOOOOOOOOOOOOOOOOOOOOOOOOOOOOOOOOOOOOOOOOOOOOOoooooo$$$$$",
"###@@@@@@@@@@@@@@@@@@@@@@@@@@@@@@@@@@@@@#####@@@@@@@@@@@OOOoo$$$",
"###@@@@@@@@@@@@@@@@@@@@@@@@@@@@@@@@@@@@@#####@@@@@@@@@@@OOOoo$$$",
"###@@######@@######@@@@@#####@@@#####@@@#####@@@#####@@@OOOOOooo",
"###@@######@@######@@@@@#####@@@#####@@@#####@@@#####@@@OOOOOooo",
"###@@######@@######@@@@@#####@@@#####@@@#####@@@#####@@@OOOOOooo",
"###########@@################@@@#####################@@@@@@OOooo",
"###########@@################@@@#####################@@@@@@OOooo",
"###########@@################@@@#####################@@@@@@OOooo",
"###################################################@@@@@@@@OOooo",
"###################################################@@@@@@@@OOooo",
"###################################################@@@@@@@@OOooo",
"###################################################@@@@@@@@OOooo",
"###################################################@@@@@@@@OOooo",
"#####################################################@@@OOOOOooo",
"#####################################################@@@OOOOOooo",
"#####################################################@@@OOOOOooo",
"#####################################################@@@OOOOOooo",
"#####################################################@@@OOOOOooo",
"###@@OOO@@@##################################@@@@@@@@@@@@@@OOooo",
"###@@OOO@@@##################################@@@@@@@@@@@@@@OOooo",
"###@@OOO@@@##################################@@@@@@@@@@@@@@OOooo",
"###@@OOO@@@@@################################@@@@@@@@OOOOOOOOooo",
"###@@OOO@@@@@################################@@@@@@@@OOOOOOOOooo",
"###@@OOO@@@@@################################@@@@@@@@OOOOOOOOooo",
"@@@OO@@@###########################################@@@@@OOOOOooo",
"@@@OO@@@###########################################@@@@@OOOOOooo",
"@@@OO@@@###########################################@@@@@OOOOOooo",
"@@@OO@@@###########################################@@@@@OOOOOooo",
"@@@OO@@@###########################################@@@@@OOOOOooo",
"OOO@@OOO@@@@@##############################@@@@@@@@@@@@@@@@OOooo",
"OOO@@OOO@@@@@##############################@@@@@@@@@@@@@@@@OOooo",
"OOO@@OOO@@@@@##############################@@@@@@@@@@@@@@@@OOooo",
"OOO@@OOO@@@################################@@######@@@@@@@@OOooo",
"OOO@@OOO@@@################################@@######@@@@@@@@OOooo",
"OOOOOOOO@@@##########################################@@@@@@OOooo",
"OOOOOOOO@@@##########################################@@@@@@OOooo",
"OOOOOOOO@@@##########################################@@@@@@OOooo",
"OOOOOOOO@@@@@################################@@@@@@@@OOOOOOOOooo",
"OOOOOOOO@@@@@################################@@@@@@@@OOOOOOOOooo",
"OOOOOOOO@@@@@################################@@@@@@@@OOOOOOOOooo",
"OOO..OOO@@@@@################################@@@@@@@@@@@@@@OOooo",
"OOO..OOO@@@@@################################@@@@@@@@@@@@@@OOooo",
"...XXOOO@@@##################################@@@###@@@@@@@@OOooo",
"...XXOOO@@@##################################@@@###@@@@@@@@OOooo",
"...XXOOO@@@##################################@@@###@@@@@@@@OOooo",
"XXXXXOOO@@@########################################@@@@@@@@OOooo",
"XXXXXOOO@@@########################################@@@@@@@@OOooo",
"XXXXXOOO@@@########################################@@@@@@@@OOooo",
"+++XXOOO@@@@@################################@@@@@@@@OOOOOOOOooo",
"+++XXOOO@@@@@################################@@@@@@@@OOOOOOOOooo",
"+++XX@@@###########################################@@@@@OOOOOooo",
"+++XX@@@###########################################@@@@@OOOOOooo",
"+++XX@@@###########################################@@@@@OOOOOooo",
"+++XX@@@###########################################@@@@@OOOOOooo",
"+++XX@@@###########################################@@@@@OOOOOooo",
"+++XX@@@###########################################@@@@@OOOOOooo",
"+++XXOOO@@@@@################################@@@@@@@@@@@@@@OOooo",
"+++XXOOO@@@@@################################@@@@@@@@@@@@@@OOooo",
"     OOO@@@##########################################@@@@@@OOooo",
"     OOO@@@##########################################@@@@@@OOooo",
"     OOO@@@##########################################@@@@@@OOooo"
};
