/* XPM */
static char *result[] = {
/* columns rows colors chars-per-pixel */
"64 64 7 1 ",
"  c #1F1518",
". c #18372D",
"X c #332B2E",
"o c #225C39",
"O c #4D4349",
"+ c #2C8B2A",
"@ c #54AA35",
/* pixels */
"@@@@@@+++++++++++++++++++++++++++++++++++++++@@@@@++++++++++++++",
"@@@@@@+++++++++++++++++++++++++++++++++++++++@@@@@++++++++++++++",
"@@@@@@+++++++++++++++++++++++++++++++++++++++@@@@@++++++++++++++",
"@@@@@@++@@@@@@+++@@@@@++++++@@@@@+++@@@@@@+++@@@@@+++@@@@@+++@@@",
"@@@@@@++@@@@@@+++@@@@@++++++@@@@@+++@@@@@@+++@@@@@+++@@@@@+++@@@",
"@@@@@@++@@@@@@+++@@@@@++++++@@@@@+++@@@@@@+++@@@@@+++@@@@@+++@@@",
"@@@@@@@@@@@@@@+++@@@@@@@@@@@@@@@@+++@@@@@@@@@@@@@@@@@@@@@@+++@@@",
"@@@@@@@@@@@@@@+++@@@@@@@@@@@@@@@@+++@@@@@@@@@@@@@@@@@@@@@@+++@@@",
"@@@@@@@@@@@@@@@@@@@@@@@@@@@@@@@@@@@@@@@@@@@@@@@@@@@@@@@@@@@@@@@@",
"@@@@@@@@@@@@@@@@@@@@@@@@@@@@@@@@@@@@@@@@@@@@@@@@@@@@@@@@@@@@@@@@",
"@@@@@@@@@@@@@@@@@@@@@@@@@@@@@@@@@@@@@@@@@@@@@@@@@@@@@@@@@@@@@@@@",
"@@@@@@@@@@@@@@@@@@@@@@@@@@@@@@@@@@@@@@@@@@@@@@@@@@@@@@@@@@@@@@@@",
"@@@@@@@@@@@@@@@@@@@@@@@@@@@@@@@@@@@@@@@@@@@@@@@@@@@@@@@@@@@@@@@@",
"@@@@@@@@@@@@@@@@@@@@@@@@@@@@@@@@@@@@@@@@@@@@@@@@@@@@@@@@@@@@@@@@",
"@@@@@@@@@@@@@@@@@@@@@@@@@@@@@@@@@@@@@@@@@@@@@@@@@@@@@@@@@@@@@@@@",
"@@@@@@@@@@@@@@@@@@@@@@@@@@@@@@@@@@@@@@@@@@@@@@@@@@@@@@@@@@@@@@@@",
"@@@@@@@@@@@@@@@@@@@@@@@@@@@@@@@@@@@@@@@@@@@@@@@@@@@@@@@@@@@@@@@@",
"@@@@@@@@@@@@@@+++@@@@@@@@@@@@@@@@+++@@@@@@@@@@@@@@@@@@@@@@+++@@@",
"@@@@@@@@@@@@@@+++@@@@@@@@@@@@@@@@+++@@@@@@@@@@@@@@@@@@@@@@+++@@@",
"@@@@@@++@@@@@@+++@@@@@++++++@@@@@+++@@@@@@+++@@@@@+++@@@@@+++@@@",
"@@@@@@++@@@@@@+++@@@@@++++++@@@@@+++@@@@@@+++@@@@@+++@@@@@+++@@@",
"@@@@@@++@@@@@@+++@@@@@++++++@@@@@+++@@@@@@+++@@@@@+++@@@@@+++@@@",
"@@@@@@+++++++++++@@@@@++++++@@@@@++++++++++++@@@@@+++++++++++@@@",
"@@@@@@+++++++++++@@@@@++++++@@@@@++++++++++++@@@@@+++++++++++@@@",
"@@@@@@+++++++++++@@@@@++++++@@@@@++++++++++++@@@@@+++++++++++@@@",
"@@@@@@++oooooo++++++++oooooo++++++++oooooo+++@@@@@+++ooooo++++++",
"@@@@@@++oooooo++++++++oooooo++++++++oooooo+++@@@@@+++ooooo++++++",
"@@@@@@++oooooo++++++++oooooo++++++++oooooo+++@@@@@+++ooooo++++++",
"++++++++ooo+++ooo+++++oooooo+++++ooo+++++++++++++++++ooo++ooo+++",
"++++++++ooo+++ooo+++++oooooo+++++ooo+++++++++++++++++ooo++ooo+++",
"++++++++ooo+++ooo+++++oooooo+++++ooo+++++++++++++++++ooo++ooo+++",
"++++++ooooo++++++ooooo++++++oooooooo++++++ooo+++++oooooo+++++ooo",
"++++++ooooo++++++ooooo++++++oooooooo++++++ooo+++++oooooo+++++ooo",
"ooooooooooo++++++ooooo++++++oooooooooooooooooooooooooooo+++++ooo",
"ooooooooooo++++++ooooo++++++oooooooooooooooooooooooooooo+++++ooo",
"ooooooooooo++++++ooooo++++++oooooooooooooooooooooooooooo+++++ooo",
"oooooooooooooooooooooooooooooooooooooooooooooooooooooooooooooooo",
"oooooooooooooooooooooooooooooooooooooooooooooooooooooooooooooooo",
"oooooooooooooooooooooooooooooooooooooooooooooooooooooooooooooooo",
"oooooooooooooooooooooooooooooooooooooooooooooooooooooooooooooooo",
"oooooooooooooooooooooooooooooooooooooooooooooooooooooooooooooooo",
"oooooooooooooooooooooooooooooooooooooooooooooooooooooooooooooooo",
"oooooooo.........ooooo......ooooo.........ooooooooooo........ooo",
"oooooooo.........ooooo......ooooo.........ooooooooooo........ooo",
"oooooooo.........ooooo......ooooo.........ooooooooooo........ooo",
"........XXXXXXXXX.....XXXXXX.....XXXXXXXXX...........XXXXXXXX...",
"........XXXXXXXXX.....XXXXXX.....XXXXXXXXX...........XXXXXXXX...",
"XXXXXXXXOOOOOOOOOXXXXXXXXOOOOOOXX   XXXOOOOOOOOXXXXXXOOOOOOOOOOO",
"XXXXXXXXOOOOOOOOOXXXXXXXXOOOOOOXX   XXXOOOOOOOOXXXXXXOOOOOOOOOOO",
"XXXXXXXXOOOOOOOOOXXXXXXXXOOOOOOXX   XXXOOOOOOOOXXXXXXOOOOOOOOOOO",
"OOOXXXOOOOOOOOOOOOOOOOOOOOOOOOOOOOOOOOOOOOOOOOOXXXOOOOOOOOOOOOOO",
"OOOXXXOOOOOOOOOOOOOOOOOOOOOOOOOOOOOOOOOOOOOOOOOXXXOOOOOOOOOOOOOO",
"OOOXXXOOOOOOOOOOOOOOOOOOOOOOOOOOOOOOOOOOOOOOOOOXXXOOOOOOOOOOOOOO",
"OOOXXXOOOOOOOOOOOOOOOOOOOOOOOOOOOOOOOOOOOOOOOOO   XXXXXXOOOOOOOO",
"OOOXXXOOOOOOOOOOOOOOOOOOOOOOOOOOOOOOOOOOOOOOOOO   XXXXXXOOOOOOOO",
"OOOXXXOOOOOOOOOOOOOOOOOOOOOOOOOOOOOOOOOOOOOOOOO   XXXXXXOOOOOOOO",
"OOOXXXOOOOOOOOOOOOOOOOOOOOOOOOOOOOOOOOOOOOOOOXXOOOOOOOOOXXOOOOOO",
"OOOXXXOOOOOOOOOOOOOOOOOOOOOOOOOOOOOOOOOOOOOOOXXOOOOOOOOOXXOOOOOO",
"XXXXXXXXOOOOOOOOOOOOOOOOOOOOOOOOOOOOOOOOOOXXXOOOOOOOOOOOXXOOOOOO",
"XXXXXXXXOOOOOOOOOOOOOOOOOOOOOOOOOOOOOOOOOOXXXOOOOOOOOOOOXXOOOOOO",
"XXXXXXXXOOOOOOOOOOOOOOOOOOOOOOOOOOOOOOOOOOXXXOOOOOOOOOOOXXOOOOOO",
"                                                                ",
"                                                                ",
"                                                                "
};
