/* XPM */
static char *result[] = {
/* columns rows colors chars-per-pixel */
"64 64 15 1 ",
"  c #142F26",
". c #143027",
"X c #153228",
"o c #153229",
"O c #16332A",
"+ c #17352B",
"@ c #18362D",
"# c #18372D",
"$ c #1B4231",
"% c #225C39",
"& c #2C8B2A",
"* c #318E2B",
"= c #3F982F",
"- c #54AA35",
"; c None",
/* pixels */
"$$$&&-----------------------------------&&&&&---&&&&&%%%## ;;;;;",
"$$$&&-----------------------------------&&&&&---&&&&&%%%## ;;;;;",
"$$$&&-----------------------------------&&&&&---&&&&&%%%## ;;;;;",
"$$$&&&&&--------------------------------&&&&&&&&%%%%%%%%## ;;;;;",
"$$$&&&&&--------------------------------&&&&&&&&%%%%%%%%## ;;;;;",
"$$$------------------------------------------&&&&&&%%%%%## ;;;;;",
"$$$------------------------------------------&&&&&&%%%%%## ;;;;;",
"$$$------------------------------------------&&&&&&%%%%%## ;;;;;",
"$$$------------------------------------------&&&&&&%%%%%## ;;;;;",
"$$$------------------------------------------&&&&&&%%%%%## ;;;;;",
"$$$------------------------------------------&&&&&&%%%%%## ;;;;;",
"$$$&&&&&-----------------------------&&&&&&&&&&&&&&&&%%%## ;;;;;",
"$$$&&&&&-----------------------------&&&&&&&&&&&&&&&&%%%## ;;;;;",
"$$$&&--------------------------------&&&-----&&&&&&&&%%%## ;;;;;",
"$$$&&--------------------------------&&&-----&&&&&&&&%%%## ;;;;;",
"$$$&&--------------------------------&&&-----&&&&&&&&%%%## ;;;;;",
"$$$&&-------------------------------------------&&&&&%%%##.;;;;;",
"$$$&&-------------------------------------------&&&&&%%%##.;;;;;",
"$$$&&-------------------------------------------&&&&&%%%##X;;;;;",
"$$$&&&&&--------------------------------&&&&&&&&%%%%%%%%##o;;;;;",
"$$$&&&&&--------------------------------&&&&&&&&%%%%%%%%##o;;;;;",
"$$$&&-----------------------------------&&&&&---&&&&&%%%##o;;;;;",
"$$$&&-----------------------------------&&&&&---&&&&&%%%##o;;;;;",
"$$$&&-----------------------------------&&&&&---&&&&&%%%##o;;;;;",
"$$$&&&&&--------------------------------&&&&&&&&%%%%%%%%##o;;;;;",
"$$$&&&&&--------------------------------&&&&&&&&%%%%%%%%##o;;;;;",
"$$$&&&&&--------------------------------&&&&&&&&%%%%%%%%##o;;;;;",
"$$$------------------------------------------&&&&&&%%%%%##o;;;;;",
"$$$------------------------------------------&&&&&&%%%%%##o;;;;;",
"$$$------------------------------------------&&&&&&%%%%%##o;;;;;",
"$$$------------------------------------------&&&&&&%%%%%##o;;;;;",
"$$$------------------------------------------&&&&&&%%%%%##o;;;;;",
"$$$&&&&&------------------------------=&&&&&&&&&&&&&&%%%##o;;;;;",
"$$$&&&&&------------------------------*&&&&&&&&&&&&&&%%%##o;;;;;",
"$$$&&&&&------------------------------&&&&&&&&&&&&&&&%%%##o;;;;;",
"$$$&&---------------------------------&&-----&&&&&&&&%%%##o;;;;;",
"$$$&&---------------------------------&&-----&&&&&&&&%%%##o;;;;;",
"$$$&&-------------------------------------------&&&&&%%%##o;;;;;",
"$$$&&-------------------------------------------&&&&&%%%##o;;;;;",
"$$$&&-------------------------------------------&&&&&%%%##o;;;;;",
"$$$&&&&&--------------------------------&&&&&&&&%%%%%%%%##o;;;;;",
"$$$&&&&&--------------------------------&&&&&&&&%%%%%%%%##o;;;;;",
"$$$&&&&&--------------------------------&&&&&&&&%%%%%%%%##o;;;;;",
"$$$&&&&&--------------------------------&&&&&&&&&&&&&%%%##o;;;;;",
"$$$&&&&&--------------------------------&&&&&&&&&&&&&%%%##o;;;;;",
"$$$&&-----------------------------------&&&--&&&&&&&&%%%##o;;;;;",
"$$$&&-----------------------------------&&&--&&&&&&&&%%%##o;;;;;",
"$$$&&-----------------------------------&&&--&&&&&&&&%%%##o;;;;;",
"$$$&&----------------------------------------&&&&&&&&%%%##o;;;;;",
"$$$&&----------------------------------------&&&&&&&&%%%##o;;;;;",
"$$$&&----------------------------------------&&&&&&&&%%%##o;;;;;",
"$$$&&&&&--------------------------------&&&&&&&&%%%%%%%%##o;;;;;",
"$$$&&&&&--------------------------------&&&&&&&&%%%%%%%%##o;;;;;",
"$$$------------------------------------------&&&&&&%%%%%##o;;;;;",
"$$$------------------------------------------&&&&&&%%%%%##o;;;;;",
"$$$------------------------------------------&&&&&&%%%%%##O;;;;;",
"$$$------------------------------------------&&&&&&%%%%%##+;;;;;",
"$$$------------------------------------------&&&&&&%%%%%##@;;;;;",
"$$$------------------------------------------&&&&&&%%%%%###;;;;;",
"$$$&&&&&--------------------------------&&&&&&&&&&&&&%%%###;;;;;",
"$$$&&&&&--------------------------------&&&&&&&&&&&&&%%%###;;;;;",
"$$$&&-------------------------------------------&&&&&%%%###;;;;;",
"$$$&&-------------------------------------------&&&&&%%%###;;;;;",
"$$$&&-------------------------------------------&&&&&%%%###;;;;;"
};
