/* XPM */
static char *result[] = {
/* columns rows colors chars-per-pixel */
"64 64 7 1 ",
"  c #1F1518",
". c #18372D",
"X c #332B2E",
"o c #225C39",
"O c #4D4349",
"+ c #2C8B2A",
"@ c #54AA35",
/* pixels */
"oooooooooooooooooooooooooooooooooooooooooooooooooooooooooooooooo",
"oooooooooooooooooooooooooooooooooooooooooooooooooooooooooooooooo",
"oooooooooooooooooooooooooooooooooooooooooooooooooooooooooooooooo",
"@@@+++++++++++++++++++++++++++++++++++++@@@@@+++++++++++++++++++",
"@@@+++++++++++++++++++++++++++++++++++++@@@@@+++++++++++++++++++",
"@@@++@@@@@@++@@@@@@+++++@@@@@+++@@@@@+++@@@@@+++@@@@@+++@@@@@+++",
"@@@++@@@@@@++@@@@@@+++++@@@@@+++@@@@@+++@@@@@+++@@@@@+++@@@@@+++",
"@@@++@@@@@@++@@@@@@+++++@@@@@+++@@@@@+++@@@@@+++@@@@@+++@@@@@+++",
"@@@@@@@@@@@++@@@@@@@@@@@@@@@@+++@@@@@@@@@@@@@@@@@@@@@+++@@@@@@@@",
"@@@@@@@@@@@++@@@@@@@@@@@@@@@@+++@@@@@@@@@@@@@@@@@@@@@+++@@@@@@@@",
"@@@@@@@@@@@++@@@@@@@@@@@@@@@@+++@@@@@@@@@@@@@@@@@@@@@+++@@@@@@@@",
"@@@@@@@@@@@@@@@@@@@@@@@@@@@@@@@@@@@@@@@@@@@@@@@@@@@@@@@@@@@@@@@@",
"@@@@@@@@@@@@@@@@@@@@@@@@@@@@@@@@@@@@@@@@@@@@@@@@@@@@@@@@@@@@@@@@",
"@@@@@@@@@@@@@@@@@@@@@@@@@@@@@@@@@@@@@@@@@@@@@@@@@@@@@@@@@@@@@@@@",
"@@@@@@@@@@@@@@@@@@@@@@@@@@@@@@@@@@@@@@@@@@@@@@@@@@@@@@@@@@@@@@@@",
"@@@@@@@@@@@@@@@@@@@@@@@@@@@@@@@@@@@@@@@@@@@@@@@@@@@@@@@@@@@@@@@@",
"@@@@@@@@@@@@@@@@@@@@@@@@@@@@@@@@@@@@@@@@@@@@@@@@@@@@@@@@@@@@@@@@",
"@@@@@@@@@@@@@@@@@@@@@@@@@@@@@@@@@@@@@@@@@@@@@@@@@@@@@@@@@@@@@@@@",
"@@@@@@@@@@@@@@@@@@@@@@@@@@@@@@@@@@@@@@@@@@@@@@@@@@@@@@@@@@@@@@@@",
"@@@@@@@@@@@++@@@@@@@@@@@@@@@@+++@@@@@@@@@@@@@@@@@@@@@+++@@@@@@@@",
"@@@@@@@@@@@++@@@@@@@@@@@@@@@@+++@@@@@@@@@@@@@@@@@@@@@+++@@@@@@@@",
"@@@++@@@@@@++@@@@@@+++++@@@@@+++@@@@@+++@@@@@+++@@@@@+++@@@@@+++",
"@@@++@@@@@@++@@@@@@+++++@@@@@+++@@@@@+++@@@@@+++@@@@@+++@@@@@+++",
"@@@++@@@@@@++@@@@@@+++++@@@@@+++@@@@@+++@@@@@+++@@@@@+++@@@@@+++",
"@@@++++++++++@@@@@@+++++@@@@@+++++++++++@@@@@+++++++++++@@@@@+++",
"@@@++++++++++@@@@@@+++++@@@@@+++++++++++@@@@@+++++++++++@@@@@+++",
"@@@++++++++++@@@@@@+++++@@@@@+++++++++++@@@@@+++++++++++@@@@@+++",
"@@@++oooooo++++++++ooooo++++++++ooooo+++@@@@@+++ooooo++++++++ooo",
"@@@++oooooo++++++++ooooo++++++++ooooo+++@@@@@+++ooooo++++++++ooo",
"+++++ooo+++oo++++++ooooo+++++ooo++++++++++++++++ooo++ooo+++++ooo",
"+++++ooo+++oo++++++ooooo+++++ooo++++++++++++++++ooo++ooo+++++ooo",
"+++++ooo+++oo++++++ooooo+++++ooo++++++++++++++++ooo++ooo+++++ooo",
"+++ooooo+++++oooooo+++++oooooooo+++++ooo+++++oooooo+++++ooooo+++",
"+++ooooo+++++oooooo+++++oooooooo+++++ooo+++++oooooo+++++ooooo+++",
"+++ooooo+++++oooooo+++++oooooooo+++++ooo+++++oooooo+++++ooooo+++",
"oooooooo+++++oooooo+++++ooooooooooooooooooooooooooo+++++ooooo+++",
"oooooooo+++++oooooo+++++ooooooooooooooooooooooooooo+++++ooooo+++",
"oooooooooooooooooooooooooooooooooooooooooooooooooooooooooooooooo",
"oooooooooooooooooooooooooooooooooooooooooooooooooooooooooooooooo",
"oooooooooooooooooooooooooooooooooooooooooooooooooooooooooooooooo",
"oooooooooooooooooooooooooooooooooooooooooooooooooooooooooooooooo",
"oooooooooooooooooooooooooooooooooooooooooooooooooooooooooooooooo",
"oooooooooooooooooooooooooooooooooooooooooooooooooooooooooooooooo",
"ooooo........oooooo.....ooooo........ooooooooooo........ooooo...",
"ooooo........oooooo.....ooooo........ooooooooooo........ooooo...",
".....XXXXXXXX......XXXXX.....XXXXXXXX...........XXXXXXXX.....XXX",
".....XXXXXXXX......XXXXX.....XXXXXXXX...........XXXXXXXX.....XXX",
".....XXXXXXXX......XXXXX.....XXXXXXXX...........XXXXXXXX.....XXX",
"XXXXXOOOOOOOOXXXXXXXXOOOOOOXX   XXXOOOOOOOOXXXXXOOOOOOOOOOOOOOOO",
"XXXXXOOOOOOOOXXXXXXXXOOOOOOXX   XXXOOOOOOOOXXXXXOOOOOOOOOOOOOOOO",
"XXXXXOOOOOOOOXXXXXXXXOOOOOOXX   XXXOOOOOOOOXXXXXOOOOOOOOOOOOOOOO",
"XXXOOOOOOOOOOOOOOOOOOOOOOOOOOOOOOOOOOOOOOOOXXOOOOOOOOOOOOOOOOOOO",
"XXXOOOOOOOOOOOOOOOOOOOOOOOOOOOOOOOOOOOOOOOOXXOOOOOOOOOOOOOOOOOOO",
"XXXOOOOOOOOOOOOOOOOOOOOOOOOOOOOOOOOOOOOOOOO  XXXXXXOOOOOOOOOOOOO",
"XXXOOOOOOOOOOOOOOOOOOOOOOOOOOOOOOOOOOOOOOOO  XXXXXXOOOOOOOOOOOOO",
"XXXOOOOOOOOOOOOOOOOOOOOOOOOOOOOOOOOOOOOOOOO  XXXXXXOOOOOOOOOOOOO",
"XXXOOOOOOOOOOOOOOOOOOOOOOOOOOOOOOOOOOOOOXXXOOOOOOOOXXOOOOOOOOOOO",
"XXXOOOOOOOOOOOOOOOOOOOOOOOOOOOOOOOOOOOOOXXXOOOOOOOOXXOOOOOOOOOOO",
"XXXOOOOOOOOOOOOOOOOOOOOOOOOOOOOOOOOOOOOOXXXOOOOOOOOXXOOOOOOOOOOO",
"XXXXXOOOOOOOOOOOOOOOOOOOOOOOOOOOOOOOOXXXOOOOOOOOOOOXXOOOOOOOOOOO",
"XXXXXOOOOOOOOOOOOOOOOOOOOOOOOOOOOOOOOXXXOOOOOOOOOOOXXOOOOOOOOOOO",
"                                                                ",
"                                                                ",
"                                                                "
};
