/* XPM */
static char *result[] = {
/* columns rows colors chars-per-pixel */
"64 64 8 1 ",
"  c #1F1518",
". c #18372D",
"X c #332B2E",
"o c #225C39",
"O c #4D4349",
"+ c #2C8B2A",
"@ c #54AA35",
"# c None",
/* pixels */
"ooooooooooooooooooooooooooooooooooooooooooooooooooooooooooo#####",
"ooooooooooooooooooooooooooooooooooooooooooooooooooooooooooo#####",
"ooooooooooooooooooooooooooooooooooooooooooooooooooooooooooo#####",
"@@@+++++++++++++++++++++++++++++++++++++@@@@@++++++++++++++oo###",
"@@@+++++++++++++++++++++++++++++++++++++@@@@@++++++++++++++oo###",
"@@@++@@@@@@++@@@@@@+++++@@@@@+++@@@@@+++@@@@@+++@@@@@++++++++...",
"@@@++@@@@@@++@@@@@@+++++@@@@@+++@@@@@+++@@@@@+++@@@@@++++++++...",
"@@@++@@@@@@++@@@@@@+++++@@@@@+++@@@@@+++@@@@@+++@@@@@++++++++...",
"@@@@@@@@@@@++@@@@@@@@@@@@@@@@+++@@@@@@@@@@@@@@@@@@@@@+++@@@++...",
"@@@@@@@@@@@++@@@@@@@@@@@@@@@@+++@@@@@@@@@@@@@@@@@@@@@+++@@@++...",
"@@@@@@@@@@@++@@@@@@@@@@@@@@@@+++@@@@@@@@@@@@@@@@@@@@@+++@@@++...",
"@@@@@@@@@@@@@@@@@@@@@@@@@@@@@@@@@@@@@@@@@@@@@@@@@@@@@@@@@@@++...",
"@@@@@@@@@@@@@@@@@@@@@@@@@@@@@@@@@@@@@@@@@@@@@@@@@@@@@@@@@@@++...",
"@@@@@@@@@@@@@@@@@@@@@@@@@@@@@@@@@@@@@@@@@@@@@@@@@@@@@@@@@@@++...",
"@@@@@@@@@@@@@@@@@@@@@@@@@@@@@@@@@@@@@@@@@@@@@@@@@@@@@@@@@@@++...",
"@@@@@@@@@@@@@@@@@@@@@@@@@@@@@@@@@@@@@@@@@@@@@@@@@@@@@@@@@@@++...",
"@@@@@@@@@@@@@@@@@@@@@@@@@@@@@@@@@@@@@@@@@@@@@@@@@@@@@@@@@@@++...",
"@@@@@@@@@@@@@@@@@@@@@@@@@@@@@@@@@@@@@@@@@@@@@@@@@@@@@@@@@@@++...",
"@@@@@@@@@@@@@@@@@@@@@@@@@@@@@@@@@@@@@@@@@@@@@@@@@@@@@@@@@@@++...",
"@@@@@@@@@@@++@@@@@@@@@@@@@@@@+++@@@@@@@@@@@@@@@@@@@@@+++@@@++...",
"@@@@@@@@@@@++@@@@@@@@@@@@@@@@+++@@@@@@@@@@@@@@@@@@@@@+++@@@++...",
"@@@++@@@@@@++@@@@@@+++++@@@@@+++@@@@@+++@@@@@+++@@@@@++++++++...",
"@@@++@@@@@@++@@@@@@+++++@@@@@+++@@@@@+++@@@@@+++@@@@@++++++++...",
"@@@++@@@@@@++@@@@@@+++++@@@@@+++@@@@@+++@@@@@+++@@@@@++++++++...",
"@@@++++++++++@@@@@@+++++@@@@@+++++++++++@@@@@++++++++++++++++...",
"@@@++++++++++@@@@@@+++++@@@@@+++++++++++@@@@@++++++++++++++++...",
"@@@++++++++++@@@@@@+++++@@@@@+++++++++++@@@@@++++++++++++++++...",
"@@@++oooooo++++++++ooooo++++++++ooooo+++@@@@@+++ooooo++++++oo...",
"@@@++oooooo++++++++ooooo++++++++ooooo+++@@@@@+++ooooo++++++oo...",
"+++++ooo+++oo++++++ooooo+++++ooo++++++++++++++++ooo++oooooooo...",
"+++++ooo+++oo++++++ooooo+++++ooo++++++++++++++++ooo++oooooooo...",
"+++++ooo+++oo++++++ooooo+++++ooo++++++++++++++++ooo++oooooooo...",
"+++ooooo+++++oooooo+++++oooooooo+++++ooo+++++oooooo+++++ooooo...",
"+++ooooo+++++oooooo+++++oooooooo+++++ooo+++++oooooo+++++ooooo...",
"+++ooooo+++++oooooo+++++oooooooo+++++ooo+++++oooooo+++++ooooo...",
"oooooooo+++++oooooo+++++ooooooooooooooooooooooooooo+++++ooooo...",
"oooooooo+++++oooooo+++++ooooooooooooooooooooooooooo+++++ooooo...",
"ooooooooooooooooooooooooooooooooooooooooooooooooooooooooooooo...",
"ooooooooooooooooooooooooooooooooooooooooooooooooooooooooooooo...",
"ooooooooooooooooooooooooooooooooooooooooooooooooooooooooooooo...",
"ooooooooooooooooooooooooooooooooooooooooooooooooooooooooooooo...",
"ooooooooooooooooooooooooooooooooooooooooooooooooooooooooooooo...",
"ooooooooooooooooooooooooooooooooooooooooooooooooooooooooooooo...",
"ooooo........oooooo.....ooooo........ooooooooooo.............###",
"ooooo........oooooo.....ooooo........ooooooooooo.............###",
".....XXXXXXXX......XXXXX.....XXXXXXXX...........XXXXXXXX...  ###",
".....XXXXXXXX......XXXXX.....XXXXXXXX...........XXXXXXXX...  ###",
".....XXXXXXXX......XXXXX.....XXXXXXXX...........XXXXXXXX...  ###",
"XXXXXOOOOOOOOOOOOOOOOXXXXXXXX   XXXOOXXXXXXXXXXXOOOOOXXXXXX  ###",
"XXXXXOOOOOOOOOOOOOOOOXXXXXXXX   XXXOOXXXXXXXXXXXOOOOOXXXXXX  ###",
"XXXXXOOOOOOOOOOOOOOOOXXXXXXXX   XXXOOXXXXXXXXXXXOOOOOXXXXXX  ###",
"XXXOOOOOOOOOOOOOOOOOOOOOOOOOOOOOOOOOOOOOOOOXXOOOOOOOOOOOXXX  ###",
"XXXOOOOOOOOOOOOOOOOOOOOOOOOOOOOOOOOOOOOOOOOXXOOOOOOOOOOOXXX  ###",
"   XXXXXOOOOOOOOOOOOOOOOOOOOOOOOOOOOOOOOOOOXXOOOOOOOOOOOXXX  ###",
"   XXXXXOOOOOOOOOOOOOOOOOOOOOOOOOOOOOOOOOOOXXOOOOOOOOOOOXXX  ###",
"   XXXXXOOOOOOOOOOOOOOOOOOOOOOOOOOOOOOOOOOOXXOOOOOOOOOOOXXX  ###",
"OOOOOOOOXXXOOOOOOOOOOOOOOOOOOOOOOOOOOOOOOOOXXOOOOOOOOXXXXXX  ###",
"OOOOOOOOXXXOOOOOOOOOOOOOOOOOOOOOOOOOOOOOOOOXXOOOOOOOOXXXXXX  ###",
"OOOOOOOOXXXOOOOOOOOOOOOOOOOOOOOOOOOOOOOOOOOXXOOOOOOOOXXXXXX  ###",
"OOOOOOOOXXXOOOOOOOOOOOOOOOOOOOOOOOOOOXXXXXXXXXXXXXXXXXXXXXX  ###",
"OOOOOOOOXXXOOOOOOOOOOOOOOOOOOOOOOOOOOXXXXXXXXXXXXXXXXXXXXXX  ###",
"                                                           #####",
"                                                           #####",
"                                                           #####"
};
