/* XPM */
static char *result[] = {
/* columns rows colors chars-per-pixel */
"64 64 5 1 ",
"  c #492D3B",
". c #68464D",
"X c #88635A",
"o c #A08366",
"O c #BC9A78",
/* pixels */
"XXXXXXXXXXXXXXXXXXXXXXXXXXXXXXXXXXXXXXXXXXXXXXXXXXXXXXXXXXXXXXXX",
"XXXXXXXXXXXXXXXXXXXXXXXXXXXXXXXXXXXXXXXXXXXXXXXXXXXXXXXXXXXXXXXX",
"XXXXooooooooooooooooooooooooooooooooooooooooooooooooooooooooXXXX",
"XXXXooooooooooooooooooooooooooooooooooooooooooooooooooooooooXXXX",
"XXXXooooooooooooooooooooooooooooooooooooooooooooooooooooooooXXXX",
"XXXXooooXXXXXXXX................................XXXXXXXXooooXXXX",
"XXXXooooXXXXXXXX................................XXXXXXXXooooXXXX",
"XXXXooooXXXXooooooooXXXXXXXXXXXXXXXXXXXXXXXXooooooooooooooooXXXX",
"XXXXooooXXXXooooooooXXXXXXXXXXXXXXXXXXXXXXXXooooooooooooooooXXXX",
"XXXXooooXXXXooooooooXXXXXXXXXXXXXXXXXXXXXXXXooooooooooooooooXXXX",
"XXXXoooo....ooooooooooooXXXXXXXXXXXXXXXXoooooooooooo....ooooXXXX",
"XXXXoooo....ooooooooooooXXXXXXXXXXXXXXXXoooooooooooo....ooooXXXX",
"XXXXoooo........ooooooooooooXXXXXXXXoooooooooooo....XXXXooooXXXX",
"XXXXoooo........ooooooooooooXXXXXXXXoooooooooooo....XXXXooooXXXX",
"XXXXoooo........ooooooooooooXXXXXXXXoooooooooooo....XXXXooooXXXX",
"XXXXoooo....XXXX....ooooooooXXXXoooooooooooo....XXXXXXXXooooXXXX",
"XXXXoooo....XXXX....ooooooooXXXXoooooooooooo....XXXXXXXXooooXXXX",
"XXXXoooo....XXXXXXXX....XXXXoooooooooooo....XXXXXXXXXXXXooooXXXX",
"XXXXoooo....XXXXXXXX....XXXXoooooooooooo....XXXXXXXXXXXXooooXXXX",
"XXXXoooo....XXXXXXXX....XXXXoooooooooooo....XXXXXXXXXXXXooooXXXX",
"XXXXoooo....XXXXXXXXXXXXooooooooooooXXXXXXXXXXXXXXXXXXXXooooXXXX",
"XXXXoooo....XXXXXXXXXXXXooooooooooooXXXXXXXXXXXXXXXXXXXXooooXXXX",
"XXXXoooo....XXXXXXXXooooooooooooXXXXooooooooXXXXXXXXXXXXooooXXXX",
"XXXXoooo....XXXXXXXXooooooooooooXXXXooooooooXXXXXXXXXXXXooooXXXX",
"XXXXoooo....XXXXXXXXooooooooooooXXXXooooooooXXXXXXXXXXXXooooXXXX",
"XXXXoooo....XXXXoooooooooooo........ooooooooooooXXXXXXXXooooXXXX",
"XXXXoooo....XXXXoooooooooooo........ooooooooooooXXXXXXXXooooXXXX",
"XXXXoooo....oooooooooooo....XXXXXXXX....ooooooooooooXXXXooooXXXX",
"XXXXoooo....oooooooooooo....XXXXXXXX....ooooooooooooXXXXooooXXXX",
"XXXXoooo....oooooooooooo....XXXXXXXX....ooooooooooooXXXXooooXXXX",
"XXXXooooXXXXoooooooo....XXXXXXXXXXXXXXXX....ooooooooooooooooXXXX",
"XXXXooooXXXXoooooooo....XXXXXXXXXXXXXXXX....ooooooooooooooooXXXX",
"XXXXooooXXXXoooo....XXXXXXXXXXXXXXXXXXXXXXXX....ooooooooooooXXXX",
"XXXXooooXXXXoooo....XXXXXXXXXXXXXXXXXXXXXXXX....ooooooooooooXXXX",
"XXXXooooooooooooooooooooooooooooooooooooooooooooooooooooooooXXXX",
"XXXXooooooooooooooooooooooooooooooooooooooooooooooooooooooooXXXX",
"XXXXooooooooooooooooooooooooooooooooooooooooooooooooooooooooXXXX",
"XXXXOOOOOOOOOOOOOOOOOOOOOOOOOOOOOOOOOOOOOOOOOOOOOOOOOOOOOOOOXXXX",
"XXXXOOOOOOOOOOOOOOOOOOOOOOOOOOOOOOOOOOOOOOOOOOOOOOOOOOOOOOOOXXXX",
"....XXXXXXXXXXXXXXXXXXXXXXXXXXXXXXXXXXXXXXXXXXXXXXXXXXXXXXXX....",
"....XXXXXXXXXXXXXXXXXXXXXXXXXXXXXXXXXXXXXXXXXXXXXXXXXXXXXXXX....",
"....XXXXXXXXXXXXXXXXXXXXXXXXXXXXXXXXXXXXXXXXXXXXXXXXXXXXXXXX....",
"....XXXXXXXXXXXXXXXX                        XXXXXXXXXXXXXXXX....",
"....XXXXXXXXXXXXXXXX                        XXXXXXXXXXXXXXXX....",
"....XXXX    XXXXXXXXXXXXXXXX........XXXXXXXXXXXXXXXX    XXXX....",
"....XXXX    XXXXXXXXXXXXXXXX........XXXXXXXXXXXXXXXX    XXXX....",
"....XXXX    XXXXXXXXXXXXXXXX........XXXXXXXXXXXXXXXX    XXXX....",
"....XXXX            ........XXXXXXXXXXXXXXXX        ....XXXX....",
"....XXXX            ........XXXXXXXXXXXXXXXX        ....XXXX....",
"....XXXX    ........XXXXXXXXXXXXXXXX....................XXXX....",
"....XXXX    ........XXXXXXXXXXXXXXXX....................XXXX....",
"....XXXX    ........XXXXXXXXXXXXXXXX....................XXXX....",
"....XXXX    XXXXXXXXXXXXXXXX        XXXXXXXXXXXXXXXX....XXXX....",
"....XXXX    XXXXXXXXXXXXXXXX        XXXXXXXXXXXXXXXX....XXXX....",
"....XXXXXXXXXXXXXXXX        ........        XXXXXXXXXXXXXXXX....",
"....XXXXXXXXXXXXXXXX        ........        XXXXXXXXXXXXXXXX....",
"....XXXXXXXXXXXXXXXX        ........        XXXXXXXXXXXXXXXX....",
"....XXXXXXXX        ........................        XXXXXXXX....",
"....XXXXXXXX        ........................        XXXXXXXX....",
"....XXXXXXXXXXXXXXXXXXXXXXXXXXXXXXXXXXXXXXXXXXXXXXXXXXXXXXXX....",
"....XXXXXXXXXXXXXXXXXXXXXXXXXXXXXXXXXXXXXXXXXXXXXXXXXXXXXXXX....",
"....XXXXXXXXXXXXXXXXXXXXXXXXXXXXXXXXXXXXXXXXXXXXXXXXXXXXXXXX....",
"................................................................",
"................................................................"
};
