/* XPM */
static char *result[] = {
/* columns rows colors chars-per-pixel */
"64 64 8 1 ",
"  c #331F29",
". c #563A3F",
"X c #79584F",
"o c #94785C",
"O c #2ECA35",
"+ c #328E41",
"@ c #BC9A78",
"# c None",
/* pixels */
"################################################################",
"################################################################",
"################################################################",
"################################################################",
"################################################################",
"################################################################",
"################################################################",
"################################################################",
"################################################################",
"################################################################",
"################################################################",
"################################################################",
"######################XXXXXXXXXX##########XXXX##################",
"######################XXXXXXXXXX##########XXXX##################",
"##############XXXXXXXXooooooooooXXXX##XXXXooooXXXX##############",
"##############XXXXXXXXooooooooooXXXX##XXXXooooXXXX##############",
"############XXooooXXooooooooooooooooXXXXooooooooooXX############",
"############XXooooXXooooooooooooooooXXXXooooooooooXX############",
"##########XXooooXXooXXooooooooooooooooooXXooooooooooXX##########",
"##########XXooooXXooXXooooooooooooooooooXXooooooooooXX##########",
"########XXooooXXXXooooooooooooooooooooooooXX@@@@oooo@@..########",
"########XXooooXXXXooooooooooooooooooooooooXX@@@@oooo@@..########",
"########XXooooooooooooooooooooooooooooooooooXXXX@@@@XX..########",
"########XXooooooooooooooooooooooooooooooooooXXXX@@@@XX..########",
"########XXooooooooooooooooooooooooooooooXXooooXX..XXXX....######",
"########XXooooooooooooooooooooooooooooooXXooooXX..XXXX....######",
"######XXooooooooooooooooooooooooooooooooooXXooooXX........######",
"######XXooooooooooooooooooooooooooooooooooXXooooXX........######",
"######XXoooooooooooooooo@@XXooooooooooooooooooXXXXXX  ..OO######",
"######XXoooooooooooooooo@@XXooooooooooooooooooXXXXXX  ..OO######",
"######XX@@oooooooooooo@@XXooooooooooooooooooooooooooXXOO  ######",
"######XX@@oooooooooooo@@XXooooooooooooooooooooooooooXXOO  ######",
"######XXXX@@ooooooooXXXXXXooooooooooooooooooooooooooXX++########",
"######XXXX@@ooooooooXXXXXXooooooooooooooooooooooooooXX++########",
"####....XXXX@@@@@@ooooooXX@@@@ooooooooooooooooooooooooXX########",
"####....XXXX@@@@@@ooooooXX@@@@ooooooooooooooooooooooooXX########",
"####......XXXXXXXX@@@@ooooXXXX@@@@ooooooooooooooooooooXX########",
"####......XXXXXXXX@@@@ooooXXXX@@@@ooooooooooooooooooooXX########",
"####  ........XXXXXXXX@@@@ooooXXXX@@ooooooooooooooooooooXX######",
"####  ........XXXXXXXX@@@@ooooXXXX@@ooooooooooooooooooooXX######",
"####  OOOO......XXXXXXXXXXXXXXooooXXoooooooooooooooooo@@XX######",
"####  OOOO......XXXXXXXXXXXXXXooooXXoooooooooooooooooo@@XX######",
"####++  ................XXXXXXXXXXXXXX@@@@@@@@oooooooo@@XX######",
"####++  ................XXXXXXXXXXXXXX@@@@@@@@oooooooo@@XX######",
"##++            ............XXXXXXXXXXXXXXXXXX@@@@@@@@XXXXXX####",
"##++            ............XXXXXXXXXXXXXXXXXX@@@@@@@@XXXXXX####",
"##++##    ............XXXXXXXXXXXXXX....XXXXXXXXXXXXXXXXXX..####",
"##++##    ............XXXXXXXXXXXXXX....XXXXXXXXXXXXXXXXXX..####",
"##....      OO..........XXXXXXXXXXXXXXXX......XXXXXXXXXX....####",
"##....      OO..........XXXXXXXXXXXXXXXX......XXXXXXXXXX....####",
"  XXXX..##  ++        ..OO..OO..XXXXXXXXXXXXXXXXXXXX..OO..OO####",
"  XXXX..##  ++        ..OO..OO..XXXXXXXXXXXXXXXXXXXX..OO..OO####",
"  ....  ########  OO    ++..XXOOXXXXXX....OOXXXXXXXXXX..++  ####",
"  ....  ########  OO    ++..XXOOXXXXXX....OOXXXXXXXXXX..++  ####",
"##OO  ####......##++##  ++    ++XXXXXXXXOO........OO..  ++######",
"##OO  ####......##++##  ++    ++XXXXXXXXOO........OO..  ++######",
"##++######  ..XX..############++....OO..++        ++  ##########",
"##++######  ..XX..############++....OO..++        ++  ##########",
"############      ##################++##++######################",
"############      ##################++##++######################",
"################################################################",
"################################################################",
"################################################################",
"################################################################"
};
