/* XPM */
static char *result[] = {
/* columns rows colors chars-per-pixel */
"64 64 5 1 ",
"  c #1B4231",
". c #225C39",
"X c #2C8B2A",
"o c #54AA35",
"O c None",
/* pixels */
"OOOOO...XXXooooooooooooooooooooooooooooooooooXXXXXXooXXXXXX..   ",
"OOOOO...XXXooooooooooooooooooooooooooooooooooXXXXXXooXXXXXX..   ",
"OOOOO...XXXooooooooooooooooooooooooooooooooooXXXXXXooXXXXXX..   ",
"OOOOO...XXXXXooooooooooooooooooooooooooooooooXXXXXXXX........   ",
"OOOOO...XXXXXooooooooooooooooooooooooooooooooXXXXXXXX........   ",
"OOOOOXXXoooooooooooooooooooooooooooooooooooooooooooXXXXX.....   ",
"OOOOOXXXoooooooooooooooooooooooooooooooooooooooooooXXXXX.....   ",
"OOOOOXXXoooooooooooooooooooooooooooooooooooooooooooXXXXX.....   ",
"OOOOOXXXoooooooooooooooooooooooooooooooooooooooooooXXXXX.....   ",
"OOOOOXXXoooooooooooooooooooooooooooooooooooooooooooXXXXX.....   ",
"OOOOOXXXoooooooooooooooooooooooooooooooooooooooooooXXXXX.....   ",
"OOOOO...XXXXXooooooooooooooooooooooooooooooXXXXXXXXXXXXXXXX..   ",
"OOOOO...XXXXXooooooooooooooooooooooooooooooXXXXXXXXXXXXXXXX..   ",
"OOOOO...XXXooooooooooooooooooooooooooooooooXXooooooXXXXXXXX..   ",
"OOOOO...XXXooooooooooooooooooooooooooooooooXXooooooXXXXXXXX..   ",
"OOOOO...XXXooooooooooooooooooooooooooooooooXXooooooXXXXXXXX..   ",
"OOOOO...XXXooooooooooooooooooooooooooooooooooooooooooXXXXXX..   ",
"OOOOO...XXXooooooooooooooooooooooooooooooooooooooooooXXXXXX..   ",
"OOOOO...XXXooooooooooooooooooooooooooooooooooooooooooXXXXXX..   ",
"OOOOO...XXXXXooooooooooooooooooooooooooooooooXXXXXXXX........   ",
"OOOOO...XXXXXooooooooooooooooooooooooooooooooXXXXXXXX........   ",
"OOOOO...XXXooooooooooooooooooooooooooooooooooXXXXXXooXXXXXX..   ",
"OOOOO...XXXooooooooooooooooooooooooooooooooooXXXXXXooXXXXXX..   ",
"OOOOO...XXXooooooooooooooooooooooooooooooooooXXXXXXooXXXXXX..   ",
"OOOOO...XXXXXooooooooooooooooooooooooooooooooXXXXXXXX........   ",
"OOOOO...XXXXXooooooooooooooooooooooooooooooooXXXXXXXX........   ",
"OOOOO...XXXXXooooooooooooooooooooooooooooooooXXXXXXXX........   ",
"OOOOOXXXoooooooooooooooooooooooooooooooooooooooooooXXXXX.....   ",
"OOOOOXXXoooooooooooooooooooooooooooooooooooooooooooXXXXX.....   ",
"OOOOOXXXoooooooooooooooooooooooooooooooooooooooooooXXXXX.....   ",
"OOOOOXXXoooooooooooooooooooooooooooooooooooooooooooXXXXX.....   ",
"OOOOOXXXoooooooooooooooooooooooooooooooooooooooooooXXXXX.....   ",
"OOOOO...XXXXXooooooooooooooooooooooooooooooXXXXXXXXXXXXXXXX..   ",
"OOOOO...XXXXXooooooooooooooooooooooooooooooXXXXXXXXXXXXXXXX..   ",
"OOOOO...XXXXXooooooooooooooooooooooooooooooXXXXXXXXXXXXXXXX..   ",
"OOOOO...XXXooooooooooooooooooooooooooooooooXXooooooXXXXXXXX..   ",
"OOOOO...XXXooooooooooooooooooooooooooooooooXXooooooXXXXXXXX..   ",
"OOOOO...XXXooooooooooooooooooooooooooooooooooooooooooXXXXXX..   ",
"OOOOO...XXXooooooooooooooooooooooooooooooooooooooooooXXXXXX..   ",
"OOOOO...XXXooooooooooooooooooooooooooooooooooooooooooXXXXXX..   ",
"OOOOO...XXXXXooooooooooooooooooooooooooooooooXXXXXXXX........   ",
"OOOOO...XXXXXooooooooooooooooooooooooooooooooXXXXXXXX........   ",
"OOOOO...XXXXXooooooooooooooooooooooooooooooooXXXXXXXX........   ",
"OOOOO...XXXXXooooooooooooooooooooooooooooooooXXXXXXXXXXXXXX..   ",
"OOOOO...XXXXXooooooooooooooooooooooooooooooooXXXXXXXXXXXXXX..   ",
"OOOOO...XXXooooooooooooooooooooooooooooooooooXXXoooXXXXXXXX..   ",
"OOOOO...XXXooooooooooooooooooooooooooooooooooXXXoooXXXXXXXX..   ",
"OOOOO...XXXooooooooooooooooooooooooooooooooooXXXoooXXXXXXXX..   ",
"OOOOO...XXXooooooooooooooooooooooooooooooooooooooooXXXXXXXX..   ",
"OOOOO...XXXooooooooooooooooooooooooooooooooooooooooXXXXXXXX..   ",
"OOOOO...XXXooooooooooooooooooooooooooooooooooooooooXXXXXXXX..   ",
"OOOOO...XXXXXooooooooooooooooooooooooooooooooXXXXXXXX........   ",
"OOOOO...XXXXXooooooooooooooooooooooooooooooooXXXXXXXX........   ",
"OOOOOXXXoooooooooooooooooooooooooooooooooooooooooooXXXXX.....   ",
"OOOOOXXXoooooooooooooooooooooooooooooooooooooooooooXXXXX.....   ",
"OOOOOXXXoooooooooooooooooooooooooooooooooooooooooooXXXXX.....   ",
"OOOOOXXXoooooooooooooooooooooooooooooooooooooooooooXXXXX.....   ",
"OOOOOXXXoooooooooooooooooooooooooooooooooooooooooooXXXXX.....   ",
"OOOOOXXXoooooooooooooooooooooooooooooooooooooooooooXXXXX.....   ",
"OOOOO...XXXXXooooooooooooooooooooooooooooooooXXXXXXXXXXXXXX..   ",
"OOOOO...XXXXXooooooooooooooooooooooooooooooooXXXXXXXXXXXXXX..   ",
"OOOOO...XXXooooooooooooooooooooooooooooooooooooooooooXXXXXX..   ",
"OOOOO...XXXooooooooooooooooooooooooooooooooooooooooooXXXXXX..   ",
"OOOOO...XXXooooooooooooooooooooooooooooooooooooooooooXXXXXX..   "
};
