/* XPM */
static char *result[] = {
/* columns rows colors chars-per-pixel */
"64 64 43 1 ",
"  c #266433",
". c #328E41",
"X c #328F41",
"o c #329041",
"O c #329141",
"+ c #339241",
"@ c #339341",
"# c #339441",
"$ c #339541",
"% c #339641",
"& c #339841",
"* c #349A41",
"= c #349B41",
"- c #349D41",
"; c #349E41",
": c #349F41",
"> c #34A041",
", c #34A141",
"< c #35A241",
"1 c #35A441",
"2 c #35A541",
"3 c #35A641",
"4 c #35A741",
"5 c #36A641",
"6 c #36A741",
"7 c #36A841",
"8 c #36A941",
"9 c #36AA41",
"0 c #3DA748",
"q c #63B069",
"w c #165C88",
"e c #165D89",
"r c #165E8A",
"t c #175E8C",
"y c #175F8D",
"u c #17608E",
"i c #186393",
"p c #1A6A9E",
"a c #1D77B0",
"s c #1E7CB8",
"d c #52A2D6",
"f c #5AAEE4",
"g c white",
/* pixels */
"22222227....22222222;..,22222228...*222322222223....722422222222",
"22222222....22222222;..<22222222...&222222222222....722222222222",
"22222222....22222222:..;22222224....222222222224....722222222222",
"22222222....22222222,..&22222223....722222222229....922322222222",
"22222222....22222222;.......    ........................72272222",
"22222222...@22222<..........    ........................92222222",
"22222222...@2222............    ........................42222222",
"22222229...@2222............    ........................82232229",
"2222=.......gggg........gggggggggggggggg    ....gggg............",
"2222@.......gggg........gggggggggggggggg    ....gggg............",
"2222........gggg........gggggggggggggggg    ....gggg............",
"2222........gggg........gggggggggggggggg    ....gggg............",
"2222....ggggiwwaggggggggwwwwwwwwffffffffggggggggffffgggg    ....",
"2222....ggggewwtggggggggwwwwwwwwffffffffggggggggffffgggg    ....",
"2222....ggggwwwwggggggggwwwwwwwwffffffffggggggggffffgggg    ....",
"2222....ggggwwwwggggggggwwwwwwwwffffffffggggggggffffgggg    ....",
"2222ggggffffwwwwsssssssswwwwwwwwsssswwwwwwwwwwwwssssffffgggggggg",
"2222ggggffffwwwwsssssssswwwwwwwwsssswwwwwwwwwwwwssssffffgggggggg",
"2222ggggffffwwwwsssssssswwwwwwwwsssswwwwwwwwwwwwssssffffgggggggg",
"2222ggggfffdwwwwsssssssswwwwwwwwsssswwwwwwwwwwwwssssffffgggggggg",
"2222ggggiwwwwwwwwwwwwwwwwwwwwwwwwwwwwwwwwwwwwwwwwwwwwwwwwwwwssss",
"2222ggggwwwwwwwwwwwwwwwwwwwwwwwwwwwwwwwwwwwwwwwwwwwwwwwwwwwwssss",
"2222ggggwwwwwwwwwwwwwwwwwwwwwwwwwwwwwwwwwwwwwwwwwwwwwwwwwwwwssss",
"2222ggggwwwwwwwwwwwwwwwwwwwwwwwwwwwwwwwwwwwwwwwwwwwwwwwwwwwwssss",
"2222ggggrwwwwwwwwwwwwwwwsssssssssssssssssssssssswwwwwwwwwwwwwwww",
"2222ggggwwwwwwwwwwwwwwwwsssssssssssssssssssssssswwwwwwwwwwwwwwww",
"2222ggggwwwwwwwuwwwwwwwwsssssssssssssssssssssssswwwwwwwwwwwwwwww",
"2222ggggwwwypasswwwwwwwwsssssssssssssssssssssssswwwwwwwwwwwwwwww",
"2222ggggffffsssssssssssssssssssssssssssssssssssssssswwwwwwwwwwww",
"2222ggggffffsssssssssssssssssssssssssssssssssssssssswwwwwwwwwwww",
"2222ggggffffsssssssssssssssssssssssssssssssssssssssswwwwwwwwwwww",
"2222ggggffffsssssssssssssssssssssssssssssssssssssssswwwwwwwwwwww",
"2222$..$ggggffffssssssssssssssssssssssssssssssssssssssssssssssss",
"2222X...ggggffffssssssssssssssssssssssssssssssssssssssssssssssss",
"2222....ggggffffssssssssssssssssssssssssssssssssssssssssssssssss",
"2222....ggggffffssssssssssssssssssssssssssssssssssssssssssssssss",
"2222...O....ggggssssssssssssssssssssssssssssssssssssssssssssssss",
"2222........ggggssssssssssssssssssssssssssssssssssssssssssssssss",
"2222*.......ggggssssssssssssssssssssssssssssssssssssssssssssssss",
"22222*......ggggssssssssssssssssssssssssssssssssssssssssssssssss",
"2222222,...@ggggssssssssssssssssssssssssssssssssssssssssssssssss",
"22222222X..Oggggssssssssssssssssssssssssssssssssssssssssssssssss",
"22222222#...ggggssssssssssssssssssssssssssssssssssssssssssssssss",
"22222222&...ggggssssssssssssssssssssssssssssssssssssssssssssssss",
"22222222-...ggggssssssssssssssssssssssssssssssssssssssssssssssss",
"22222222=...ggggssssssssssssssssssssssssssssssssssssssssssssssss",
"22222222=...ggggssssssssssssssssssssssssssssssssssssssssssssssss",
"22222222=...ggggssssssssssssssssssssssssssssssssssssssssssssssss",
"42222222=...ggggssssssssssssssssssssssssssssgggggggggggggggggggg",
"62222222%..Xggggssssssssssssssssssssssssssssgggggggggggggggggggg",
"42222222O..Xggggssssssssssssssssssssssssssssgggggggggggggggggggg",
"32222222o..Oggggssssssssssssssssssssssssssssgggggggggggggggggggg",
"22222222o..Oggggggggggggggggffffffffgggggggg8222222222222229....",
"22222222O..+ggggggggggggggggffffffffgggggggg2222222222222222*...",
"22222222#..$ggggggggggggggggffffffffgggggggg2222222222222222*...",
"22222222*..=222qggggggggggggffffffffgggggggg2222222222222222*...",
"2222222222222222....3224....gggggggg....322622222222222222242222",
"2222222222232222....2222....gggggggg....222222222222222222222222",
"2222222222232222....2222....gggggggg....222222222222222222222222",
"2222222222232222....2224....gggggggg....522222222222222222222222",
"2222222222212222233222222222222222222333222222222222222222222222",
"22222222222<2222222222222222222222222222222222222222222222222222",
"22222222222>2222222222222222222222222222222222222222222222222222",
"22222222222*2220222222222222222222222222222222222222222222222222"
};
