/* XPM */
static char *result[] = {
/* columns rows colors chars-per-pixel */
"64 64 23 1 ",
"  c #328E41",
". c #339341",
"X c #339741",
"o c #339A41",
"O c #35A541",
"+ c #35A641",
"@ c #35A741",
"# c #36A741",
"$ c #36A841",
"% c #36A941",
"& c #36AA41",
"* c #36AB41",
"= c #36AC41",
"- c #37AC41",
"; c #37AD41",
": c #37AE41",
"> c #39A941",
", c #3CAC42",
"< c #37B041",
"1 c #1E7CB8",
"2 c #5AAEE4",
"3 c #E9F1E9",
"4 c white",
/* pixels */
"11111111111111111111111111111111111111111111111122224444OOOOOOOO",
"11111111111111111111111111111111111111111111111122224444OOOOOOOO",
"11111111111111111111111111111111111111111111111122224444$OOOOOOO",
"11111111111111111111111111111111111111111111111122224444@OOOOOOO",
"11111111111111111111111111111111111111111111111122224444@OOOOOOO",
"11111111111111111111111111111111111111111111111122224444@OOOOOOO",
"11111111111111111111111111111111111111111111111122224444$OOOOOOO",
"11111111111111111111111111111111111111111111111122224444$OOOO+OO",
"1111111111111111111111111111111111111111111111114444    $OOOOOOO",
"1111111111111111111111111111111111111111111111114444    $OOOOOOO",
"1111111111111111111111111111111111111111111111114444    $OOOOOOO",
"1111111111111111111111111111111111111111111111114444    =OOOOOOO",
"1111111111111111111111111111111111111111111111114444=OO+&OOOOOOO",
"1111111111111111111111111111111111111111111111114444OOOOOOOOOOOO",
"1111111111111111111111111111111111111111111111114444OOOOOOOOOOOO",
"1111111111111111111111111111111111111111111111114444%OOOOOOOOOOO",
"1111111111111111111111111111111111111111111111114444<OOO+OOOOOOO",
"1111111111111111111111111111111111111111111111114444+OOOOOOOOOOO",
"1111111111111111111111111111111111111111111111114444OOOOOOOOOOOO",
"1111111111111111111111111111111111111111111111114444OOOO+OOOO+OO",
"1111111111111111111111111111111111111111111111114444... +OOOO@OO",
"1111111111111111111111111111111111111111111111114444    OOOOOOOO",
"1111111111111111111111111111111111111111111111114444    +OOOOOOO",
"1111111111111111111111111111111111111111111111114444    $OOOOOOO",
"1111111111111111111111111111111111111111111111114444    *OOOOOOO",
"1111111111111111111111111111111111111111111111114444    =OOOOOOO",
"1111111111111111111111111111111111111111111111114444    =OOOOOOO",
"1111111111111111111111111111111111111111111111114444    &OOOOOOO",
"11111111111111111111111111111111111111111111111122224444@OOOOOOO",
"11111111111111111111111111111111111111111111111122224444OOOOOOOO",
"11111111111111111111111111111111111111111111111122224444OOO+OOOO",
"11111111111111111111111111111111111111111111111122224444%OO&+OOO",
"11111111111111111111111111111111111111111111111111114444    $OOO",
"11111111111111111111111111111111111111111111111111114444    $OOO",
"11111111111111111111111111111111111111111111111111114444    $OOO",
"11111111111111111111111111111111111111111111111111114444    OOOO",
"11111111111111111111111111111111111111111111111111114444   .OOOO",
"11111111111111111111111111111111111111111111111111114444   XOOOO",
"11111111111111111111111111111111111111111111111111114444   oOOOO",
"11111111111111111111111111111111111111111111111111114444   XOOOO",
"111111111111111111111111111111111111111111111111111122224443OOOO",
"111111111111111111111111111111111111111111111111111122224444OOOO",
"111111111111111111111111111111111111111111111111111122224444OOOO",
"111111111111111111111111111111111111111111111111111122224444OOOO",
"111111111111111111111111111111111111111111111111111122224444=OOO",
"111111111111111111111111111111111111111111111111111122224444=OOO",
"111111111111111111111111111111111111111111111111111122224444$OOO",
"111111111111111111111111111111111111111111111111111122224444$OOO",
"11111111111111111111444444444444444444442222222244444444    $OOO",
"11111111111111111111444444444444444444442222222244444444    $OOO",
"11111111111111111111444444444444444444442222222244444444    $OOO",
"11111111111111111111444444444444444444442222222244444444... +OOO",
"44442222222244444444$OOOOOOOOOOOOO+&    44444444   .OOOOOOO$OOOO",
"44442222222244444444OOOOOOOOOOOOOOOO    44444444   .OOOOOOOOOOOO",
"44442222222244444444OOOOOOOOOOOOOOOO    44444444   .OOOOOOOOOOOO",
"44442222222244444444+OOOOOOOOOOOOOOO    44444444    ,OOOOOOOOOOO",
"    44444444    &++#OOOOOOOOOOOOOOOO@$%&&==:;-%+O++$>OOOOOOOOOOO",
"    44444444    OOOOOOOOOOOOOOOOOOOOOOOOOOOOOOOOOOOOOOOOOOOOOOOO",
"    44444444    OOOOOOOOOOOOOOOOOOOOOOOOOOOOOOOOOOOOOOOOOOOOOOOO",
"    44444444    *OOOOOOOOOOOOOOOOOOOOOOOOOOOOOOOOOOOOOOOOOOOOOOO",
"&+OOOOOOO++$$$@++OOOOOOOOOOOOOOOOOOOOOOOOOOOOOOOOOOOOOOOOOOOOOOO",
"OOOOOOOOOOOOOOOOOOOOOO@+OOOOOOOOOOOOOOOOOOOOOOOOOOOOOOOOOOOOOOOO",
"OOOOOOOOOOOOOOOOOOOOOOOOOOOOOOOOOOOOOOOOOOOOOOOOOOOOOOOOOOOOOOOO",
"OOOOOO+;OOOOOOOOOOOOOOOOOOOOOOOOOOOOOOOOOOOOOOOOOOOOOOOOOOOOOOOO"
};
