/* XPM */
static char *result[] = {
/* columns rows colors chars-per-pixel */
"64 64 45 1 ",
"  c #266433",
". c #266833",
"X c #286E35",
"o c #297035",
"O c #297436",
"+ c #297536",
"@ c #328E41",
"# c #328F41",
"$ c #329141",
"% c #339241",
"& c #329341",
"* c #339341",
"= c #339441",
"- c #339541",
"; c #339741",
": c #339941",
"> c #349A41",
", c #34A041",
"< c #35A241",
"1 c #34A341",
"2 c #35A541",
"3 c #35A641",
"4 c #35A741",
"5 c #36A641",
"6 c #37A641",
"7 c #36A741",
"8 c #35A941",
"9 c #36A841",
"0 c #36A941",
"q c #36AA41",
"w c #36AC41",
"e c #37AC41",
"r c #37AD41",
"t c #37AE41",
"y c #165C88",
"u c #1E7CB8",
"i c #5AAEE4",
"p c #D4E4D5",
"a c #DCE9DD",
"s c #E1ECE2",
"d c #E7F0E8",
"f c #F0F5F0",
"g c #F6F9F6",
"h c #FCFDFC",
"j c white",
/* pixels */
"6225222222222222222222222222@@@@q22222222224@@@@22222222@@@@7222",
"2222222222222222222222222222@@@@322222222222@@@@22222222@@@@3222",
"5222222222222222222222222229@@@@222222222222@@@@32222223@@@@3222",
"522222222222222499999999922q@@@@22222233223q@@@@q222222t@@@@e333",
"122222222222222e@@@@@@@@@@@@92242223@@@@@@@@@@@@@*;;O   @@@@@@@@",
"@@@2222222222224@@@@@@@@@@@@22222222@@@@@@@@@@@@@@@@    @@@@@@@@",
"@@@2222222232224@@@@@@@@@@@@22222222@@@@@@@@@@@@@@@@    @@@@@@@@",
"@@@2222222232228@@@@@@@@@@@@92222222@@@@@@@@@@@@@@@@    @@@@@@@@",
"222222222222@@@@@@@@@@@@@@@@@>,<,>@@@@@@@@@@@@@@jjjjjjjjjjjjjjjj",
"222222222222@@@@@@@@@@@@@@@@@@@@@@@@@@@@@@@@@@@@jjjjjjjjjjjjjjjj",
"222222222222@@@@@@@@@@@@@@@@@@@@@@@@@@@@@@@@@@@@jjjjjjjjjjjjjjjj",
"22222222933q@@@@@@@@@@@@@@@@@@@@@@@@@@@@@@@@@@@@jjjjjjjjjjjjjjjj",
"22222222:@@@    jjjjjjjj    @@@@@@@@jjjjjjjjjjjjyyyyyyyyiiiiiiii",
"22222222=@@@    jjjjjjjj    @@@@@@@@jjjjjjjjjjjjyyyyyyyyiiiiiiii",
"22222222&@@@    jjjjjjjj    @@@@@@@@jjjjjjjjjjjjyyyyyyyyiiiiiiii",
"22222222&@@@    jjjjjjjj    @@@@@@@@jjjjjjjjjjjjyyyyyyyyiiiiiiii",
"22222222+   jjjjiiiiiiiijjjjjjjjjjjjuuuuuuuuuuuuyyyyyyyyuuuuyyyy",
"22222222X   jjjjiiiiiiiijjjjjjjjjjjjuuuuuuuuuuuuyyyyyyyyuuuuyyyy",
"2222222r.   jjjjiiiiiiiijjjjjjjjjjjjuuuuuuuuuuuuyyyyyyyyuuuuyyyy",
"22222229o   jjjjiiiiiiiijjjjjjjjjjjjuuuuuuuuuuuuyyyyyyyyuuuuyyyy",
"22222220jjjjiiiiuuuuyyyyyyyyyyyyuuuuyyyyyyyyyyyyyyyyyyyyyyyyyyyy",
"22222229jjjjiiiiuuuuyyyyyyyyyyyyuuuuyyyyyyyyyyyyyyyyyyyyyyyyyyyy",
"22222222fjjjiiiiuuuuyyyyyyyyyyyyuuuuyyyyyyyyyyyyyyyyyyyyyyyyyyyy",
"22222222sjjjiiiiuuuuyyyyyyyyyyyyuuuuyyyyyyyyyyyyyyyyyyyyyyyyyyyy",
"22222222pjjjuuuuyyyyyyyyyyyyyyyyyyyyyyyyyyyyyyyyuuuuuuuuuuuuuuuu",
"22222222pjjjuuuuyyyyyyyyyyyyyyyyyyyyyyyyyyyyyyyyuuuuuuuuuuuuuuuu",
"22222222ajjjuuuuyyyyyyyyyyyyyyyyyyyyyyyyyyyyyyyyuuuuuuuuuuuuuuuu",
"22222222djjjuuuuyyyyyyyyyyyyyyyyyyyyyyyyyyyyyyyyuuuuuuuuuuuuuuuu",
"22222222gjjjyyyyyyyyyyyyuuuuuuuuuuuuuuuuuuuuuuuuuuuuuuuuuuuuuuuu",
"22222223hjjjyyyyyyyyyyyyuuuuuuuuuuuuuuuuuuuuuuuuuuuuuuuuuuuuuuuu",
"22222223jjjjyyyyyyyyyyyyuuuuuuuuuuuuuuuuuuuuuuuuuuuuuuuuuuuuuuuu",
"22222223jjjjyyyyyyyyyyyyuuuuuuuuuuuuuuuuuuuuuuuuuuuuuuuuuuuuuuuu",
"22222223@@@@jjjjuuuuuuuuuuuuuuuuuuuuuuuuuuuuuuuuuuuuuuuuuuuuuuuu",
"22222222#@@@jjjjuuuuuuuuuuuuuuuuuuuuuuuuuuuuuuuuuuuuuuuuuuuuuuuu",
"22222222$@@@jjjjuuuuuuuuuuuuuuuuuuuuuuuuuuuuuuuuuuuuuuuuuuuuuuuu",
"22222222%@@@jjjjuuuuuuuuuuuuuuuuuuuuuuuuuuuuuuuuuuuuuuuuuuuuuuuu",
"22222222*@@@jjjjuuuuuuuuuuuuuuuuuuuuuuuuuuuuuuuuuuuuuuuuuuuuuuuu",
"22222222-@@@jjjjuuuuuuuuuuuuuuuuuuuuuuuuuuuuuuuuuuuuuuuuuuuuuuuu",
"22222222=@@@jjjjuuuuuuuuuuuuuuuuuuuuuuuuuuuuuuuuuuuuuuuuuuuuuuuu",
"22222222*@@@jjjjuuuuuuuuuuuuuuuuuuuuuuuuuuuuuuuuuuuuuuuuuuuuuuuu",
"2222@%**#@@@jjjjuuuuuuuuuuuuuuuuuuuuuuuuuuuuuuuuuuuuuuuuuuuuuuuu",
"2222@@@@@@@@jjjjuuuuuuuuuuuuuuuuuuuuuuuuuuuuuuuuuuuuuuuuuuuuuuuu",
"2222@@@@@@@@jjjjuuuuuuuuuuuuuuuuuuuuuuuuuuuuuuuuuuuuuuuuuuuuuuuu",
"2222@@@@@@@@jjjjuuuuuuuuuuuuuuuuuuuuuuuuuuuuuuuuuuuuuuuuuuuuuuuu",
"2222@@@@jjjjuuuuuuuuuuuuuuuuuuuuuuuuuuuuuuuuuuuuuuuuuuuuuuuuuuuu",
"2222@@@@jjjjuuuuuuuuuuuuuuuuuuuuuuuuuuuuuuuuuuuuuuuuuuuuuuuuuuuu",
"3222@@@@jjjjuuuuuuuuuuuuuuuuuuuuuuuuuuuuuuuuuuuuuuuuuuuuuuuuuuuu",
"2222@@@@jjjjuuuuuuuuuuuuuuuuuuuuuuuuuuuuuuuuuuuuuuuuuuuuuuuuuuuu",
"2222jjjjiiiiuuuuuuuuuuuuuuuuuuuuuuuuuuuuuuuuuuuuuuuuuuuuuuuuuuuu",
"2222jjjjiiiiuuuuuuuuuuuuuuuuuuuuuuuuuuuuuuuuuuuuuuuuuuuuuuuuuuuu",
"2222jjjjiiiiuuuuuuuuuuuuuuuuuuuuuuuuuuuuuuuuuuuuuuuuuuuuuuuuuuuu",
"2222jjjjiiiiuuuuuuuuuuuuuuuuuuuuuuuuuuuuuuuuuuuuuuuuuuuuuuuuuuuu",
"2222jjjjuuuuuuuuuuuuuuuuuuuuuuuuuuuuuuuuuuuuuuuuuuuuuuuuuuuuuuuu",
"2222jjjjuuuuuuuuuuuuuuuuuuuuuuuuuuuuuuuuuuuuuuuuuuuuuuuuuuuuuuuu",
"2222jjjjuuuuuuuuuuuuuuuuuuuuuuuuuuuuuuuuuuuuuuuuuuuuuuuuuuuuuuuu",
"2222jjjjuuuuuuuuuuuuuuuuuuuuuuuuuuuuuuuuuuuuuuuuuuuuuuuuuuuuuuuu",
"2222jjjjuuuuuuuuuuuuuuuuuuuuuuuuuuuuuuuuuuuuuuuuuuuuuuuuuuuuuuuu",
"2223jjjjuuuuuuuuuuuuuuuuuuuuuuuuuuuuuuuuuuuuuuuuuuuuuuuuuuuuuuuu",
"2223jjjjuuuuuuuuuuuuuuuuuuuuuuuuuuuuuuuuuuuuuuuuuuuuuuuuuuuuuuuu",
"2223jjjjuuuuuuuuuuuuuuuuuuuuuuuuuuuuuuuuuuuuuuuuuuuuuuuuuuuuuuuu",
"2223jjjjiiiiuuuuuuuuuuuuuuuuuuuuuuuuuuuuuuuuuuuuuuuuuuuuuuuuuuuu",
"222qjjjjiiiiuuuuuuuuuuuuuuuuuuuuuuuuuuuuuuuuuuuuuuuuuuuuuuuuuuuu",
"222wjjjjiiiiuuuuuuuuuuuuuuuuuuuuuuuuuuuuuuuuuuuuuuuuuuuuuuuuuuuu",
"222wjjjjiiiiuuuuuuuuuuuuuuuuuuuuuuuuuuuuuuuuuuuuuuuuuuuuuuuuuuuu"
};
