/* XPM */
static char *result[] = {
/* columns rows colors chars-per-pixel */
"64 64 53 1 ",
"  c #266433",
". c #328E41",
"X c #329041",
"o c #329241",
"O c #339241",
"+ c #339341",
"@ c #339741",
"# c #339841",
"$ c #339A41",
"% c #349A41",
"& c #349E41",
"* c #349F41",
"= c #34A141",
"- c #35A241",
"; c #35A341",
": c #35A441",
"> c #35A541",
", c #36A541",
"< c #35A641",
"1 c #35A741",
"2 c #36A641",
"3 c #37A641",
"4 c #36A741",
"5 c #37A741",
"6 c #36A642",
"7 c #37A742",
"8 c #35A841",
"9 c #35A941",
"0 c #36A841",
"q c #36A941",
"w c #36AA41",
"e c #37AA41",
"r c #36AB41",
"t c #37AB41",
"y c #36AC41",
"u c #36AD41",
"i c #37AE41",
"p c #39A841",
"a c #39A842",
"s c #3BAA42",
"d c #3BAB43",
"f c #165C88",
"g c #1E7CB8",
"h c #5AAEE4",
"j c #D3E3D3",
"k c #D5E5D5",
"l c #D9E8DA",
"z c #F3F7F3",
"x c #F6F9F6",
"c c #F7FAF7",
"v c #FAFCFA",
"b c #FDFEFD",
"n c white",
/* pixels */
">>>1....i>>>>>>>>>>>&..=>>>>>>>q...%>>><>>>>>>>>>>>>>>>>>>>><>>>",
">>><...O>>>>>>>>>>>>&..->>>>>>>>...#>>>>>>>>>>>>>>>>>>>>>>>>>>>>",
">>><....>>>>>>>>>>>>*..&>>>>>>>1....>>>>>>>>>>>>>>>>>>>>>>>>>>>>",
">>>1o..O>>>>>>>>>>>>=..#>>>>>>><....0>>>>>>>>>>>>>>>>>>>>>>>>>>>",
"....w>>>>>>>>*$:>>>>&.......    .............>>>>>>>>>>><>>>>>>>",
"....>>>>>>>q...->-..........    .............>>>>>>>>>>>>>>>>>>>",
"....8>>>>>>1................    .............>>>>>>>>>>>>>>>>>>>",
"....q>>>>>>y................    .............%->>>>>>>>>>>>>>>>>",
"........................nnnnnnnnnnnnnnnn    ...%>>>>>>>%>>>>>>>>",
"........................nnnnnnnnnnnnnnnn    ...%>>>>;@+.>>>>>>>>",
"........................nnnnnnnnnnnnnnnn    ...+>>>>$...>>>>>>>>",
"........................nnnnnnnnnnnnnnnn    ...+>>>>@...1>>>>>>>",
"    ........nnnnnnnnnnnnffffffffhhhhhhhhnnnnnnnnnlkj>>>>>>>>>>>>",
"    ........nnnnnnnnnnnnffffffffhhhhhhhhnnnnnnnnnnnb>>>>>>>>>>>>",
"    ........nnnnnnnnnnnnffffffffhhhhhhhhnnnnnnnnnnnn8>>>>>>>>>>>",
"    ........nnnnnnnnnnnnffffffffhhhhhhhhnnnnnnnnnnnn8>>>>>>>>>>>",
"nnnnnnnnnnnnggggggggggggffffffffggggffffffffffffnnnn8>>>>>>>>>>>",
"nnnnnnnnnnnnggggggggggggffffffffggggffffffffffffnnnnq>>>>>>2>>>p",
"nnnnnnnnnnnnggggggggggggffffffffggggffffffffffffnnnn0>>>>>>>>>>6",
"nnnnnnnnnnnnggggggggggggffffffffggggffffffffffffnnnni>>1>>>>>>>d",
"ffffffffggggffffffffffffffffffffffffffffffffffffnnnn...#>>>5....",
"ffffffffggggffffffffffffffffffffffffffffffffffffnnnn...O>>>s....",
"ffffffffggggffffffffffffffffffffffffffffffffffffnnnn....2>>a....",
"ffffffffggggffffffffffffffffffffffffffffffffffffnnnn....3>>5+...",
"ffffffffffffffffffffffffggggggggggggggggggggggggnnnn...O>>>>><>>",
"ffffffffffffffffffffffffggggggggggggggggggggggggnnnn....w>>>>>>>",
"ffffffffffffffffffffffffggggggggggggggggggggggggnnnn....<>>>>>>>",
"ffffffffffffffffffffffffggggggggggggggggggggggggnnnn....<>>>>>>>",
"gggggggggggggggggggggggggggggggggggggggggggggggghhhhnnnn<>>>>>>>",
"gggggggggggggggggggggggggggggggggggggggggggggggghhhhnnnn<>>>>>>>",
"gggggggggggggggggggggggggggggggggggggggggggggggghhhhnnnv>>>>>>>>",
"gggggggggggggggggggggggggggggggggggggggggggggggghhhhnnnc>>>>>>>>",
"gggggggggggggggggggggggggggggggggggggggggggggggghhhhnnnx>>>>>>>>",
"gggggggggggggggggggggggggggggggggggggggggggggggghhhhnnnz>>>>>>>>",
"gggggggggggggggggggggggggggggggggggggggggggggggghhhhnnnx<>>>>>>>",
"gggggggggggggggggggggggggggggggggggggggggggggggghhhhnnnn0>>>>>>>",
"ggggggggggggggggggggggggggggggggggggggggggggggggnnnn....r>>>>>>>",
"ggggggggggggggggggggggggggggggggggggggggggggggggnnnn....t>>>>>>>",
"ggggggggggggggggggggggggggggggggggggggggggggggggnnnn....q>>>>>>>",
"ggggggggggggggggggggggggggggggggggggggggggggggggnnnn.o..0>>>>>>>",
"ggggggggggggggggggggggggggggggggggggggggggggggggnnnnu>>04>>>>>>>",
"ggggggggggggggggggggggggggggggggggggggggggggggggnnnn1>>>>>>>>>>>",
"ggggggggggggggggggggggggggggggggggggggggggggggggnnnn<>>>>>>>>>>>",
"ggggggggggggggggggggggggggggggggggggggggggggggggnnnn<>>>>>>>>>>>",
"ggggggggggggggggggggggggggggggggggggggggggggggggnnnn4>>>>>>>>>>>",
"ggggggggggggggggggggggggggggggggggggggggggggggggnnnnq>>>>>>>>>>>",
"ggggggggggggggggggggggggggggggggggggggggggggggggnnnnq>>>>>>>>>>>",
"ggggggggggggggggggggggggggggggggggggggggggggggggnnnni>><>>>>>>>>",
"nnnnnnnnnnnnhhhhggggggggggggggggggggggggggggnnnnnnnn...X>>>>>>>>",
"nnnnnnnnnnnnhhhhggggggggggggggggggggggggggggnnnnnnnn....1>>>>>>>",
"nnnnnnnnnnnnhhhhggggggggggggggggggggggggggggnnnnnnnn....1>>>>>>>",
"nnnnnnnnnnnnhhhhggggggggggggggggggggggggggggnnnnnnnn....4>>>>>>>",
"9>>>>><e....nnnnnnnnnnnnnnnnhhhhhhhhnnnnnnnnq>>>>>>>....>>>>>>>>",
">>>>>>><....nnnnnnnnnnnnnnnnhhhhhhhhnnnnnnnn>>>>>>>>....<>>>>>>>",
">>>>>>>>....nnnnnnnnnnnnnnnnhhhhhhhhnnnnnnnn>>>>>>>>....1>>>>>>>",
">>>>>>>2+++.nnnnnnnnnnnnnnnnhhhhhhhhnnnnnnnn>>>>>>>>+...0>>>>>>>",
">>>>2>><>>>>>><t....<>>1....nnnnnnnn....<>>4>>>>>>>>>>>>0>>>>>>>",
">>>>>>>>>>>>>>>>....>>>>....nnnnnnnn....>>>>>>>>>>>>>>>>q>>>>>>>",
">>>>>>>>>>>>>>>>....>>>>....nnnnnnnn....>>>>>>>>>>>>>>>><>>>>>>>",
">>>>>>>,<>>>>>>>....>>>1....nnnnnnnn....2>>>>>>>>>>>>>>>0>>>>>>>",
">>>>....>>>>>>>>><<>>>>>>>>>>>>>>>>>><<<>>>>>>>>>>>>>>>>=..&>>>>",
">>>>O...>>>>>>>>>>>>>>>>>>>>>>>>>>>>>>>>>>>>>>>>>>>>>>>>+...<>>>",
">>>>....>>>>>>>>>>>>>>>>>>>>>>>>>>>>>>>>>>>>>>>>>>>>>>>>....<>>>",
">>>7....4>>>>>>>>>>>>>>>>>>>>>>>>>>>>>>>>>>>>>>>>>>>>>>>....w>>>"
};
