/* XPM */
static char *result[] = {
/* columns rows colors chars-per-pixel */
"64 64 33 1 ",
"  c #266433",
". c #328E41",
"X c #329241",
"o c #339241",
"O c #339341",
"+ c #339841",
"@ c #339A41",
"# c #349A41",
"$ c #349E41",
"% c #349F41",
"& c #34A141",
"* c #35A241",
"= c #35A441",
"- c #35A541",
"; c #36A541",
": c #35A641",
"> c #35A741",
", c #36A641",
"< c #36A741",
"1 c #37A742",
"2 c #35A841",
"3 c #35A941",
"4 c #36A841",
"5 c #36A941",
"6 c #36AA41",
"7 c #37AA41",
"8 c #37AB41",
"9 c #36AC41",
"0 c #37AE41",
"q c #165C88",
"w c #1E7CB8",
"e c #5AAEE4",
"r c white",
/* pixels */
"--->....0-----------$..&-------5...#---:-------:....4-->--------",
"---:...o------------$..*--------...+------------....4-----------",
"---:....------------%..$------->....----------->....4-----------",
"--->X..o------------&..+-------:....4----------6....6--:--------",
"....6--------%@=----$.......    ........................4--4----",
"....-------5...*-*..........    ........................6-------",
"....2------>................    ........................>-------",
"....5------9................    ........................5--:---6",
"........................rrrrrrrrrrrrrrrr    ....rrrr............",
"........................rrrrrrrrrrrrrrrr    ....rrrr............",
"........................rrrrrrrrrrrrrrrr    ....rrrr............",
"........................rrrrrrrrrrrrrrrr    ....rrrr............",
"    ........rrrrrrrrrrrrqqqqqqqqeeeeeeeerrrrrrrreeeerrrr    ....",
"    ........rrrrrrrrrrrrqqqqqqqqeeeeeeeerrrrrrrreeeerrrr    ....",
"    ........rrrrrrrrrrrrqqqqqqqqeeeeeeeerrrrrrrreeeerrrr    ....",
"    ........rrrrrrrrrrrrqqqqqqqqeeeeeeeerrrrrrrreeeerrrr    ....",
"rrrrrrrrrrrrwwwwwwwwwwwwqqqqqqqqwwwwqqqqqqqqqqqqwwwweeeerrrrrrrr",
"rrrrrrrrrrrrwwwwwwwwwwwwqqqqqqqqwwwwqqqqqqqqqqqqwwwweeeerrrrrrrr",
"rrrrrrrrrrrrwwwwwwwwwwwwqqqqqqqqwwwwqqqqqqqqqqqqwwwweeeerrrrrrrr",
"rrrrrrrrrrrrwwwwwwwwwwwwqqqqqqqqwwwwqqqqqqqqqqqqwwwweeeerrrrrrrr",
"qqqqqqqqwwwwqqqqqqqqqqqqqqqqqqqqqqqqqqqqqqqqqqqqqqqqqqqqqqqqwwww",
"qqqqqqqqwwwwqqqqqqqqqqqqqqqqqqqqqqqqqqqqqqqqqqqqqqqqqqqqqqqqwwww",
"qqqqqqqqwwwwqqqqqqqqqqqqqqqqqqqqqqqqqqqqqqqqqqqqqqqqqqqqqqqqwwww",
"qqqqqqqqwwwwqqqqqqqqqqqqqqqqqqqqqqqqqqqqqqqqqqqqqqqqqqqqqqqqwwww",
"qqqqqqqqqqqqqqqqqqqqqqqqwwwwwwwwwwwwwwwwwwwwwwwwqqqqqqqqqqqqqqqq",
"qqqqqqqqqqqqqqqqqqqqqqqqwwwwwwwwwwwwwwwwwwwwwwwwqqqqqqqqqqqqqqqq",
"qqqqqqqqqqqqqqqqqqqqqqqqwwwwwwwwwwwwwwwwwwwwwwwwqqqqqqqqqqqqqqqq",
"qqqqqqqqqqqqqqqqqqqqqqqqwwwwwwwwwwwwwwwwwwwwwwwwqqqqqqqqqqqqqqqq",
"wwwwwwwwwwwwwwwwwwwwwwwwwwwwwwwwwwwwwwwwwwwwwwwwwwwwqqqqqqqqqqqq",
"wwwwwwwwwwwwwwwwwwwwwwwwwwwwwwwwwwwwwwwwwwwwwwwwwwwwqqqqqqqqqqqq",
"wwwwwwwwwwwwwwwwwwwwwwwwwwwwwwwwwwwwwwwwwwwwwwwwwwwwqqqqqqqqqqqq",
"wwwwwwwwwwwwwwwwwwwwwwwwwwwwwwwwwwwwwwwwwwwwwwwwwwwwqqqqqqqqqqqq",
"wwwwwwwwwwwwwwwwwwwwwwwwwwwwwwwwwwwwwwwwwwwwwwwwwwwwwwwwwwwwwwww",
"wwwwwwwwwwwwwwwwwwwwwwwwwwwwwwwwwwwwwwwwwwwwwwwwwwwwwwwwwwwwwwww",
"wwwwwwwwwwwwwwwwwwwwwwwwwwwwwwwwwwwwwwwwwwwwwwwwwwwwwwwwwwwwwwww",
"wwwwwwwwwwwwwwwwwwwwwwwwwwwwwwwwwwwwwwwwwwwwwwwwwwwwwwwwwwwwwwww",
"wwwwwwwwwwwwwwwwwwwwwwwwwwwwwwwwwwwwwwwwwwwwwwwwwwwwwwwwwwwwwwww",
"wwwwwwwwwwwwwwwwwwwwwwwwwwwwwwwwwwwwwwwwwwwwwwwwwwwwwwwwwwwwwwww",
"wwwwwwwwwwwwwwwwwwwwwwwwwwwwwwwwwwwwwwwwwwwwwwwwwwwwwwwwwwwwwwww",
"wwwwwwwwwwwwwwwwwwwwwwwwwwwwwwwwwwwwwwwwwwwwwwwwwwwwwwwwwwwwwwww",
"wwwwwwwwwwwwwwwwwwwwwwwwwwwwwwwwwwwwwwwwwwwwwwwwwwwwwwwwwwwwwwww",
"wwwwwwwwwwwwwwwwwwwwwwwwwwwwwwwwwwwwwwwwwwwwwwwwwwwwwwwwwwwwwwww",
"wwwwwwwwwwwwwwwwwwwwwwwwwwwwwwwwwwwwwwwwwwwwwwwwwwwwwwwwwwwwwwww",
"wwwwwwwwwwwwwwwwwwwwwwwwwwwwwwwwwwwwwwwwwwwwwwwwwwwwwwwwwwwwwwww",
"wwwwwwwwwwwwwwwwwwwwwwwwwwwwwwwwwwwwwwwwwwwwwwwwwwwwwwwwwwwwwwww",
"wwwwwwwwwwwwwwwwwwwwwwwwwwwwwwwwwwwwwwwwwwwwwwwwwwwwwwwwwwwwwwww",
"wwwwwwwwwwwwwwwwwwwwwwwwwwwwwwwwwwwwwwwwwwwwwwwwwwwwwwwwwwwwwwww",
"wwwwwwwwwwwwwwwwwwwwwwwwwwwwwwwwwwwwwwwwwwwwwwwwwwwwwwwwwwwwwwww",
"rrrrrrrrrrrreeeewwwwwwwwwwwwwwwwwwwwwwwwwwwwrrrrrrrrrrrrrrrrrrrr",
"rrrrrrrrrrrreeeewwwwwwwwwwwwwwwwwwwwwwwwwwwwrrrrrrrrrrrrrrrrrrrr",
"rrrrrrrrrrrreeeewwwwwwwwwwwwwwwwwwwwwwwwwwwwrrrrrrrrrrrrrrrrrrrr",
"rrrrrrrrrrrreeeewwwwwwwwwwwwwwwwwwwwwwwwwwwwrrrrrrrrrrrrrrrrrrrr",
"3-----:7....rrrrrrrrrrrrrrrreeeeeeeerrrrrrrr5--------------6....",
"-------:....rrrrrrrrrrrrrrrreeeeeeeerrrrrrrr----------------#...",
"--------....rrrrrrrrrrrrrrrreeeeeeeerrrrrrrr----------------#...",
"-------,OOO.rrrrrrrrrrrrrrrreeeeeeeerrrrrrrr----------------#...",
"----,--:------:8....:-->....rrrrrrrr....:--<--------------->----",
"----------------....----....rrrrrrrr....------------------------",
"----------------....----....rrrrrrrr....------------------------",
"-------;:-------....--->....rrrrrrrr....,-----------------------",
"----....---------::------------------:::------------------------",
"----o...--------------------------------------------------------",
"----....--------------------------------------------------------",
"---1....<-------------------------------------------------------"
};
