/* XPM */
static char *result[] = {
/* columns rows colors chars-per-pixel */
"64 64 70 1 ",
"  c #266433",
". c #31953D",
"X c #328E41",
"o c #329041",
"O c #329241",
"+ c #339341",
"@ c #339841",
"# c #349A41",
"$ c #349B41",
"% c #349C41",
"& c #349D41",
"* c #349E41",
"= c #349F41",
"- c #329E4E",
"; c #34A040",
": c #34A141",
"> c #34A240",
", c #35A241",
"< c #34A440",
"1 c #34A441",
"2 c #35A541",
"3 c #35A641",
"4 c #35A741",
"5 c #36A641",
"6 c #36A741",
"7 c #34A444",
"8 c #36A841",
"9 c #36A941",
"0 c #36AA41",
"q c #36AB41",
"w c #37AB41",
"e c #36AD41",
"r c #37AD41",
"t c #37AE41",
"y c #37AF41",
"u c #38AA41",
"i c #37B041",
"p c #37B141",
"a c #38B041",
"s c #38B441",
"d c #39B641",
"f c #39B741",
"g c #41A74B",
"h c #5EAE64",
"j c #61AF67",
"k c #165C88",
"l c #165D89",
"z c #165E8A",
"x c #175E8C",
"c c #175F8D",
"v c #17608E",
"b c #186393",
"n c #1A6A9E",
"m c #1D77B0",
"M c #1E7CB8",
"N c #52A2D6",
"B c #5AAEE4",
"V c #CCD2D9",
"C c #E9F1E9",
"Z c #EEF4EE",
"A c #F5F9F5",
"S c #F6F7F8",
"D c #F8F8F9",
"F c #F8FAF8",
"G c #FBFCFB",
"H c #FBFCFC",
"J c #FCFDFD",
"K c #FDFDFE",
"L c #FEFEFE",
"P c white",
/* pixels */
"22222228XXXX22222222*XX:22222229XXX#222322222223XXXX822422222222",
"22222222XXXX22222222*XX,22222222XXX@222222222222XXXX822222222222",
"22222222XXXX22222222=XX*22222224XXXX222222222224XXXX822222222222",
"22222222XXXX22222222:XX@22222223XXXX822222222220XXXX022322222222",
"22222222XXXX22222222*XXXXXXX    XXXXXXXXXXXXXXXXXXXXXXXX82282222",
"22222222XXX+22222,XXXXXXXXXX    XXXXXXXXXXXXXXXXXXXXXXXX02222222",
"22222222XXX+2222XXXXXXXXXXXX    XXXXXXXXXXXXXXXXXXXXXXXX42222222",
"22222220XXX+2222XXXXXXXXXXXX    XXXXXXXXXXXXXXXXXXXXXXXX92222222",
"2222$XXXXXXXPPPPXXXXXXXXPPPPPPPPPPPPPPPP    XXXXPPPPXXXXXX222222",
"2222+XXXXXXXPPPPXXXXXXXXPPPPPPPPPPPPPPPP    XXXXPPPPXXXXXX222222",
"2222XXXXXXXXPPPPXXXXXXXXPPPPPPPPPPPPPPPP    XXXXPPPPXXXXXX222222",
"2222XXXXXXXXPPPPXXXXXXXXPPPPPPPPPPPPPPPP    XXXXPPPPXXXXXX222222",
"2222XXXXPPPPbkkmPPPPPPPPkkkkkkkkBBBBBBBBPPPPPPPPBBBBPPPP  <22222",
"2222XXXXPPPPlkkxPPPPPPPPkkkkkkkkBBBBBBBBPPPPPPPPBBBBPPPP  >22222",
"2222XXXXPPPPkkkkPPPPPPPPkkkkkkkkBBBBBBBBPPPPPPPPBBBBPPPP  ;22222",
"2222XXXXPPPPkkkkPPPPPPPPkkkkkkkkBBBBBBBBPPPPPPPPBBBBPPPP  .22222",
"2222PPPPBBBBkkkkMMMMMMMMkkkkkkkkMMMMkkkkkkkkkkkkMMMMBBBBPPZg2222",
"2222PPPPBBBBkkkkMMMMMMMMkkkkkkkkMMMMkkkkkkkkkkkkMMMMBBBBPPPh2222",
"2222PPPPBBBBkkkkMMMMMMMMkkkkkkkkMMMMkkkkkkkkkkkkMMMMBBBBPPPh2222",
"2222PPPPBBBNkkkkMMMMMMMMkkkkkkkkMMMMkkkkkkkkkkkkMMMMBBBBPPPj2222",
"2222PPPPbkkkkkkkkkkkkkkkkkkkkkkkkkkkkkkkkkkkkkkkkkkkkkkkPPP22222",
"2222PPPPkkkkkkkkkkkkkkkkkkkkkkkkkkkkkkkkkkkkkkkkkkkkkkkkPPP22222",
"2222PPPPkkkkkkkkkkkkkkkkkkkkkkkkkkkkkkkkkkkkkkkkkkkkkkkkPPP22222",
"2222PPPPkkkkkkkkkkkkkkkkkkkkkkkkkkkkkkkkkkkkkkkkkkkkkkkVPPP22222",
"2222PPPPzkkkkkkkkkkkkkkkMMMMMMMMMMMMMMMMMMMMMMMMkkkkkkkSPPP22222",
"2222PPPPkkkkkkkkkkkkkkkkMMMMMMMMMMMMMMMMMMMMMMMMkkkkkkkHPPP22222",
"2222PPPPkkkkkkkvkkkkkkkkMMMMMMMMMMMMMMMMMMMMMMMMkkkkkkkHPPP22222",
"2222PPPPkkkcnmMMkkkkkkkkMMMMMMMMMMMMMMMMMMMMMMMMkkkkkkkDPPP22222",
"2222PPPPBBBBMMMMMMMMMMMMMMMMMMMMMMMMMMMMMMMMMMMMMMMMkkkDPPP22222",
"2222PPPPBBBBMMMMMMMMMMMMMMMMMMMMMMMMMMMMMMMMMMMMMMMMkkkKPPP22222",
"2222PPPPBBBBMMMMMMMMMMMMMMMMMMMMMMMMMMMMMMMMMMMMMMMMkkkLPPP22227",
"2222PPPPBBBBMMMMMMMMMMMMMMMMMMMMMMMMMMMMMMMMMMMMMMMMkkkJPPP2222-",
"22222320PPPPBBBBMMMMMMMMMMMMMMMMMMMMMMMMMMMMMMMMBBBBPPPGPPP22222",
"22222223PPPPBBBBMMMMMMMMMMMMMMMMMMMMMMMMMMMMMMMMBBBBPPPAPPP22222",
"22222223PPPPBBBBMMMMMMMMMMMMMMMMMMMMMMMMMMMMMMMMBBBBPPPFPPP22222",
"22222222PPPPBBBBMMMMMMMMMMMMMMMMMMMMMMMMMMMMMMMMBBBBPPPPPPC22222",
"22222222XXXXPPPPMMMMMMMMMMMMMMMMMMMMMMMMMMMMMMMMPPPPXXXXq2222222",
"22222222%XXXPPPPMMMMMMMMMMMMMMMMMMMMMMMMMMMMMMMMPPPPXXXXw2222222",
"2222222222+XPPPPMMMMMMMMMMMMMMMMMMMMMMMMMMMMMMMMPPPPXXXX92222222",
"22222222221XPPPPMMMMMMMMMMMMMMMMMMMMMMMMMMMMMMMMPPPPXOXX82222222",
"22222222222uPPPPMMMMMMMMMMMMMMMMMMMMMMMMMMMMMMMMPPPPe22862222222",
"222222222225PPPPMMMMMMMMMMMMMMMMMMMMMMMMMMMMMMMMPPPP422222222222",
"222222222225PPPPMMMMMMMMMMMMMMMMMMMMMMMMMMMMMMMMPPPP322222222222",
"22222222222rPPPPMMMMMMMMMMMMMMMMMMMMMMMMMMMMMMMMPPPP322222222222",
"22222222222iPPPPMMMMMMMMMMMMMMMMMMMMMMMMMMMMMMMMPPPP622222222222",
"222222222220PPPPMMMMMMMMMMMMMMMMMMMMMMMMMMMMMMMMPPPP922222222222",
"22222222222qPPPPMMMMMMMMMMMMMMMMMMMMMMMMMMMMMMMMPPPP922222222222",
"22222222222yPPPPMMMMMMMMMMMMMMMMMMMMMMMMMMMMMMMMPPPPt22322222222",
"42222222222aPPPPMMMMMMMMMMMMMMMMMMMMMMMMMMMMMMMMPPPPXXXo22222222",
"62222222222pPPPPMMMMMMMMMMMMMMMMMMMMMMMMMMMMMMMMPPPPXXXX42222222",
"42222222222dPPPPMMMMMMMMMMMMMMMMMMMMMMMMMMMMMMMMPPPPXXXX42222222",
"32222222222fPPPPMMMMMMMMMMMMMMMMMMMMMMMMMMMMMMMMPPPPXXXX62222222",
"22222222222sPPPPMMMMMMMMMMMMMMMMMMMMMMMMMMMMMMMMPPPPXXXX22222222",
"22222222222tPPPPMMMMMMMMMMMMMMMMMMMMMMMMMMMMMMMMPPPPXXXX32222222",
"222222222229PPPPMMMMMMMMMMMMMMMMMMMMMMMMMMMMMMMMPPPPXXXX42222222",
"222222222226PPPPMMMMMMMMMMMMMMMMMMMMMMMMMMMMMMMMPPPPXXXX82222222",
"222222222226PPPPMMMMMMMMMMMMMMMMMMMMMMMMMMMMMMMMBBBBPPPP82222222",
"222222222220PPPPMMMMMMMMMMMMMMMMMMMMMMMMMMMMMMMMBBBBPPPP92222222",
"22222222222qPPPPMMMMMMMMMMMMMMMMMMMMMMMMMMMMMMMMBBBBPPPP02222222",
"22222222222qPPPPMMMMMMMMMMMMMMMMMMMMMMMMMMMMMMMMBBBBPPPPs2222222",
"22222222222:PPPPMMMMMMMMMMMMMMMMMMMMMMMMMMMMMMMMMMMMPPPPXXX*2222",
"22222222222&PPPPMMMMMMMMMMMMMMMMMMMMMMMMMMMMMMMMMMMMPPPPXXXX3222",
"22222222222@PPPPMMMMMMMMMMMMMMMMMMMMMMMMMMMMMMMMMMMMPPPPXXXX3222",
"22222222222XPPPPMMMMMMMMMMMMMMMMMMMMMMMMMMMMMMMMMMMMPPPPXXXX0222"
};
