/* XPM */
static char *result[] = {
/* columns rows colors chars-per-pixel */
"64 64 30 1 ",
"  c #328E41",
". c #339341",
"X c #339841",
"o c #349B41",
"O c #349C41",
"+ c #349D41",
"@ c #34A141",
"# c #34A441",
"$ c #35A541",
"% c #35A641",
"& c #35A741",
"* c #36A641",
"= c #36A741",
"- c #36A841",
"; c #36A941",
": c #36AA41",
"> c #36AB41",
", c #37AD41",
"< c #37AE41",
"1 c #37AF41",
"2 c #38AA41",
"3 c #37B041",
"4 c #37B141",
"5 c #38B041",
"6 c #38B441",
"7 c #39B641",
"8 c #39B741",
"9 c #1E7CB8",
"0 c #5AAEE4",
"q c white",
/* pixels */
"$$$$$$$-    qqqq999999999999999999999999999999999999999999999999",
"$$$$$$$$    qqqq999999999999999999999999999999999999999999999999",
"$$$$$$$$    qqqq999999999999999999999999999999999999999999999999",
"$$$$$$$$    qqqq999999999999999999999999999999999999999999999999",
"$$$$$$$$    qqqq999999999999999999999999999999999999999999999999",
"$$$$$$$$    qqqq999999999999999999999999999999999999999999999999",
"$$$$$$$$    qqqq999999999999999999999999999999999999999999999999",
"$$$$$$$:    qqqq999999999999999999999999999999999999999999999999",
"$$$$o       qqqq999999999999999999999999999999999999999999999999",
"$$$$.       qqqq999999999999999999999999999999999999999999999999",
"$$$$        qqqq999999999999999999999999999999999999999999999999",
"$$$$        qqqq999999999999999999999999999999999999999999999999",
"$$$$    qqqq9999999999999999999999999999999999999999999999999999",
"$$$$    qqqq9999999999999999999999999999999999999999999999999999",
"$$$$    qqqq9999999999999999999999999999999999999999999999999999",
"$$$$    qqqq9999999999999999999999999999999999999999999999999999",
"$$$$qqqq00009999999999999999999999999999999999999999999999999999",
"$$$$qqqq00009999999999999999999999999999999999999999999999999999",
"$$$$qqqq00009999999999999999999999999999999999999999999999999999",
"$$$$qqqq00009999999999999999999999999999999999999999999999999999",
"$$$$qqqq99999999999999999999999999999999999999999999999999999999",
"$$$$qqqq99999999999999999999999999999999999999999999999999999999",
"$$$$qqqq99999999999999999999999999999999999999999999999999999999",
"$$$$qqqq99999999999999999999999999999999999999999999999999999999",
"$$$$qqqq99999999999999999999999999999999999999999999999999999999",
"$$$$qqqq99999999999999999999999999999999999999999999999999999999",
"$$$$qqqq99999999999999999999999999999999999999999999999999999999",
"$$$$qqqq99999999999999999999999999999999999999999999999999999999",
"$$$$qqqq00009999999999999999999999999999999999999999999999999999",
"$$$$qqqq00009999999999999999999999999999999999999999999999999999",
"$$$$qqqq00009999999999999999999999999999999999999999999999999999",
"$$$$qqqq00009999999999999999999999999999999999999999999999999999",
"$$$$$%$:qqqq0000999999999999999999999999999999999999999999999999",
"$$$$$$$%qqqq0000999999999999999999999999999999999999999999999999",
"$$$$$$$%qqqq0000999999999999999999999999999999999999999999999999",
"$$$$$$$$qqqq0000999999999999999999999999999999999999999999999999",
"$$$$$$$$    qqqq999999999999999999999999999999999999999999999999",
"$$$$$$$$O   qqqq999999999999999999999999999999999999999999999999",
"$$$$$$$$$$. qqqq999999999999999999999999999999999999999999999999",
"$$$$$$$$$$# qqqq999999999999999999999999999999999999999999999999",
"$$$$$$$$$$$2qqqq999999999999999999999999999999999999999999999999",
"$$$$$$$$$$$*qqqq999999999999999999999999999999999999999999999999",
"$$$$$$$$$$$*qqqq999999999999999999999999999999999999999999999999",
"$$$$$$$$$$$,qqqq999999999999999999999999999999999999999999999999",
"$$$$$$$$$$$3qqqq999999999999999999999999999999999999999999999999",
"$$$$$$$$$$$:qqqq999999999999999999999999999999999999999999999999",
"$$$$$$$$$$$>qqqq999999999999999999999999999999999999999999999999",
"$$$$$$$$$$$1qqqq999999999999999999999999999999999999999999999999",
"&$$$$$$$$$$5qqqq999999999999999999999999999999999999999999999999",
"=$$$$$$$$$$4qqqq999999999999999999999999999999999999999999999999",
"&$$$$$$$$$$7qqqq999999999999999999999999999999999999999999999999",
"%$$$$$$$$$$8qqqq999999999999999999999999999999999999999999999999",
"$$$$$$$$$$$6qqqq999999999999999999999999999999999999999999999999",
"$$$$$$$$$$$<qqqq999999999999999999999999999999999999999999999999",
"$$$$$$$$$$$;qqqq999999999999999999999999999999999999999999999999",
"$$$$$$$$$$$=qqqq999999999999999999999999999999999999999999999999",
"$$$$$$$$$$$=qqqq999999999999999999999999999999999999999999999999",
"$$$$$$$$$$$:qqqq999999999999999999999999999999999999999999999999",
"$$$$$$$$$$$>qqqq999999999999999999999999999999999999999999999999",
"$$$$$$$$$$$>qqqq999999999999999999999999999999999999999999999999",
"$$$$$$$$$$$@qqqq999999999999999999999999999999999999999999999999",
"$$$$$$$$$$$+qqqq999999999999999999999999999999999999999999999999",
"$$$$$$$$$$$Xqqqq999999999999999999999999999999999999999999999999",
"$$$$$$$$$$$ qqqq999999999999999999999999999999999999999999999999"
};
