/* XPM */
static char *result[] = {
/* columns rows colors chars-per-pixel */
"64 64 53 1 ",
"  c #266433",
". c #266533",
"X c #266534",
"o c #276534",
"O c #286734",
"+ c #276935",
"@ c #286F35",
"# c #296E36",
"$ c #2A743A",
"% c #2C7A3A",
"& c #2C7B3A",
"* c #2D7E3B",
"= c #30883F",
"- c #318A3F",
"; c #318C40",
": c #328E41",
"> c #329141",
", c #329241",
"< c #339241",
"1 c #339341",
"2 c #339441",
"3 c #339841",
"4 c #339A41",
"5 c #349A41",
"6 c #349C41",
"7 c #349E41",
"8 c #349F41",
"9 c #34A141",
"0 c #35A241",
"q c #35A441",
"w c #35A541",
"e c #35A641",
"r c #35A741",
"t c #35A841",
"y c #36A841",
"u c #36A941",
"i c #36AA41",
"p c #36AC41",
"a c #37AE41",
"s c #165C88",
"d c #1E7CB8",
"f c #5AAEE4",
"g c #BDCCDF",
"h c #D4E0D5",
"j c #E9EEE9",
"k c #E1E7F0",
"l c #F4F6F9",
"z c #F6F8FA",
"x c #F8F9FB",
"c c #FDFDFE",
"v c #FEFEFE",
"b c #FEFEFF",
"n c white",
/* pixels */
"wwwr::::awwwwwwwwwww7::9wwwwwwwu:::5wwwewwwwwwwe::::ywwrwwwwwwww",
"wwwe:::<wwwwwwwwwwww7::0wwwwwwww:::3wwwwwwwwwwww::::ywwwwwwwwwww",
"wwwe::::wwwwwwwwwwww8::7wwwwwwwr::::wwwwwwwwwwwr::::ywwwwwwwwwww",
"wwwr,::<wwwwwwwwwwww9::3wwwwwwwe::::ywwwwwwwwwwi::::iwwewwwwwwww",
"::::iwwwwwwww84qwwww7:::::::    ::::::::::::::::::::::::ywwywwww",
"::::wwwwwwwu:::0w0::::::::::    ::::::::::::::::::::::::iwwwwwww",
"::::twwwwwwr::::::::::::::::    ::::::::::::::::::::::::rwwwwwww",
"::::uwwwwwwp::::::::::::::::    ::::::::::::::::::::::::uwwewwwi",
"::::::::::::::::::::::::nnnnnnnnnnnnnnnn    ::::nnnn::::::::::::",
"::::::::::::::::::::::::nnnnnnnnnnnnnnnn    ::::nnnn::::::::::::",
"::::::::::::::::::::::::nnnnnnnnnnnnnnnn    ::::nnnn::::::::::::",
"::::::::::::::::::::::::nnnnnnnnnnnnnnnn    ::::nnnn::::::::::::",
"    ::::::::nnnnnnnnnnnnssssssssffffffffnnnnnnnnffffnnnn    ::::",
"    ::::::::nnnnnnnnnnnnssssssssffffffffnnnnnnnnffffnnnn    ::::",
"    ::::::::nnnnnnnnnnnnssssssssffffffffnnnnnnnnffffnnnn    ::::",
"    ::::::::nnnnnnnnnnnnssssssssffffffffnnnnnnnnffffnnnn    ::::",
"nnnnnnnnnnnnddddddddddddssssssssddddssssssssssssddddffffnnnnnnnn",
"nnnnnnnnnnnnddddddddddddssssssssddddssssssssssssddddffffnnnnnnnn",
"nnnnnnnnnnnnddddddddddddssssssssddddssssssssssssddddffffnnnnnnnn",
"nnnnnnnnnnnnddddddddddddssssssssddddssssssssssssddddffffnnnnnnnn",
"ssssssssddddssssssssssssssssssssssssssssssssssssssssssssssssdddd",
"ssssssssddddssssssssssssssssssssssssssssssssssssssssssssssssdddd",
"ssssssssddddssssssssssssssssssssssssssssssssssssssssssssssssdddd",
"ssssssssddddssssssssssssssssssssssssssssssssssssssssssssssssdddd",
"ssssssssssssssssssssssssddddddddddddddddddddddddssssssssssssssss",
"ssssssssssssssssssssssssddddddddddddddddddddddddssssssssssssssss",
"ssssssssssssssssssssssssddddddddddddddddddddddddssssssssssssssss",
"ssssssssssssssssssssssssddddddddddddddddddddddddssssssssssssssss",
"ddddddddddddddddddddddddddddddddddddddddddddddddddddssssssssssss",
"ddddddddddddddddddddddddddddddddddddddddddddddddddddssssssssssss",
"ddddddddddddddddddddddddddddddddddddddddddddddddddddssssssssssss",
"ddddddddddddddddddddddddddddddddddddddddddddddddddddssssssssssss",
"dddddddddddddddddddddddddddddddddddddddddddddddddddddddddddddddd",
"dddddddddddddddddddddddddddddddddddddddddddddddddddddddddddddddd",
"dddddddddddddddddddddddddddddddddddddddddddddddddddddddddddddddd",
"dddddddddddddddddddddddddddddddddddddddddddddddddddddddddddddddd",
"dddddddddddddddddddddddddddddddddddddddddddddddddddddddddddddddd",
"dddddddddddddddddddddddddddddddddddddddddddddddddddddddddddddddd",
"dddddddddddddddddddddddddddddddddddddddddddddddddddddddddddddddd",
"dddddddddddddddddddddddddddddddddddddddddddddddddddddddddddddddd",
"dddddddddddddddddddddddddddddddddddddddddddddddddddddddddddddddd",
"dddddddddddddddddddddddddddddddddddddddddddddddddddddddddddddddd",
"dddddddddddddddddddddddddddddddddddddddddddddddddddddddddddddddd",
"dddddddddddddddddddddddddddddddddddddddddddddddddddddddddddddddd",
"dddddddddddddddddddddddddddddddddddddddddddddddddddddddddddddddd",
"dddddddddddddddddddddddddddddddddddddddddddddddddddddddddddddddd",
"dddddddddddddddddddddddddddddddddddddddddddddddddddddddddddddddd",
"dddddddddddddddddddddddddddddddddddddddddddddddddddddddddddddddd",
"dddddddddddddddddddddddddddddddddddddddddddddddddddddddddddddddd",
"dddddddddddddddddddddddddddddddddddddddddddddddddddddddddddddddd",
"dddddddddddddddddddddddddddddddddddddddddddddddgnnnkddddddcnnnnz",
"dddddddddddddddddddddddddddddddddddddddddddddddxnnnnnnnnnnnnnnnn",
"dddddddddddddddddddddddddddddddddddddddddddddddbnnnnnnnnnnnnnnnn",
"dddddddddddddddddddddddddddddddddddddddddddddddvnnnnnnnnnnnnnnvz",
"dddddddddddddddddddddddddddddddddddddddddddddddlnnnnnnnnjhhjnn@ ",
"ddddddddddddddddddddddddddddddddddddddddddddddddnnnnO  .:::::.. ",
"ddddddddddddddddddddddddddddddddddddddddddddddddnnnn    :::::#+ ",
"ddddddddddddddddddddddddddddddddddddddddddddddddnnnn   &::::::;-",
"ddddddddddddddddddddddddddddddddddddddddddddddddnnnn=:::::w5::::",
"ddddddddddddddddddddddddddddddddddddddddddddddddnnnn::::::w61:::",
"ddddddddddddddddddddddddddddddddddddddddddddddddnnnn:::::5www2>>",
"ddddddddddddddddddddddddddddddddddddddddddddddddnnnn$%*&9wwwwwww",
"ddddddddddddddddddddddddddddddddddddddddddddddddnnnno   wwwwwwww",
"ddddddddddddddddddddddddddddddddddddddddddddddddcnnnX   wwwwwwww"
};
