/* XPM */
static char *result[] = {
/* columns rows colors chars-per-pixel */
"64 64 26 1 ",
"  c #266433",
". c #328E41",
"X c #329A41",
"o c #33A041",
"O c #33A141",
"+ c #33A241",
"@ c #35A541",
"# c #35A641",
"$ c #35A741",
"% c #36A641",
"& c #36A741",
"* c #37A741",
"= c #38A741",
"- c #35A841",
"; c #36A841",
": c #36A941",
"> c #36AA41",
", c #36AB41",
"< c #36AC41",
"1 c #37AD41",
"2 c #3DAC42",
"3 c #3FAD42",
"4 c #165C88",
"5 c #1E7CB8",
"6 c #5AAEE4",
"7 c white",
/* pixels */
">@@@....;@@@@@@@@@@@....@@@@@@@@@@@@@@@@@@@@@@@@@@@@@@@@@@@#@@@@",
"@@@@....@@@@@@@@@@@@....@@@@@@@@@@@@@@@@@@@@@@@@@@@@@@@@@@@@@@@@",
"@@@@....@@@@@@@@@@@@....#@@@@@@@@@@@@@@@@@@@@@@@@@@@@@@@@@@@@@@@",
"&@@@....>@@@@@@@@@@@....#@@@@@@@@@@@@@@@@@@@@@@@@@@@@@@##@@@@@@@",
"    ....................XO+o:@@@@@@@@@@@........@@@#....;@@@@@@@",
"    ........................@@@@@@@@@@@@........@@@@....;@@@@@@@",
"    ........................@@@@@@@@@@@@........@@@@....;@@@@@@@",
"    ........................&@@;##@@@@@&........@@@@....;@@@@@@@",
"777777777777    ....7777................................;@@@@@@@",
"777777777777    ....7777................................#@@@@@@@",
"777777777777    ....7777................................;@@@@@@@",
"777777777777    ....7777................................>@@@@@@@",
"4444666666667777777766667777    ....    77777777    ........@@@@",
"4444666666667777777766667777    ....    77777777    ........@@@@",
"4444666666667777777766667777    ....    77777777    ........@@@@",
"4444666666667777777766667777    ....    77777777    ........@@@#",
"44445555444444444444555566667777777777776666666677777777....@@@$",
"44445555444444444444555566667777777777776666666677777777....@@@$",
"44445555444444444444555566667777777777776666666677777777....@@@$",
"44445555444444444444555566667777777777776666666677777777....@@@$",
"444444444444444444444444444444445555444444444444555566667777@@@$",
"444444444444444444444444444444445555444444444444555566667777@@@$",
"444444444444444444444444444444445555444444444444555566667777@@@$",
"444444444444444444444444444444445555444444444444555566667777@@@$",
"555555555555555555554444444444444444444444444444444466667777@@@$",
"555555555555555555554444444444444444444444444444444466667777@@@$",
"555555555555555555554444444444444444444444444444444466667777@@@$",
"555555555555555555554444444444444444444444444444444466667777@@@$",
"55555555555555555555555544444444444444445555444444447777....@@@$",
"55555555555555555555555544444444444444445555444444447777....@@@;",
"55555555555555555555555544444444444444445555444444447777....@@@#",
"55555555555555555555555544444444444444445555444444447777....@@@@",
"55555555555555555555555555555555555555555555555555557777:#@&@@@@",
"55555555555555555555555555555555555555555555555555557777@@@@@@@@",
"55555555555555555555555555555555555555555555555555557777@@@@@@@@",
"55555555555555555555555555555555555555555555555555557777#@@@@@@@",
"55555555555555555555555555555555555555555555555555557777;@@@@@@@",
"55555555555555555555555555555555555555555555555555557777;@@@@@@@",
"55555555555555555555555555555555555555555555555555557777,@@@@@@@",
"55555555555555555555555555555555555555555555555555557777$@@@@@@@",
"5555555555555555555555555555555555555555555555557777....@@@@@@@@",
"5555555555555555555555555555555555555555555555557777....@@@@@@@@",
"5555555555555555555555555555555555555555555555557777....@@@@@@@@",
"5555555555555555555555555555555555555555555555557777....@@@@@@@@",
"5555555555555555555555555555555555555555555555557777>@@@@@@@@@@@",
"5555555555555555555555555555555555555555555555557777#@@@@@@@@@@@",
"5555555555555555555555555555555555555555555555557777@@@@@@@@@@@@",
"5555555555555555555555555555555555555555555555557777@@@@@@@@@@@3",
"5555555555555555555555555555555555555555555555557777@@@@@@@@@@@@",
"5555555555555555555555555555555555555555555555557777#@@@@@@@@@@@",
"5555555555555555555555555555555555555555555555557777#@@@@@@@@@@@",
"55555555555555555555555555555555555555555555555577771###@@@@=*%2",
"5555555555555555555555555555555555555555555555557777....@@@@....",
"5555555555555555555555555555555555555555555555557777....@@@%....",
"5555555555555555555555555555555555555555555555557777....@@@*....",
"5555555555555555555555555555555555555555555555557777....@@@@....",
"5555555555555555555555555555555555555555555555557777....#@@@>#@@",
"5555555555555555555555555555555555555555555555557777....;@@@@@@@",
"5555555555555555555555555555555555555555555555557777....>@@@@@@@",
"5555555555555555555555555555555555555555555555557777....-@@@@@@@",
"55555555555555555555555555555555555555555555555566667777>@@@@@@$",
"55555555555555555555555555555555555555555555555566667777;@@#@@@@",
"55555555555555555555555555555555555555555555555566667777;@@@@@@@",
"55555555555555555555555555555555555555555555555566667777<@@@@@@@"
};
