/* XPM */
static char *result[] = {
/* columns rows colors chars-per-pixel */
"64 64 50 1 ",
"  c #328E41",
". c #329041",
"X c #329241",
"o c #339241",
"O c #339341",
"+ c #339841",
"@ c #349B41",
"# c #349C41",
"$ c #349D41",
"% c #349E41",
"& c #34A141",
"* c #34A441",
"= c #35A541",
"- c #35A641",
"; c #35A741",
": c #36A641",
"> c #37A641",
", c #36A741",
"< c #37A741",
"1 c #36A642",
"2 c #35A841",
"3 c #36A841",
"4 c #36A941",
"5 c #36AA41",
"6 c #36AB41",
"7 c #37AB41",
"8 c #36AD41",
"9 c #37AD41",
"0 c #37AE41",
"q c #37AF41",
"w c #39A841",
"e c #38AA41",
"r c #39A842",
"t c #3BAA42",
"y c #3BAB43",
"u c #37B041",
"i c #37B141",
"p c #38B041",
"a c #38B441",
"s c #39B641",
"d c #39B741",
"f c #1E7CB8",
"g c #5AAEE4",
"h c #F3F7F3",
"j c #F6F9F6",
"k c #F7FAF7",
"l c #FAFCFA",
"z c #FDFDFD",
"x c #FDFEFD",
"c c white",
/* pixels */
"=======3    ccccffffffffffffffffffffffffffffffffffffcccca===-===",
"========    ccccffffffffffffffffffffffffffffffffffffcccc3=======",
"========    ccccffffffffffffffffffffffffffffffffffffcccc3=======",
"========    ccccffffffffffffffffffffffffffffffffffffcccc3=======",
"========    ccccffffffffffffffffffffffffffffffffffffcccc6=======",
"========    ccccffffffffffffffffffffffffffffffffffffcccc0=======",
"========    ccccffffffffffffffffffffffffffffffffffffccccu=======",
"=======5    ccccffffffffffffffffffffffffffffffffffffccccu=======",
"====@       ccccffffffffffffffffffffffffffffffffcccc    u=======",
"====O       ccccffffffffffffffffffffffffffffffffcccc    0=======",
"====        ccccffffffffffffffffffffffffffffffffcccc    6=======",
"====        ccccffffffffffffffffffffffffffffffffcccc    8=======",
"====    ccccffffffffffffffffffffffffffffffffffffcccz============",
"====    ccccffffffffffffffffffffffffffffffffffffcccx============",
"====    ccccffffffffffffffffffffffffffffffffffffcccc2===========",
"====    ccccffffffffffffffffffffffffffffffffffffcccc2===========",
"====ccccggggffffffffffffffffffffffffffffffffffffcccc2===========",
"====ccccggggffffffffffffffffffffffffffffffffffffcccc4======:===w",
"====ccccggggffffffffffffffffffffffffffffffffffffcccc3==========1",
"====ccccggggffffffffffffffffffffffffffffffffffffcccc0==;=======y",
"====ccccffffffffffffffffffffffffffffffffffffffffcccc   +===<    ",
"====ccccffffffffffffffffffffffffffffffffffffffffcccc   o===t    ",
"====ccccffffffffffffffffffffffffffffffffffffffffcccc    :==r    ",
"====ccccffffffffffffffffffffffffffffffffffffffffcccc    >==<O   ",
"====ccccffffffffffffffffffffffffffffffffffffffffcccc   o=====-==",
"====ccccffffffffffffffffffffffffffffffffffffffffcccc    5=======",
"====ccccffffffffffffffffffffffffffffffffffffffffcccc    -=======",
"====ccccffffffffffffffffffffffffffffffffffffffffcccc    -=======",
"====ccccggggffffffffffffffffffffffffffffffffffffggggcccc-=======",
"====ccccggggffffffffffffffffffffffffffffffffffffggggcccc-=======",
"====ccccggggffffffffffffffffffffffffffffffffffffggggcccl========",
"====ccccggggffffffffffffffffffffffffffffffffffffggggccck========",
"=====-=5ccccggggffffffffffffffffffffffffffffffffggggcccj========",
"=======-ccccggggffffffffffffffffffffffffffffffffggggccch========",
"=======-ccccggggffffffffffffffffffffffffffffffffggggcccj-=======",
"========ccccggggffffffffffffffffffffffffffffffffggggcccc3=======",
"========    ccccffffffffffffffffffffffffffffffffcccc    6=======",
"========#   ccccffffffffffffffffffffffffffffffffcccc    7=======",
"==========O ccccffffffffffffffffffffffffffffffffcccc    4=======",
"==========* ccccffffffffffffffffffffffffffffffffcccc X  3=======",
"===========eccccffffffffffffffffffffffffffffffffcccc8==3,=======",
"===========:ccccffffffffffffffffffffffffffffffffcccc;===========",
"===========:ccccffffffffffffffffffffffffffffffffcccc-===========",
"===========9ccccffffffffffffffffffffffffffffffffcccc-===========",
"===========uccccffffffffffffffffffffffffffffffffcccc,===========",
"===========5ccccffffffffffffffffffffffffffffffffcccc4===========",
"===========6ccccffffffffffffffffffffffffffffffffcccc4===========",
"===========qccccffffffffffffffffffffffffffffffffcccc0==-========",
";==========pccccffffffffffffffffffffffffffffffffcccc   .========",
",==========iccccffffffffffffffffffffffffffffffffcccc    ;=======",
";==========sccccffffffffffffffffffffffffffffffffcccc    ;=======",
"-==========dccccffffffffffffffffffffffffffffffffcccc    ,=======",
"===========accccffffffffffffffffffffffffffffffffcccc    ========",
"===========0ccccffffffffffffffffffffffffffffffffcccc    -=======",
"===========4ccccffffffffffffffffffffffffffffffffcccc    ;=======",
"===========,ccccffffffffffffffffffffffffffffffffcccc    3=======",
"===========,ccccffffffffffffffffffffffffffffffffggggcccc3=======",
"===========5ccccffffffffffffffffffffffffffffffffggggcccc4=======",
"===========6ccccffffffffffffffffffffffffffffffffggggcccc5=======",
"===========6ccccffffffffffffffffffffffffffffffffggggcccca=======",
"===========&ccccffffffffffffffffffffffffffffffffffffcccc   %====",
"===========$ccccffffffffffffffffffffffffffffffffffffcccc    -===",
"===========+ccccffffffffffffffffffffffffffffffffffffcccc    -===",
"=========== ccccffffffffffffffffffffffffffffffffffffcccc    5==="
};
