/* XPM */
static char *result[] = {
/* columns rows colors chars-per-pixel */
"64 64 18 1 ",
"  c #328E41",
". c #339341",
"X c #35A541",
"o c #35A641",
"O c #35A741",
"+ c #36A641",
"@ c #36A741",
"# c #35A841",
"$ c #35A941",
"% c #36A841",
"& c #36AA41",
"* c #36AC41",
"= c #38A841",
"- c #3AA941",
"; c #38B241",
": c #1E7CB8",
"> c #5AAEE4",
", c white",
/* pixels */
"XXXo,,,,>>>>::::::::::::::::::::::::::::::::::::::::::::::::::::",
"XXXX,,,,>>>>::::::::::::::::::::::::::::::::::::::::::::::::::::",
"XXXX,,,,>>>>::::::::::::::::::::::::::::::::::::::::::::::::::::",
"XXXX,,,,>>>>::::::::::::::::::::::::::::::::::::::::::::::::::::",
"XXXXXX*;,,,,>>>>::::::::::::::::::::::::::::::::::::::::::::::::",
"XXXXXXXX,,,,>>>>::::::::::::::::::::::::::::::::::::::::::::::::",
"XXXXXXXX,,,,>>>>::::::::::::::::::::::::::::::::::::::::::::::::",
"XXXXXXXO,,,,>>>>::::::::::::::::::::::::::::::::::::::::::::::::",
"XXXXXXXo    ,,,,::::::::::::::::::::::::::::::::::::::::::::::::",
"XXXXXXXo    ,,,,::::::::::::::::::::::::::::::::::::::::::::::::",
"XXXXXXXX    ,,,,::::::::::::::::::::::::::::::::::::::::::::::::",
"XXXXXXXX.   ,,,,::::::::::::::::::::::::::::::::::::::::::::::::",
"XXXXXXXX%XXX,,,,::::::::::::::::::::::::::::::::::::::::::::::::",
"XXXXXXXXXXXX,,,,::::::::::::::::::::::::::::::::::::::::::::::::",
"XXXXXXXXXXXX,,,,::::::::::::::::::::::::::::::::::::::::::::::::",
"XXXXXXXXXXXo,,,,::::::::::::::::::::::::::::::::::::::::::::::::",
"XXXXXXXXXXXo,,,,::::::::::::::::::::::::::::::::::::::::::::::::",
"XXXXXXXXXXXo,,,,::::::::::::::::::::::::::::::::::::::::::::::::",
"XXXXXXXXXXX%,,,,::::::::::::::::::::::::::::::::::::::::::::::::",
"XXXXXXXXXXX%,,,,::::::::::::::::::::::::::::::::::::::::::::::::",
"XXXXXXXXXXX&,,,,::::::::::::::::::::::::::::::::::::::::::::::::",
"XXXXXXXXXXX%,,,,::::::::::::::::::::::::::::::::::::::::::::::::",
"XXXXXXXXXXXo,,,,::::::::::::::::::::::::::::::::::::::::::::::::",
"XXXXXXXXXXXX,,,,::::::::::::::::::::::::::::::::::::::::::::::::",
"XXXXXXXXXXXX,,,,::::::::::::::::::::::::::::::::::::::::::::::::",
"XXXXXXXXXXXX,,,,::::::::::::::::::::::::::::::::::::::::::::::::",
"XXXXXXXXXXXX,,,,::::::::::::::::::::::::::::::::::::::::::::::::",
"XXXXXXXXXXXo,,,,::::::::::::::::::::::::::::::::::::::::::::::::",
"XXXXXXXXXXX$,,,,::::::::::::::::::::::::::::::::::::::::::::::::",
"XXXXXXXXXXXX,,,,::::::::::::::::::::::::::::::::::::::::::::::::",
"XXXXXXXXXXXX,,,,::::::::::::::::::::::::::::::::::::::::::::::::",
"XXXX=+XXXXXX,,,,::::::::::::::::::::::::::::::::::::::::::::::::",
"XXXX        ,,,,::::::::::::::::::::::::::::::::::::::::::::::::",
"XXXX        ,,,,::::::::::::::::::::::::::::::::::::::::::::::::",
"XXXX        ,,,,::::::::::::::::::::::::::::::::::::::::::::::::",
"XXXX        ,,,,::::::::::::::::::::::::::::::::::::::::::::::::",
"XXXXOXXX    ,,,,::::::::::::::::::::::::::::::::::::::::::::::::",
"XXXXXXXX    ,,,,::::::::::::::::::::::::::::::::::::::::::::::::",
"XXXXXXXX    ,,,,::::::::::::::::::::::::::::::::::::::::::::::::",
"XXXXXXXX    ,,,,::::::::::::::::::::::::::::::::::::::::::::::::",
"XXXXOXXX,,,,::::::::::::::::::::::::::::::::::::::::::::::::::::",
"XXXX%XXX,,,,::::::::::::::::::::::::::::::::::::::::::::::::::::",
"XXXX%XXX,,,,::::::::::::::::::::::::::::::::::::::::::::::::::::",
"XXXXXXXX,,,,::::::::::::::::::::::::::::::::::::::::::::::::::::",
"XXXXXXXX,,,,>>>>::::::::::::::::::::::::::::::::::::::::::::::::",
"XXXXXXXX,,,,>>>>::::::::::::::::::::::::::::::::::::::::::::::::",
"XXXXXXXX,,,,>>>>::::::::::::::::::::::::::::::::::::::::::::::::",
"XXXXXXXX,,,,>>>>::::::::::::::::::::::::::::::::::::::::::::::::",
"XXXXXXXX    ,,,,>>>>>>>>,,,,,,,,,,,,,,,,>>>>::::::::::::::::::::",
"XXXXXXXX    ,,,,>>>>>>>>,,,,,,,,,,,,,,,,>>>>::::::::::::::::::::",
"XXXXXXXX    ,,,,>>>>>>>>,,,,,,,,,,,,,,,,>>>>::::::::::::::::::::",
"XXXXXXXX    ,,,,>>>>>>>>,,,,,,,,,,,,,,,,>>>>::::::::::::::::::::",
"XXXXXXXXXXX+    ,,,,,,,,oXXO%%%%OXX@    ,,,,,,,,,,,,,,,,>>>>>>>>",
"XXXXXXXXXXXX    ,,,,,,,,XXXXXXXXXXXX    ,,,,,,,,,,,,,,,,>>>>>>>>",
"XXXXXXXXXXXX    ,,,,,,,,XXXXXXXXXXXX    ,,,,,,,,,,,,,,,,>>>>>>>>",
"XXXXXXXXXXXX    ,,,,,,,,XXXXXXXXXXXX    ,,,,,,,,,,,,,,,,>>>>>>>>",
"XXXXXXXXXXXXXXXo%%%%%#OOXXXXXXXXXXo-oXXXXXXO    XXXX    ,,,,,,,,",
"XXXXXXXXXXXXXXXXXXXXXXXXXXXXXXXXXXXXXXXXXXXX    XXXX    ,,,,,,,,",
"XXXXXXXXXXXXXXXXXXXXXXXXXXXXXXXXXXXXXXXXXXXX    XXXX    ,,,,,,,,",
"XXXXXXXXXXXXXXXXXXXXXXXXXXXXoOOXXXXXXXXXXXXo    XXXo    ,,,,,,,,",
"XXXXXXXXXXXXXXXXXXXXXXXXXXXXXXXX    XXXXXXXXXXXXXXXXoXXXXXXXXXXo",
"XXXXXXXXXXXXXXXXXXXXXXXXXXXXXXXX    XXXXXXXXXXXXXXXXXXXXXXXXXXXX",
"XXXXXXXXXXXXXXXXXXXXXXXXXXXXXXXX    XXXXXXXXXXXXXXXXXXXXXXXXXXXX",
"XXXXXXXXXXXXXXXXXXXXXXXXXXXXXXXX    XXXXXXXXXXXXXXXXXXXXXXXXXXXX"
};
